<?xml version="1.0" encoding="UTF-8" standalone="no"?>
<svg
   width="92"
   height="28.6"
   viewBox="0 0 92 28.6"
   fill="none"
   version="1.1"
   id="svg6"
   sodipodi:docname="inpulse_design_logo_blanco.svg"
   inkscape:version="1.4 (86a8ad7, 2024-10-11)"
   xmlns:inkscape="http://www.inkscape.org/namespaces/inkscape"
   xmlns:sodipodi="http://sodipodi.sourceforge.net/DTD/sodipodi-0.dtd"
   xmlns="http://www.w3.org/2000/svg"
   xmlns:svg="http://www.w3.org/2000/svg">
  <defs
     id="defs6" />
  <sodipodi:namedview
     id="namedview6"
     pagecolor="#ffffff"
     bordercolor="#999999"
     borderopacity="1"
     inkscape:showpageshadow="2"
     inkscape:pageopacity="0"
     inkscape:pagecheckerboard="0"
     inkscape:deskcolor="#d1d1d1"
     inkscape:zoom="19.304348"
     inkscape:cx="37.323198"
     inkscape:cy="9.0394144"
     inkscape:window-width="1920"
     inkscape:window-height="1017"
     inkscape:window-x="-8"
     inkscape:window-y="-8"
     inkscape:window-maximized="1"
     inkscape:current-layer="svg6" />
  <path
     d="m 65.2808,21.9428 h 7.3885 c 1.0968,0 1.985,-0.8898 1.985,-1.9885 v -2.7141 c 0,-1.0988 -0.8882,-1.9886 -1.985,-1.9886 H 68.753 c -2.1578,0 -3.9043,-1.7527 -3.9043,-3.9114 V 8.54545 c 0,-2.16173 1.7495,-3.91142 3.9043,-3.91142 h 7.3885 c 0.2385,0 0.4352,0.19408 0.4352,0.43593 v 1.054 c 0,0.23886 -0.1937,0.43593 -0.4352,0.43593 H 68.753 c -1.0968,0 -1.9849,0.88977 -1.9849,1.98855 v 2.79476 c 0,1.0987 0.8881,1.9885 1.9849,1.9885 h 3.9163 c 2.1579,0 3.9044,1.7527 3.9044,3.9114 v 2.7141 c 0,2.1618 -1.7495,3.9115 -3.9044,3.9115 h -7.3885 c -0.2384,0 -0.4351,-0.1941 -0.4351,-0.436 v -1.054 c 0,-0.2388 0.1937,-0.4359 0.4351,-0.4359 z"
     fill="#f9f9f9"
     id="path1" />
  <path
     d="m 91.5647,21.9488 h -7.0696 c -0.6766,0 -1.216,-0.1821 -1.6154,-0.5493 -0.3994,-0.3673 -0.5991,-0.9495 -0.5991,-1.7497 v -4.4429 h 0.1222 8.0144 c 0.2385,0 0.4352,-0.1941 0.4352,-0.436 v -1.036 c 0,-0.2389 -0.1938,-0.436 -0.4352,-0.436 H 82.2806 V 8.83812 c 0,-0.8002 0.1997,-1.38243 0.5991,-1.74969 0.3994,-0.36427 0.9388,-0.54939 1.6154,-0.54939 h 7.0696 c 0.2384,0 0.4351,-0.19408 0.4351,-0.43593 V 5.06703 c 0,-0.23886 -0.1937,-0.43593 -0.4351,-0.43593 h -7.5912 c -0.453,0 -0.9031,0.06569 -1.3561,0.19707 -0.453,0.13137 -0.8613,0.34038 -1.2249,0.62702 -0.3636,0.28664 -0.6557,0.67778 -0.8733,1.17343 -0.2176,0.49564 -0.3249,1.11968 -0.3249,1.86613 V 19.9872 c 0,0.7494 0.1073,1.3705 0.3249,1.8661 0.2176,0.4956 0.5067,0.8868 0.8733,1.1734 0.3636,0.2867 0.7719,0.4957 1.2249,0.627 0.453,0.1314 0.9031,0.1971 1.3561,0.1971 h 7.5912 c 0.2384,0 0.4351,-0.1941 0.4351,-0.4359 v -1.0361 c 0,-0.2389 -0.1937,-0.4359 -0.4351,-0.4359 z"
     fill="#f9f9f9"
     id="path2" />
  <path
     d="M 13.5848,4.63702 H 12.181 c -0.152,0 -0.2921,0.08062 -0.3725,0.20901 L 2.42309,20.4081 2.3903,9.57855 C 2.3903,9.33968 2.19658,9.14262 1.95516,9.14262 H 0.894127 c -0.238434,0 -0.435143,0.19408 -0.435143,0.43593 L 0.509652,23.4148 c 0,0.2389 0.193728,0.433 0.435143,0.433 H 2.34858 c 0.152,0 0.29208,-0.0806 0.37255,-0.209 L 12.1006,8.08862 V 23.4118 c 0,0.2389 0.1937,0.436 0.4351,0.436 h 1.0521 c 0.2384,0 0.4351,-0.1941 0.4351,-0.436 V 5.06996 c 0,-0.23886 -0.1937,-0.43593 -0.4351,-0.43593 z"
     fill="#f9f9f9"
     id="path3" />
  <path
     d="M 30.1468,7.57208 C 29.8428,6.76292 29.4405,6.14486 28.9368,5.71789 28.4331,5.29091 27.8907,5.00428 27.3095,4.85498 26.7283,4.70868 26.159,4.63403 25.6017,4.63403 h -7.1978 c -0.2414,0 -0.4381,0.19707 -0.4381,0.43892 V 23.4118 c 0,0.2389 0.1937,0.436 0.4352,0.436 h 1.1892 c 0.2384,0 0.4351,-0.1941 0.4351,-0.436 v -6.312 l 5.4721,-0.0119 c 0.5543,0 1.1296,-0.0777 1.7197,-0.2359 0.5901,-0.1553 1.1415,-0.4568 1.6541,-0.8987 0.5127,-0.4449 0.9299,-1.0779 1.2518,-1.905 0.3219,-0.8271 0.4828,-1.9169 0.4828,-3.2754 0,-1.35857 -0.152,-2.38868 -0.456,-3.19784 z M 28.0874,13.484 c -0.2862,0.6449 -0.6825,1.0958 -1.1862,1.3585 -0.5037,0.2598 -1.0611,0.3912 -1.6691,0.3912 h -5.2098 v -5.1326 c 0,0 0,-2.44542 0,-3.586 h 5.3916 c 0.5544,0 1.067,0.12242 1.5379,0.36427 0.468,0.24483 0.8465,0.67479 1.1326,1.29286 0.2861,0.61806 0.4292,1.49291 0.4292,2.62457 0,1.1316 -0.1431,2.0452 -0.4292,2.6902 z"
     fill="#f9f9f9"
     id="path4" />
  <path
     d="m 55.1737,23.8477 c -0.748,0 -1.4097,-0.1164 -1.9939,-0.3523 -0.5812,-0.2359 -1.0372,-0.636 -1.368,-1.2003 -0.3308,-0.5643 -0.4947,-1.3347 -0.4947,-2.311 V 4.04877 c 0,-1.03011 -0.7928,-1.92585 -1.8181,-1.9587 -1.061,-0.03284 -1.9343,0.8211 -1.9343,1.87808 V 17.894 c 0,1.1824 -0.1639,2.1707 -0.4948,2.9619 -0.3308,0.7913 -0.8047,1.4183 -1.4216,1.8781 -0.617,0.4628 -1.3591,0.7883 -2.2294,0.9794 C 42.5486,23.9045 41.577,24 40.5011,24 39.4251,24 38.4505,23.9045 37.5832,23.7134 36.7129,23.5223 35.9708,23.1968 35.3568,22.734 34.7399,22.2742 34.266,21.6472 33.9352,20.8559 33.6044,20.0647 33.4404,19.0764 33.4404,17.894 V 4.63399 c 1.1505,0 2.0833,0.93456 2.0833,2.08708 V 17.894 c 0,1.0958 0.1968,1.9497 0.5872,2.5588 0.3904,0.6092 0.9597,1.0391 1.7078,1.2929 0.7451,0.2538 1.6422,0.3792 2.6824,0.3792 1.0401,0 1.9373,-0.1254 2.6853,-0.3792 0.7481,-0.2508 1.3144,-0.6837 1.7078,-1.2929 0.3905,-0.6091 0.5872,-1.46 0.5872,-2.5588 V 3.96815 C 45.4814,1.77656 47.2547,0 49.4424,0 c 2.1876,0 3.961,1.77656 3.961,3.96815 V 19.6944 c 0,0.6271 0.1043,1.1018 0.3129,1.4243 0.2086,0.3225 0.4858,0.5404 0.8345,0.6509 0.3487,0.1135 0.7034,0.1702 1.067,0.1702 h 4.9833 c 1.0491,0.006 1.8956,0.8569 1.8956,1.9049 h -7.323 z"
     fill="#f9f9f9"
     id="path5" />
  <path
     d="m 1.42763,7.20465 c 0.78845,0 1.42763,-0.64032 1.42763,-1.43021 0,-0.78988 -0.63918,-1.4302 -1.42763,-1.4302 C 0.639171,4.34424 0,4.98456 0,5.77444 0,6.56433 0.639171,7.20465 1.42763,7.20465 Z"
     fill="#f9f9f9"
     id="path6" />
</svg>
