<?xml version="1.0" encoding="UTF-8" standalone="no"?>
<!-- Created with Inkscape (http://www.inkscape.org/) -->

<svg
   version="1.1"
   id="svg1"
   width="682.66669"
   height="682.66669"
   viewBox="0 0 682.66669 682.66669"
   sodipodi:docname="mundo_adaptogenos.svg"
   inkscape:version="1.3 (0e150ed6c4, 2023-07-21)"
   xmlns:inkscape="http://www.inkscape.org/namespaces/inkscape"
   xmlns:sodipodi="http://sodipodi.sourceforge.net/DTD/sodipodi-0.dtd"
   xmlns="http://www.w3.org/2000/svg"
   xmlns:svg="http://www.w3.org/2000/svg">
  <defs
     id="defs1">
    <clipPath
       clipPathUnits="userSpaceOnUse"
       id="clipPath3">
      <path
         d="M 0,512 H 512 V 0 H 0 Z"
         transform="translate(-491.00001,-256.00001)"
         id="path3" />
    </clipPath>
    <clipPath
       clipPathUnits="userSpaceOnUse"
       id="clipPath5">
      <path
         d="M 0,512 H 512 V 0 H 0 Z"
         transform="translate(-440.50001,-256.00001)"
         id="path5" />
    </clipPath>
    <clipPath
       clipPathUnits="userSpaceOnUse"
       id="clipPath7">
      <path
         d="M 0,512 H 512 V 0 H 0 Z"
         transform="translate(-356.18341,-256.00001)"
         id="path7" />
    </clipPath>
    <clipPath
       clipPathUnits="userSpaceOnUse"
       id="clipPath9">
      <path
         d="M 0,512 H 512 V 0 H 0 Z"
         transform="translate(-283.92181,-120.5732)"
         id="path9" />
    </clipPath>
    <clipPath
       clipPathUnits="userSpaceOnUse"
       id="clipPath11">
      <path
         d="M 0,512 H 512 V 0 H 0 Z"
         transform="translate(-211.91541,-129.9183)"
         id="path11" />
    </clipPath>
    <clipPath
       clipPathUnits="userSpaceOnUse"
       id="clipPath13">
      <path
         d="M 0,512 H 512 V 0 H 0 Z"
         transform="translate(-300.50281,-146.7513)"
         id="path13" />
    </clipPath>
    <clipPath
       clipPathUnits="userSpaceOnUse"
       id="clipPath15">
      <path
         d="M 0,512 H 512 V 0 H 0 Z"
         transform="translate(-138.62841,-324.67861)"
         id="path15" />
    </clipPath>
    <clipPath
       clipPathUnits="userSpaceOnUse"
       id="clipPath17">
      <path
         d="M 0,512 H 512 V 0 H 0 Z"
         transform="translate(-260.2282,-386.06151)"
         id="path17" />
    </clipPath>
    <clipPath
       clipPathUnits="userSpaceOnUse"
       id="clipPath19">
      <path
         d="M 0,512 H 512 V 0 H 0 Z"
         transform="translate(-164.8657,-274.2423)"
         id="path19" />
    </clipPath>
    <clipPath
       clipPathUnits="userSpaceOnUse"
       id="clipPath21">
      <path
         d="M 0,512 H 512 V 0 H 0 Z"
         transform="translate(-145.86591,-301.09571)"
         id="path21" />
    </clipPath>
    <clipPath
       clipPathUnits="userSpaceOnUse"
       id="clipPath23">
      <path
         d="M 0,512 H 512 V 0 H 0 Z"
         transform="translate(-356.50121,-277.95831)"
         id="path23" />
    </clipPath>
    <clipPath
       clipPathUnits="userSpaceOnUse"
       id="clipPath25">
      <path
         d="M 0,512 H 512 V 0 H 0 Z"
         transform="translate(-271.8295,-177.7143)"
         id="path25" />
    </clipPath>
    <clipPath
       clipPathUnits="userSpaceOnUse"
       id="clipPath27">
      <path
         d="M 0,512 H 512 V 0 H 0 Z"
         transform="translate(-258.34531,-180.26861)"
         id="path27" />
    </clipPath>
    <clipPath
       clipPathUnits="userSpaceOnUse"
       id="clipPath29">
      <path
         d="M 0,512 H 512 V 0 H 0 Z"
         transform="translate(-237.6514,-283.7913)"
         id="path29" />
    </clipPath>
    <clipPath
       clipPathUnits="userSpaceOnUse"
       id="clipPath31">
      <path
         d="M 0,512 H 512 V 0 H 0 Z"
         transform="translate(-277.01401,-153.46301)"
         id="path31" />
    </clipPath>
    <clipPath
       clipPathUnits="userSpaceOnUse"
       id="clipPath33">
      <path
         d="M 0,512 H 512 V 0 H 0 Z"
         transform="translate(-173.203,-316.74881)"
         id="path33" />
    </clipPath>
    <clipPath
       clipPathUnits="userSpaceOnUse"
       id="clipPath35">
      <path
         d="M 0,512 H 512 V 0 H 0 Z"
         transform="translate(-186.2355,-341.96891)"
         id="path35" />
    </clipPath>
    <clipPath
       clipPathUnits="userSpaceOnUse"
       id="clipPath37">
      <path
         d="M 0,512 H 512 V 0 H 0 Z"
         transform="translate(-173.203,-316.74881)"
         id="path37" />
    </clipPath>
    <clipPath
       clipPathUnits="userSpaceOnUse"
       id="clipPath39">
      <path
         d="M 0,512 H 512 V 0 H 0 Z"
         transform="translate(-212.35041,-367.82411)"
         id="path39" />
    </clipPath>
    <clipPath
       clipPathUnits="userSpaceOnUse"
       id="clipPath41">
      <path
         d="M 0,512 H 512 V 0 H 0 Z"
         transform="translate(-291.95061,-355.45501)"
         id="path41" />
    </clipPath>
    <clipPath
       clipPathUnits="userSpaceOnUse"
       id="clipPath43">
      <path
         d="M 0,512 H 512 V 0 H 0 Z"
         transform="translate(-283.8085,-371.72251)"
         id="path43" />
    </clipPath>
    <clipPath
       clipPathUnits="userSpaceOnUse"
       id="clipPath45">
      <path
         d="M 0,512 H 512 V 0 H 0 Z"
         transform="translate(-332.94101,-318.25191)"
         id="path45" />
    </clipPath>
    <clipPath
       clipPathUnits="userSpaceOnUse"
       id="clipPath47">
      <path
         d="M 0,512 H 512 V 0 H 0 Z"
         transform="translate(-190.953,-283.70561)"
         id="path47" />
    </clipPath>
    <clipPath
       clipPathUnits="userSpaceOnUse"
       id="clipPath49">
      <path
         d="M 0,512 H 512 V 0 H 0 Z"
         transform="translate(-238.48741,-280.9908)"
         id="path49" />
    </clipPath>
    <clipPath
       clipPathUnits="userSpaceOnUse"
       id="clipPath51">
      <path
         d="M 0,512 H 512 V 0 H 0 Z"
         transform="translate(-168.0643,-289.14741)"
         id="path51" />
    </clipPath>
    <clipPath
       clipPathUnits="userSpaceOnUse"
       id="clipPath53">
      <path
         d="M 0,512 H 512 V 0 H 0 Z"
         transform="translate(-278.14971,-267.2259)"
         id="path53" />
    </clipPath>
    <clipPath
       clipPathUnits="userSpaceOnUse"
       id="clipPath55">
      <path
         d="M 0,512 H 512 V 0 H 0 Z"
         transform="translate(-345.93071,-287.03051)"
         id="path55" />
    </clipPath>
    <clipPath
       clipPathUnits="userSpaceOnUse"
       id="clipPath57">
      <path
         d="M 0,512 H 512 V 0 H 0 Z"
         transform="translate(-354.04991,-290.85161)"
         id="path57" />
    </clipPath>
    <clipPath
       clipPathUnits="userSpaceOnUse"
       id="clipPath59">
      <path
         d="M 0,512 H 512 V 0 H 0 Z"
         transform="translate(-254.74131,-272.9505)"
         id="path59" />
    </clipPath>
    <clipPath
       clipPathUnits="userSpaceOnUse"
       id="clipPath61">
      <path
         d="M 0,512 H 512 V 0 H 0 Z"
         transform="translate(-287.04591,-305.78071)"
         id="path61" />
    </clipPath>
    <clipPath
       clipPathUnits="userSpaceOnUse"
       id="clipPath63">
      <path
         d="M 0,512 H 512 V 0 H 0 Z"
         transform="translate(-168.0643,-289.14741)"
         id="path63" />
    </clipPath>
    <clipPath
       clipPathUnits="userSpaceOnUse"
       id="clipPath65">
      <path
         d="M 0,512 H 512 V 0 H 0 Z"
         transform="translate(-227.9947,-319.47241)"
         id="path65" />
    </clipPath>
    <clipPath
       clipPathUnits="userSpaceOnUse"
       id="clipPath67">
      <path
         d="M 0,512 H 512 V 0 H 0 Z"
         transform="translate(-300.96071,-305.09391)"
         id="path67" />
    </clipPath>
    <clipPath
       clipPathUnits="userSpaceOnUse"
       id="clipPath69">
      <path
         d="M 0,512 H 512 V 0 H 0 Z"
         transform="translate(-196.0731,-313.92881)"
         id="path69" />
    </clipPath>
    <clipPath
       clipPathUnits="userSpaceOnUse"
       id="clipPath71">
      <path
         d="M 0,512 H 512 V 0 H 0 Z"
         transform="translate(-298.01421,-304.99341)"
         id="path71" />
    </clipPath>
    <clipPath
       clipPathUnits="userSpaceOnUse"
       id="clipPath73">
      <path
         d="M 0,512 H 512 V 0 H 0 Z"
         transform="translate(-320.25431,-314.87381)"
         id="path73" />
    </clipPath>
    <clipPath
       clipPathUnits="userSpaceOnUse"
       id="clipPath75">
      <path
         d="M 0,512 H 512 V 0 H 0 Z"
         transform="translate(-274.01121,-334.89701)"
         id="path75" />
    </clipPath>
    <clipPath
       clipPathUnits="userSpaceOnUse"
       id="clipPath77">
      <path
         d="M 0,512 H 512 V 0 H 0 Z"
         transform="translate(-312.99471,-361.02241)"
         id="path77" />
    </clipPath>
    <clipPath
       clipPathUnits="userSpaceOnUse"
       id="clipPath79">
      <path
         d="M 0,512 H 512 V 0 H 0 Z"
         transform="translate(-246.9727,-335.07591)"
         id="path79" />
    </clipPath>
    <clipPath
       clipPathUnits="userSpaceOnUse"
       id="clipPath81">
      <path
         d="M 0,512 H 512 V 0 H 0 Z"
         transform="translate(-189.0828,-324.92991)"
         id="path81" />
    </clipPath>
    <clipPath
       clipPathUnits="userSpaceOnUse"
       id="clipPath83">
      <path
         d="M 0,512 H 512 V 0 H 0 Z"
         transform="translate(-204.8812,-341.96551)"
         id="path83" />
    </clipPath>
    <clipPath
       clipPathUnits="userSpaceOnUse"
       id="clipPath85">
      <path
         d="M 0,512 H 512 V 0 H 0 Z"
         transform="translate(-205.47741,-345.92761)"
         id="path85" />
    </clipPath>
    <clipPath
       clipPathUnits="userSpaceOnUse"
       id="clipPath87">
      <path
         d="M 0,512 H 512 V 0 H 0 Z"
         transform="translate(-205.47741,-345.92761)"
         id="path87" />
    </clipPath>
    <clipPath
       clipPathUnits="userSpaceOnUse"
       id="clipPath89">
      <path
         d="M 0,512 H 512 V 0 H 0 Z"
         transform="translate(-312.99471,-361.02241)"
         id="path89" />
    </clipPath>
    <clipPath
       clipPathUnits="userSpaceOnUse"
       id="clipPath91">
      <path
         d="M 0,512 H 512 V 0 H 0 Z"
         transform="translate(-242.9485,-189.1466)"
         id="path91" />
    </clipPath>
    <clipPath
       clipPathUnits="userSpaceOnUse"
       id="clipPath93">
      <path
         d="M 0,512 H 512 V 0 H 0 Z"
         transform="translate(-283.3,-321.01731)"
         id="path93" />
    </clipPath>
    <clipPath
       clipPathUnits="userSpaceOnUse"
       id="clipPath95">
      <path
         d="M 0,512 H 512 V 0 H 0 Z"
         transform="translate(-217.82091,-324.07331)"
         id="path95" />
    </clipPath>
  </defs>
  <sodipodi:namedview
     id="namedview1"
     pagecolor="#ffffff"
     bordercolor="#000000"
     borderopacity="0.25"
     inkscape:showpageshadow="2"
     inkscape:pageopacity="0.0"
     inkscape:pagecheckerboard="0"
     inkscape:deskcolor="#d1d1d1"
     inkscape:zoom="0.56865471"
     inkscape:cx="362.2585"
     inkscape:cy="436.99629"
     inkscape:window-width="1360"
     inkscape:window-height="745"
     inkscape:window-x="-8"
     inkscape:window-y="-8"
     inkscape:window-maximized="1"
     inkscape:current-layer="layer-MC0"
     showgrid="true">
    <inkscape:page
       x="0"
       y="0"
       inkscape:label="1"
       id="page1"
       width="682.66669"
       height="682.66669"
       margin="0"
       bleed="0" />
    <inkscape:grid
       id="grid1"
       units="px"
       originx="0"
       originy="0"
       spacingx="1"
       spacingy="1"
       empcolor="#0099e5"
       empopacity="0.30196078"
       color="#0099e5"
       opacity="0.14901961"
       empspacing="5"
       dotted="false"
       gridanglex="30"
       gridanglez="30"
       visible="true" />
  </sodipodi:namedview>
  <g
     id="layer-MC0"
     inkscape:groupmode="layer"
     inkscape:label="Capa 1">
    <path
       id="path2"
       d="m 0,0 c 0,-129.787 -105.213,-235 -235,-235 -129.787,0 -235,105.213 -235,235 0,129.787 105.213,235 235,235 C -105.213,235 0,129.787 0,0"
       style="fill:#6a1c1c;fill-opacity:1;fill-rule:nonzero;stroke:none"
       transform="matrix(1.4425532,0,0,-1.4425532,681,342)"
       clip-path="url(#clipPath3)" />
    <path
       id="path4"
       d="m 0,0 c 0,-101.897 -82.603,-184.5 -184.5,-184.5 -101.897,0 -184.5,82.603 -184.5,184.5 0,101.897 82.603,184.5 184.5,184.5 C -82.603,184.5 0,101.897 0,0"
       style="fill:#ffffff;fill-opacity:1;fill-rule:nonzero;stroke:none"
       transform="matrix(1.598916,0,0,-1.5795691,635,312.74269)"
       clip-path="url(#clipPath5)" />
    <path
       id="path6"
       d="m 0,0 c 0,-55.33 -44.854,-100.183 -100.183,-100.183 -55.33,0 -100.184,44.853 -100.184,100.183 0,55.33 44.854,100.183 100.184,100.183 C -44.854,100.183 0,55.33 0,0"
       style="fill:#ffffff;fill-opacity:1;fill-rule:nonzero;stroke:none"
       transform="matrix(1.3156136,0,0,-1.3156136,472.31882,368.57015)"
       clip-path="url(#clipPath7)" />
    <path
       id="path8"
       d="m 0,0 c -2.956,-0.031 -5.912,-0.063 -8.868,-0.094 -2.197,1.991 -4.929,1.387 -7.499,1.522 -2.436,0.128 -6.507,2.202 -6.507,2.202 0.197,0.174 0.398,0.346 0.602,0.513 11.526,6.159 16.486,15.786 15.364,28.747 -0.719,8.312 -2.386,16.396 -5.184,24.251 0.759,2.171 1.895,4.212 1.613,6.681 -0.297,2.595 -0.039,5.313 3.037,5.977 3.049,0.658 4.296,-1.968 5.489,-4.128 0.711,-1.288 1.122,-2.757 1.566,-4.176 C 0.322,59.232 1.66,57.743 4.122,57.481 6.756,50.162 9.466,42.868 12.003,35.515 14.545,28.147 16.913,20.76 16.126,12.729 15.499,6.327 11.961,2.292 5.63,1.521 3.673,1.283 1.613,1.488 0,0"
       style="fill:#cb5e37;fill-opacity:1;fill-rule:nonzero;stroke:none"
       transform="matrix(1.8301624,0,0,-1.6145068,386.16384,622.64424)"
       clip-path="url(#clipPath9)" />
    <path
       id="path10"
       d="M 0,0 C -2.424,7.208 0.729,14.932 4.094,21.838 4.383,21.696 4.688,21.611 5.009,21.583 5.551,17.918 17.752,10.121 20.058,9.102 20.75,8.4 21.441,7.698 22.132,6.996 21.219,4.12 21.297,1.122 20.963,-1.831 c -0.425,-3.751 1.086,-5.065 4.709,-5.051 4.114,0.015 8.284,0.522 12.339,-0.69 C 29.189,-8.693 20.282,-7.141 11.464,-8.405 5.524,-8.494 1.599,-4.754 0,0"
       style="fill:#f3b044;fill-opacity:1;fill-rule:nonzero;stroke:none"
       transform="matrix(1.8301624,0,0,-1.6145068,254.38042,607.5565)"
       clip-path="url(#clipPath11)" />
    <path
       id="path12"
       d="m 0,0 c -1.96,6.803 -15.561,59.483 -15.639,60.106 -3.192,15.236 -4.483,30.707 -5.719,46.185 -0.157,1.973 -0.342,3.944 -0.514,5.916 -1.159,-1.824 -2.738,-2.832 -4.958,-2.365 -3.072,0.646 -4.521,-1.169 -5.618,-3.578 -0.324,-1.287 -0.648,-2.574 -0.972,-3.859 10.245,-2.494 10.02,-2.521 11.3,-13.206 2.33,-19.441 4.936,-38.849 9.66,-57.896 2.635,-7.319 5.345,-14.613 7.882,-21.966 2.542,-7.368 4.91,-14.755 4.123,-22.786 -0.627,-6.402 -4.165,-10.437 -10.496,-11.208 -1.281,-0.156 -2.605,-0.13 -3.821,-0.506 -2.224,0.604 -4.677,0.314 -7.023,0.413 -3.051,0.128 -6.249,-0.187 -8.468,2.079 -1.426,-0.057 -12.727,-1.673 -13.611,-1.735 -11.05,-1.12 -22.205,0.432 -33.249,-0.832 20.799,-1.418 41.558,-1.482 62.043,-1.084 8.202,-0.666 13.442,1.225 16.36,9.686 C 3.145,-11.228 1.562,-5.422 0,0"
       style="fill:#bd6e4d;fill-opacity:1;fill-rule:nonzero;stroke:none"
       transform="matrix(1.8301624,0,0,-1.6145068,416.50975,580.37953)"
       clip-path="url(#clipPath13)" />
    <path
       id="path14"
       d="m 0,0 c 0.644,5.06 3.482,9.345 4.983,14.101 6.415,10.436 16.013,17.593 25.553,24.808 15.934,9.551 33.013,16.386 50.937,21.068 10.754,2.808 21.488,6.016 32.818,5.516 1.998,-2.148 7.418,-2.774 9.681,-4.454 -6.405,0.292 -15.181,0.929 -21.585,1.221 -2.512,-0.723 -5.073,-1.312 -7.525,-2.203 -3.571,-1.297 -3.669,-2.929 -0.509,-5.795 0.003,-0.33 1.644,-4.248 -0.138,-6.208 -2.937,2.194 -6.37,2.249 -9.81,2.271 -0.81,4.298 -3.816,5.062 -7.488,4.518 C 68.346,53.572 60.071,51.311 52.232,47.51 46.449,44.707 39.955,43.202 35.57,37.941 33.81,35.83 32.075,33.807 33.759,30.858 27.675,27.517 22.445,23.183 19.386,16.857 16.239,10.35 16.084,3.624 20.17,-2.583 c 3.384,-5.14 8.486,-6.569 14.405,-5.347 -2.153,-3.454 -5.628,-4.391 -9.324,-4.765 C 16.085,-13.622 7.8,-11.927 1.554,-4.432 1.036,-2.955 0.518,-1.477 0,0"
       style="fill:#f3b044;fill-opacity:1;fill-rule:nonzero;stroke:none"
       transform="matrix(1.8301624,0,0,-1.6145068,120.25331,293.11467)"
       clip-path="url(#clipPath15)" />
    <path
       id="path16"
       d="M 0,0 C -2.262,1.68 -5.31,1.962 -7.309,4.11 -0.027,6.008 7.26,4.759 14.383,3.529 39.544,-0.816 63.717,-8.13 85.648,-21.695 c 0.543,-0.335 11.93,-8.155 16.363,-12.531 8.465,-8.358 15.013,-17.954 16.348,-30.259 -0.198,-1.03 -0.397,-2.063 -0.596,-3.089 -0.346,0.201 -0.692,0.396 -1.038,0.59 -0.041,3.771 -2.302,6.715 -4.428,9.285 -8.209,9.924 -11.077,23.589 -23.242,30.914 -7.91,4.762 -14.907,10.896 -24.543,12.011 -1.113,0.129 -2.332,0.551 -3.224,1.212 C 49.246,-4.633 34.911,-2.29 20.764,0.469 16.715,1.259 12.354,1.571 9.744,-2.961 8.226,-2.624 0.277,-0.031 0,0"
       style="fill:#d06c44;fill-opacity:1;fill-rule:nonzero;stroke:none"
       transform="matrix(1.8301624,0,0,-1.6145068,342.80068,194.01157)"
       clip-path="url(#clipPath17)" />
    <path
       id="path18"
       d="m 0,0 c -7.297,2.423 -19.698,16.768 -19.915,17.555 -0.379,3.167 -1.947,6.451 0.918,9.297 1.824,-0.427 3.646,-0.853 5.468,-1.279 0.897,-0.938 1.794,-1.876 2.691,-2.815 C -14.479,14.405 -13.545,11.001 -6.353,5.351 -4.181,3.645 -1.475,2.541 0,0"
       style="fill:#cb5e37;fill-opacity:1;fill-rule:nonzero;stroke:none"
       transform="matrix(1.8301624,0,0,-1.6145068,168.27184,374.54444)"
       clip-path="url(#clipPath19)" />
    <path
       id="path20"
       d="m 0,0 c -2.863,-2.848 -1.294,-6.132 -0.915,-9.298 -2.227,1.478 -3.113,3.895 -3.92,6.193 -3.048,8.672 -5.224,17.471 -2.405,26.69 0.52,-1.48 1.038,-2.957 1.556,-4.437 C -5.905,12.136 -7.735,4.647 0,0"
       style="fill:#bd6e4d;fill-opacity:1;fill-rule:nonzero;stroke:none"
       transform="matrix(1.8301624,0,0,-1.6145068,133.49911,331.18941)"
       clip-path="url(#clipPath21)" />
    <path
       id="path22"
       d="m 0,0 c -0.792,-0.474 -1.907,-1.091 -3.534,-1.942 l -0.028,-0.013 c -7.835,0.564 -7.827,0.563 -7.086,8.066 0.097,0.98 0.055,1.974 0.078,2.961 2.706,1.274 5.412,2.548 8.119,3.821 4.614,1.929 8.637,4.691 11.937,8.472 0.565,0.328 9.883,4.745 10.824,9.882 0.563,3.072 1.386,6.107 1.181,9.276 0.198,1.032 0.397,2.065 0.595,3.096 C 31.765,19.192 2.419,1.448 0,0"
       style="fill:#ae3e30;fill-opacity:1;fill-rule:nonzero;stroke:none"
       transform="matrix(1.8301624,0,0,-1.6145068,518.99594,368.54492)"
       clip-path="url(#clipPath23)" />
    <path
       id="path24"
       d="m 0,0 c -3.838,4.318 -8.853,2.424 -13.484,2.554 0,0 -0.383,-0.119 -0.383,-0.12 0.113,1.565 0.227,3.131 0.341,4.697 0.924,3.378 0.716,6.799 0.391,10.224 0.103,6.646 0.205,13.291 0.308,19.937 1.316,8.302 1.142,16.656 0.884,25.013 0.128,0.594 0.255,1.188 0.383,1.782 3.348,1.455 5.096,4.392 6.814,7.357 C 5.498,68.948 5.273,68.921 6.553,58.236 8.883,38.795 11.489,19.387 16.214,0.34 13.753,0.602 12.414,2.091 11.706,4.354 11.262,5.773 10.851,7.241 10.139,8.53 8.946,10.69 7.699,13.316 4.65,12.658 1.575,11.994 1.317,9.276 1.613,6.681 1.896,4.212 0.76,2.171 0,0"
       style="fill:#cf6238;fill-opacity:1;fill-rule:nonzero;stroke:none"
       transform="matrix(1.8301624,0,0,-1.6145068,364.03296,530.38954)"
       clip-path="url(#clipPath25)" />
    <path
       id="path26"
       d="m 0,0 c -1.937,-7.688 -1.986,-15.712 -4.319,-23.35 -1.677,-5.488 -4.17,-10.377 -8.206,-14.493 -3.26,-3.323 -7.004,-5.478 -11.773,-5.51 -0.691,0.701 -1.382,1.403 -2.074,2.104 0.879,0.47 1.754,0.949 2.638,1.409 3.544,1.846 6.771,4.383 6.807,8.53 0.035,3.909 -3.427,5.815 -6.69,7.267 -2.078,0.925 -3.749,2.11 -2.228,4.473 5.613,8.719 7.36,18.823 10.449,28.446 3.351,-1.418 4.797,-4.419 5.993,-7.505 1.245,-3.211 2.862,-4.768 6.234,-2.443 0.778,0.536 1.85,0.646 2.786,0.953 z"
       style="fill:#fbcf56;fill-opacity:1;fill-rule:nonzero;stroke:none"
       transform="matrix(1.8301624,0,0,-1.6145068,339.35468,526.2656)"
       clip-path="url(#clipPath27)" />
    <path
       id="path28"
       d="m 0,0 c 1.835,1.29 3.771,0.875 5.711,0.333 3.207,-0.895 6.48,-1.148 9.802,-1.186 7.391,-0.084 10.616,-2.607 12.873,-9.799 2.063,-6.574 1.962,-13.355 2.018,-20.124 -0.325,-1.287 -0.649,-2.574 -0.972,-3.859 -1.718,-2.963 -3.466,-5.9 -6.815,-7.355 -1.444,4.282 -0.359,8.483 0.391,12.7 1.279,7.186 -0.452,13.371 -5.918,18.449 C 12.445,-6.525 6.705,-4.566 0.836,-2.8 0.557,-1.867 0.279,-0.933 0,0"
       style="fill:#f3b044;fill-opacity:1;fill-rule:nonzero;stroke:none"
       transform="matrix(1.8301624,0,0,-1.6145068,301.48147,359.12749)"
       clip-path="url(#clipPath29)" />
    <path
       id="path30"
       d="m 0,0 c -0.72,8.312 -2.386,16.396 -5.185,24.251 -3.838,4.318 -8.852,2.425 -13.484,2.555 -1.937,-7.689 -1.985,-15.713 -4.319,-23.35 -1.677,-5.489 -4.17,-10.378 -8.206,-14.493 -3.26,-3.324 -7.003,-5.478 -11.773,-5.511 -0.913,-2.877 -0.835,-5.875 -1.169,-8.828 -0.424,-3.751 0.251,-5.832 3.872,-5.94 9.4,-0.28 11.505,-0.215 15.749,-0.107 8.852,0.227 17.741,2.04 17.741,2.04 C -6.608,-29.166 1.122,-12.961 0,0"
       style="fill:#f8a630;fill-opacity:1;fill-rule:nonzero;stroke:none"
       transform="matrix(1.8301624,0,0,-1.6145068,373.52144,569.54342)"
       clip-path="url(#clipPath31)" />
    <path
       id="path32"
       d="m 0,0 c -5.919,-1.222 -11.02,0.207 -14.404,5.347 -4.087,6.207 -3.931,12.933 -0.785,19.44 3.059,6.325 8.289,10.659 14.372,14.003 12.45,0.988 15.695,-2.192 13.849,-13.57 C 10.684,18.526 8.336,11.833 5.989,5.14 3.993,3.427 1.996,1.713 0,0"
       style="fill:#fde97c;fill-opacity:1;fill-rule:nonzero;stroke:none"
       transform="matrix(1.8301624,0,0,-1.6145068,183.53046,305.91739)"
       clip-path="url(#clipPath33)" />
    <path
       id="path34"
       d="m 0,0 c 1.846,11.378 -1.399,14.558 -13.849,13.57 -1.683,2.946 0.052,4.969 1.812,7.081 4.385,5.261 10.879,6.766 16.662,9.569 7.839,3.8 16.114,6.062 24.685,7.333 3.672,0.544 6.678,-0.22 7.488,-4.519 C 32.566,31.639 30.477,27.055 26.115,25.856 24.437,26.405 23.208,25.604 22.148,24.462 19.108,21.185 15.839,18.086 13.821,13.995 13.446,13.411 9.118,6.673 8.804,6.024 L 8.782,5.986 C 4.091,6.578 2.605,2.468 0,0"
       style="fill:#f9b33b;fill-opacity:1;fill-rule:nonzero;stroke:none"
       transform="matrix(1.8301624,0,0,-1.6145068,207.38204,265.19935)"
       clip-path="url(#clipPath35)" />
    <path
       id="path36"
       d="m 0,0 c 1.996,1.713 3.993,3.427 5.989,5.14 3.411,0.642 6.335,2.869 9.891,3.041 0.464,-4.822 1.84,-9.444 3.084,-14.095 -3.473,-4.29 -8.402,-6.365 -13.18,-8.67 -1.158,-0.352 -2.315,-0.705 -3.473,-1.057 0,0 -0.45,-0.046 -0.45,-0.046 -7.857,-1.406 -15.792,-1.324 -23.727,-1.246 -1.822,0.426 -3.644,0.852 -5.469,1.279 -7.738,4.648 -5.907,12.137 -5.686,19.149 6.246,-7.492 14.531,-9.187 23.698,-8.26 C -5.628,-4.392 -2.153,-3.454 0,0"
       style="fill:#ec7e32;fill-opacity:1;fill-rule:nonzero;stroke:none"
       transform="matrix(1.8301624,0,0,-1.6145068,183.53046,305.91739)"
       clip-path="url(#clipPath37)" />
    <path
       id="path38"
       d="M 0,0 C 7.45,5.527 10.603,12.013 20.494,4.909 24.183,2.26 20.943,-6.279 20.391,-10.503 16.18,-21.05 19.753,-27.734 2.675,-26.848 c -1.35,0.821 -2.7,1.642 -4.051,2.462 0.815,0.804 1.7,1.572 2.464,2.375 C 3.85,-19.109 4.962,-6.168 -3.17,-7.876 -3.033,-4.88 -1.209,-2.564 0,0"
       style="fill:#fcde68;fill-opacity:1;fill-rule:nonzero;stroke:none"
       transform="matrix(1.8301624,0,0,-1.6145068,255.17655,223.45597)"
       clip-path="url(#clipPath39)" />
    <path
       id="path40"
       d="m 0,0 c -0.271,0.472 -6.351,23.296 -21.978,27.645 -1.518,0.337 -4.973,1.667 -8.936,2.776 -0.262,0.093 -13.617,0.77 -20.021,1.063 -2.512,-0.724 -5.073,-1.312 -7.525,-2.203 -3.571,-1.297 -3.669,-2.93 -0.509,-5.795 0.003,-0.33 0.017,-0.991 0.017,-0.991 0.414,-1.753 0.583,-3.499 -0.154,-5.216 0.519,-0.915 0.449,-11.189 -0.105,-15.41 -0.228,-8.627 5.001,-13.875 11.412,-18.365 1.411,-0.988 2.513,-2.128 2.821,-3.883 9.013,-0.06 18.026,-0.119 27.039,-0.179 3.916,0.617 7.76,1.407 11.187,3.604 C -0.43,-12.9 0.224,-6.636 0,0"
       style="fill:#fab033;fill-opacity:1;fill-rule:nonzero;stroke:none"
       transform="matrix(1.8301624,0,0,-1.6145068,400.85785,243.42597)"
       clip-path="url(#clipPath41)" />
    <path
       id="path42"
       d="m 0,0 c -4.293,4.18 -8.605,8.338 -13.836,11.378 2.61,4.532 6.971,4.22 11.02,3.43 14.147,-2.759 28.481,-5.102 40.524,-14.031 0.891,-0.661 2.111,-1.083 3.224,-1.212 9.636,-1.115 16.633,-7.249 24.543,-12.011 12.164,-7.325 15.033,-20.99 23.241,-30.914 2.126,-2.57 4.388,-5.514 4.429,-9.286 -0.554,-0.369 -1.167,-0.67 -1.651,-1.112 -11.644,-10.631 -24.458,-10.39 -37.936,-4.127 -2.02,0.939 -3.778,2.113 -4.425,4.411 0.369,4.771 1.335,9.48 1.092,14.322 -0.66,13.118 -12.791,30.066 -23.996,33.31 -0.636,1.354 -1.235,2.726 -1.912,4.059 C 19.934,6.857 5.396,7.917 0,0"
       style="fill:#d86436;fill-opacity:1;fill-rule:nonzero;stroke:none"
       transform="matrix(1.8301624,0,0,-1.6145068,385.95647,217.16198)"
       clip-path="url(#clipPath43)" />
    <path
       id="path44"
       d="m 0,0 c 0.647,-2.302 2.406,-3.476 4.425,-4.414 13.478,-6.263 26.292,-6.504 37.936,4.126 0.485,0.443 1.098,0.744 1.651,1.113 0.346,-0.194 0.692,-0.389 1.039,-0.59 0.205,-3.175 -0.618,-6.21 -1.181,-9.282 -0.941,-5.137 -10.259,-9.554 -10.824,-9.885 -5.677,-0.136 -11.354,-0.27 -17.031,-0.403 -2.23,0.376 -4.46,0.751 -6.691,1.127 -0.393,0.235 -12.088,4.28 -16.375,8.378 0.052,0.487 0.104,0.973 0.155,1.46 C -3.632,-6.375 -2.821,-2.359 0,0"
       style="fill:#c74f33;fill-opacity:1;fill-rule:nonzero;stroke:none"
       transform="matrix(1.8301624,0,0,-1.6145068,475.87693,303.49062)"
       clip-path="url(#clipPath45)" />
    <path
       id="path46"
       d="m 0,0 c 0.005,-3.013 0.434,-5.917 1.462,-8.801 1.657,-4.648 0.398,-6.197 -4.575,-5.62 -5.442,0.631 -10.851,1.545 -16.271,2.337 0.004,0.002 -0.157,-0.019 -0.157,-0.019 -0.615,0.21 -6.215,2.483 -6.543,2.639 -1.478,2.542 -4.184,3.646 -6.356,5.352 -7.192,5.65 -8.126,9.053 -4.485,17.407 4.718,-2.549 8.569,-6.645 14.036,-7.853 1.607,-0.401 3.215,-0.801 4.822,-1.201 0.365,-0.282 0.731,-0.563 1.097,-0.845 C -11.366,2.005 -5.792,0.459 0,0"
       style="fill:#ae3e30;fill-opacity:1;fill-rule:nonzero;stroke:none"
       transform="matrix(1.8301624,0,0,-1.6145068,216.01582,359.26585)"
       clip-path="url(#clipPath47)" />
    <path
       id="path48"
       d="m 0,0 c -0.279,0.934 -0.557,1.867 -0.836,2.8 -2.668,4.317 -5.739,8.209 -10.667,10.15 -2.375,-4.483 -6.805,-6.176 -11.112,-7.776 -8.05,-2.99 -16.44,-3.385 -24.919,-2.457 0.005,-3.016 0.434,-5.919 1.462,-8.803 1.656,-4.648 0.397,-6.198 -4.575,-5.621 -5.442,0.632 -10.85,1.545 -16.273,2.336 0,0 0.002,0.002 0.002,0.002 0.004,0.002 -0.158,-0.019 -0.158,-0.019 0,0 0.062,-0.087 0.067,-0.088 0.834,-0.48 13.328,-4.171 19.022,-4.361 16.271,-0.542 32.514,0.034 48.762,0.674 0.203,1.036 0.407,2.073 0.61,3.11 C 0.924,-6.702 0.462,-3.351 0,0"
       style="fill:#9d3a33;fill-opacity:1;fill-rule:nonzero;stroke:none"
       transform="matrix(1.8301624,0,0,-1.6145068,303.0115,363.64892)"
       clip-path="url(#clipPath49)" />
    <path
       id="path50"
       d="m 0,0 c -5.467,1.208 -9.319,5.304 -14.036,7.853 -0.898,0.939 -1.795,1.877 -2.692,2.815 C -8.792,10.59 -0.857,10.508 7,11.915 6.118,11.468 5.276,10.902 4.348,10.593 -4.189,7.752 -4.193,7.765 0,0"
       style="fill:#832d30;fill-opacity:1;fill-rule:nonzero;stroke:none"
       transform="matrix(1.8301624,0,0,-1.6145068,174.12578,350.48004)"
       clip-path="url(#clipPath51)" />
    <path
       id="path52"
       d="m 0,0 c -0.224,10.452 2.147,19.757 11.483,25.985 4.09,-6.319 10.614,-7.926 17.414,-9.196 13.251,-2.475 26.048,0.41 38.884,3.016 C 67.759,18.817 67.8,17.824 67.703,16.843 66.963,9.341 66.955,9.342 74.789,8.777 72.024,6.003 57.822,1.945 57.822,1.945 39.046,-1.595 0.386,-0.099 0,0"
       style="fill:#9d3a33;fill-opacity:1;fill-rule:nonzero;stroke:none"
       transform="matrix(1.8301624,0,0,-1.6145068,375.59997,385.87245)"
       clip-path="url(#clipPath53)" />
    <path
       id="path54"
       d="m 0,0 c -12.836,-2.606 -25.633,-5.49 -38.884,-3.015 -6.8,1.27 -13.324,2.876 -17.414,9.196 3.48,2.295 7.587,2.268 11.464,3.085 8.45,0.766 15.806,3.819 21.486,10.338 0.892,1.024 1.728,2.071 3.307,1.787 C -15.754,17.294 0.795,12.262 3.025,11.887 4.14,8.83 8.382,7.748 8.119,3.821 5.413,2.547 2.706,1.274 0,0"
       style="fill:#752a31;fill-opacity:1;fill-rule:nonzero;stroke:none"
       transform="matrix(1.8301624,0,0,-1.6145068,499.65019,353.89778)"
       clip-path="url(#clipPath55)" />
    <path
       id="path56"
       d="M 0,0 C 0.263,3.927 -3.979,5.009 -5.094,8.066 0.583,8.199 6.26,8.332 11.937,8.469 8.638,4.69 4.614,1.929 0,0"
       style="fill:#832d30;fill-opacity:1;fill-rule:nonzero;stroke:none"
       transform="matrix(1.8301624,0,0,-1.6145068,514.50967,347.72858)"
       clip-path="url(#clipPath57)" />
    <path
       id="path58"
       d="m 0,0 c -4.645,4.315 -10.385,6.275 -16.254,8.04 0.462,-3.351 0.924,-6.702 1.385,-10.053 1.466,-5.363 2.266,-10.709 -0.432,-15.959 -0.06,-1.032 -0.119,-2.064 -0.179,-3.096 1.136,-2.942 0.506,-5.894 0.107,-8.861 -0.402,-2.98 -0.734,-5.948 1.485,-8.531 3.198,-3.722 4.246,-8.157 4.167,-12.976 -0.089,-5.485 -2.375,-26.943 -2.071,-32.369 3.351,-1.419 4.797,-4.42 5.993,-7.506 1.245,-3.211 2.862,-4.768 6.234,-2.443 0.778,0.536 1.85,0.647 2.786,0.952 0.114,1.564 0.227,3.131 0.341,4.697 0.925,3.377 0.716,6.799 0.391,10.224 0.103,6.646 0.206,13.291 0.308,19.937 1.316,8.301 1.143,16.656 0.885,25.013 0.127,0.594 0.255,1.188 0.381,1.782 -1.444,4.282 -0.359,8.482 0.392,12.699 C 7.197,-11.263 5.466,-5.079 0,0"
       style="fill:#fcde68;fill-opacity:1;fill-rule:nonzero;stroke:none"
       transform="matrix(1.8301624,0,0,-1.6145068,332.75878,376.63004)"
       clip-path="url(#clipPath59)" />
    <path
       id="path60"
       d="m 0,0 c -2.658,-3.896 -7.029,-5.369 -10.855,-7.583 -2.109,-1.221 -2.983,0.138 -3.314,2.088 -0.575,3.393 -2.839,4.518 -6.015,4.698 -4.957,0.281 -9.917,0.615 -14.85,1.16 -2.978,0.33 -4.737,-0.297 -5.045,-3.656 -0.359,-3.923 -2.562,-4.81 -6.275,-3.685 -4.7,1.423 -8.684,4.024 -12.675,6.694 1.87,4.662 0.223,9.318 -0.022,13.976 15.885,2.48 31.838,3.76 47.922,2.704 2.704,-0.527 7.579,-0.632 10.283,-1.159 C -3.179,12.723 -4.638,9.704 -3.196,7.115 -1.925,4.833 -0.274,2.728 0,0"
       style="fill:#832d30;fill-opacity:1;fill-rule:nonzero;stroke:none"
       transform="matrix(1.8301624,0,0,-1.6145068,391.88145,323.62547)"
       clip-path="url(#clipPath61)" />
    <path
       id="path62"
       d="m 0,0 c -4.193,7.765 -4.189,7.752 4.348,10.593 0.928,0.309 1.77,0.875 2.652,1.322 0,0 0.45,0.045 0.452,0.046 1.158,0.353 2.314,0.705 3.471,1.057 4.778,2.304 9.707,4.38 13.179,8.669 0.304,-0.081 0.608,-0.162 0.911,-0.244 3.493,-4.324 6.788,-8.858 12.014,-11.346 C 42.157,7.054 48.012,6.908 53.664,5.985 55.448,5.694 57.281,5.698 58.92,4.794 56.545,0.311 52.115,-1.382 47.808,-2.982 39.758,-5.972 31.369,-6.367 22.889,-5.44 17.097,-4.983 11.523,-3.437 5.919,-2.046 5.554,-1.765 1.607,-0.4 0,0"
       style="fill:#752a31;fill-opacity:1;fill-rule:nonzero;stroke:none"
       transform="matrix(1.8301624,0,0,-1.6145068,174.12578,350.48004)"
       clip-path="url(#clipPath63)" />
    <path
       id="path64"
       d="m 0,0 c 0.245,-4.658 1.893,-9.314 0.022,-13.975 -1.057,-0.059 -15.181,0.502 -17.344,0.355 -5.939,0.753 -10.087,4.745 -14.6,8.077 6.025,4.261 29.733,5.445 30.724,5.489 C -0.799,-0.036 -0.399,-0.018 0,0"
       style="fill:#752a31;fill-opacity:1;fill-rule:nonzero;stroke:none"
       transform="matrix(1.8301624,0,0,-1.6145068,283.80816,301.52013)"
       clip-path="url(#clipPath65)" />
    <path
       id="path66"
       d="M 0,0 C 6.866,1.658 13.486,3.766 17.953,9.815 18.399,9.804 18.846,9.792 19.291,9.78 20.943,7.794 22.869,6.122 25.085,4.787 25.033,4.301 24.981,3.815 24.929,3.328 23.35,3.612 22.514,2.564 21.622,1.54 15.942,-4.979 8.586,-8.032 0.136,-8.797 c -0.748,2.998 -3.549,5.267 -3.082,8.696 0.638,0.008 1.275,0.016 1.914,0.023 C -0.688,-0.052 -0.344,-0.026 0,0"
       style="fill:#d06c44;fill-opacity:1;fill-rule:nonzero;stroke:none"
       transform="matrix(1.8301624,0,0,-1.6145068,417.3478,324.7343)"
       clip-path="url(#clipPath67)" />
    <path
       id="path68"
       d="M 0,0 C 4.513,-3.331 8.66,-7.324 14.601,-8.076 14.725,-8.355 10.085,-11.813 9.018,-14.684 3.792,-12.196 0.497,-7.662 -2.996,-3.336 -2.255,-1.992 -1.403,-0.748 0,0"
       style="fill:#bd6e4d;fill-opacity:1;fill-rule:nonzero;stroke:none"
       transform="matrix(1.8301624,0,0,-1.6145068,225.38645,310.4703)"
       clip-path="url(#clipPath69)" />
    <path
       id="path70"
       d="m 0,0 c -3.656,0.262 -7.312,0.525 -10.968,0.787 -2.658,-3.895 -7.029,-5.369 -10.855,-7.583 -2.11,-1.22 -2.984,0.138 -3.314,2.088 -0.575,3.393 -2.839,4.519 -6.016,4.699 -4.956,0.281 -9.916,0.615 -14.849,1.16 -2.979,0.329 -4.737,-0.298 -5.045,-3.657 -0.36,-3.922 -2.562,-4.809 -6.275,-3.685 -4.7,1.424 -8.684,4.025 -12.675,6.695 -1.058,-0.059 -15.181,0.502 -17.343,0.355 0.124,-0.279 -4.516,-3.736 -5.583,-6.608 5.131,-3.043 10.985,-3.189 16.637,-4.112 1.784,-0.291 3.617,-0.287 5.256,-1.191 4.928,-1.942 8,-5.834 10.667,-10.15 1.835,1.289 3.771,0.875 5.711,0.333 3.208,-0.895 6.48,-1.148 9.802,-1.186 7.391,-0.084 10.616,-2.607 12.873,-9.799 2.063,-6.574 1.963,-13.355 2.018,-20.125 1.097,2.41 2.545,4.225 5.618,3.579 2.219,-0.467 3.798,0.541 4.957,2.364 -0.032,0.717 -0.938,7.219 -0.481,8.269 -0.224,10.452 2.147,19.757 11.482,25.984 3.482,2.296 7.588,2.269 11.467,3.087 C 2.334,-5.699 -0.467,-3.429 0,0"
       style="fill:#c9804c;fill-opacity:1;fill-rule:nonzero;stroke:none"
       transform="matrix(1.8301624,0,0,-1.6145068,411.95521,324.89655)"
       clip-path="url(#clipPath71)" />
    <path
       id="path72"
       d="m 0,0 c -0.447,0.012 -0.894,0.024 -1.341,0.035 -5.5,2.067 -40.292,6.741 -42.996,7.268 1.897,4.62 -1.097,8.506 -1.906,12.72 3.917,0.617 7.761,1.407 11.187,3.604 6.322,4.055 6.977,10.318 6.751,16.956 -0.271,0.472 -1.092,2.687 -1.229,3.324 5.137,0.065 10.273,0.112 15.409,0.201 2.467,0.042 5.076,-0.314 6.865,2.041 C 0.304,39.122 3.883,30.097 5.286,20.166 6.324,12.822 4.884,5.903 0,0"
       style="fill:#cf5932;fill-opacity:1;fill-rule:nonzero;stroke:none"
       transform="matrix(1.8301624,0,0,-1.6145068,452.65821,308.94457)"
       clip-path="url(#clipPath73)" />
    <path
       id="path74"
       d="m 0,0 c 0.809,-4.214 3.803,-8.101 1.906,-12.72 -16.085,1.056 -32.037,-0.224 -47.923,-2.704 -0.399,-0.019 -0.798,-0.036 -1.197,-0.054 -0.929,0.2 -6.85,3.395 -8.976,4.654 -4.3,2.548 -8.58,5.135 -10.483,10.164 1.235,-0.071 2.47,-0.141 3.706,-0.211 6.395,-2.677 13.014,-2.385 19.652,-1.365 5.422,0.833 10.74,2.355 16.277,2.415 C -18.026,0.119 -9.013,0.06 0,0"
       style="fill:#ec7e32;fill-opacity:1;fill-rule:nonzero;stroke:none"
       transform="matrix(1.8301624,0,0,-1.6145068,368.02584,276.617)"
       clip-path="url(#clipPath75)" />
    <path
       id="path76"
       d="m 0,0 c -1.79,-2.355 -4.398,-1.998 -6.866,-2.041 -5.135,-0.089 -10.272,-0.136 -15.409,-0.2 -2.304,4.314 -4.607,8.628 -6.911,12.942 5.395,7.916 19.933,6.856 24.317,-1.784 C -4.192,7.584 -3.593,6.212 -2.958,4.859 -1.973,3.24 -0.986,1.62 0,0"
       style="fill:#cf6238;fill-opacity:1;fill-rule:nonzero;stroke:none"
       transform="matrix(1.8301624,0,0,-1.6145068,439.37199,234.43736)"
       clip-path="url(#clipPath77)" />
    <path
       id="path78"
       d="m 0,0 c -5.537,-0.06 -10.855,-1.582 -16.276,-2.415 -6.639,-1.019 -13.257,-1.312 -19.653,1.365 0.097,3.022 2.179,4.906 3.982,6.951 1.647,0.012 3.305,-0.126 4.942,0.047 5.132,0.543 8.178,1.007 9.366,6.193 0.68,2.971 0.844,7.811 3.407,10.105 -0.229,-8.625 5,-13.873 11.411,-18.363 C -1.41,2.895 -0.308,1.755 0,0"
       style="fill:#f9b33b;fill-opacity:1;fill-rule:nonzero;stroke:none"
       transform="matrix(1.8301624,0,0,-1.6145068,318.54097,276.32815)"
       clip-path="url(#clipPath79)" />
    <path
       id="path80"
       d="m 0,0 c -3.556,-0.172 -6.48,-2.399 -9.891,-3.041 2.348,6.693 4.695,13.386 7.043,20.08 2.606,2.468 4.092,6.578 8.783,5.986 C 3.838,15.381 0.648,8.018 0,0"
       style="fill:#f8a630;fill-opacity:1;fill-rule:nonzero;stroke:none"
       transform="matrix(1.8301624,0,0,-1.6145068,212.59305,292.70894)"
       clip-path="url(#clipPath81)" />
    <path
       id="path82"
       d="m 0,0 c -1.173,3.138 -0.977,6.41 -0.687,9.623 0.292,3.234 -1.063,4.521 -4.138,4.375 2.018,4.092 5.287,7.191 8.327,10.467 1.06,1.143 2.289,1.944 3.967,1.394 C 6.26,23.295 1.277,8.782 0.596,3.962 0.397,2.641 0.199,1.321 0,0"
       style="fill:#d86436;fill-opacity:1;fill-rule:nonzero;stroke:none"
       transform="matrix(1.8301624,0,0,-1.6145068,241.50668,265.20486)"
       clip-path="url(#clipPath83)" />
    <path
       id="path84"
       d="M 0,0 C 0.681,4.82 1.823,9.156 3.996,14.082 14.513,14.991 12.981,1.404 5.497,-2.485 3.664,-1.654 1.832,-0.827 0,0"
       style="fill:#fce474;fill-opacity:1;fill-rule:nonzero;stroke:none"
       transform="matrix(1.8301624,0,0,-1.6145068,242.59785,258.80802)"
       clip-path="url(#clipPath85)" />
    <path
       id="path86"
       d="M 0,0 C 1.832,-0.827 3.664,-1.654 5.497,-2.485 6.848,-3.31 8.198,-4.13 9.548,-4.951 7.745,-6.996 5.664,-8.88 5.566,-11.901 c -1.235,0.07 -2.47,0.14 -3.705,0.21 -1.719,2.29 -2.043,5.024 -2.457,7.729 C -0.397,-2.641 -0.199,-1.321 0,0"
       style="fill:#f3b044;fill-opacity:1;fill-rule:nonzero;stroke:none"
       transform="matrix(1.8301624,0,0,-1.6145068,242.59785,258.80802)"
       clip-path="url(#clipPath87)" />
    <path
       id="path88"
       d="m 0,0 c -0.986,1.62 -1.973,3.24 -2.958,4.859 11.206,-3.245 23.337,-20.193 23.996,-33.31 0.244,-4.843 -0.723,-9.552 -1.091,-14.322 -2.821,-2.357 -3.633,-6.373 -6.896,-8.367 -2.216,1.334 -4.142,3.006 -5.794,4.992 4.887,5.902 6.326,12.822 5.289,20.165 C 11.143,-16.052 7.563,-7.026 0,0"
       style="fill:#ec7e32;fill-opacity:1;fill-rule:nonzero;stroke:none"
       transform="matrix(1.8301624,0,0,-1.6145068,439.37199,234.43736)"
       clip-path="url(#clipPath89)" />
    <path
       id="path90"
       d="m 0,0 c 1.585,18.671 1.982,26.883 2.072,32.368 0.079,4.819 -0.969,9.254 -4.167,12.976 -2.219,2.582 -1.887,5.551 -1.486,8.531 0.303,2.249 1.161,9.637 1.064,14.365 1.439,4.473 0.683,9.005 -0.559,13.551 -0.203,-1.037 -0.407,-2.073 -0.61,-3.11 0.045,-3.261 0.09,-6.521 0.135,-9.782 C -4.674,62.556 -5.495,51.51 -5.908,46.997 -7.603,28.44 -27.017,-36.425 -26.94,-37.39 c 0.29,-0.142 0.595,-0.228 0.915,-0.254 0.543,-3.666 12.744,-11.464 15.05,-12.483 0.879,0.471 1.754,0.949 2.638,1.409 3.543,1.846 6.771,4.383 6.807,8.53 0.034,3.909 -3.427,5.815 -6.69,7.267 -2.078,0.925 -3.749,2.11 -2.228,4.473 C -4.835,-19.729 -3.088,-9.625 0,0"
       style="fill:#fde97c;fill-opacity:1;fill-rule:nonzero;stroke:none"
       transform="matrix(1.8301624,0,0,-1.6145068,311.17604,511.93201)"
       clip-path="url(#clipPath91)" />
    <path
       id="path92"
       d="m 0,0 c -0.657,0.069 -0.892,-5.533 0.55,-8.122 1.271,-2.282 2.922,-4.387 3.196,-7.115 3.656,-0.262 7.312,-0.525 10.969,-0.787 0.637,0.008 1.275,0.015 1.913,0.023 0.344,0.026 0.688,0.052 1.033,0.078 6.866,1.658 13.486,3.766 17.953,9.814 C 30.113,-4.041 1.004,-0.118 0,0"
       style="fill:#752a31;fill-opacity:1;fill-rule:nonzero;stroke:none"
       transform="matrix(1.8301624,0,0,-1.6145068,385.02584,299.02587)"
       clip-path="url(#clipPath93)" />
    <path
       id="path94"
       d="m 0,0 c -4.3,2.548 -8.58,5.135 -10.482,10.164 -1.72,2.289 -2.043,5.023 -2.458,7.728 -1.173,3.139 -0.976,6.411 -0.687,9.624 0.292,3.233 -1.062,4.52 -4.138,4.375 -0.375,-0.584 -4.703,-7.322 -5.016,-7.972 0,0 -0.022,-0.038 -0.022,-0.038 -2.097,-7.644 -5.287,-15.006 -5.935,-23.024 0.464,-4.822 1.84,-9.445 3.084,-14.096 0.304,-0.081 0.607,-0.162 0.91,-0.241 0.741,1.344 1.593,2.587 2.996,3.336 6.51,3.476 29.739,5.37 30.725,5.49 C 8.047,-4.455 2.126,-1.26 0,0"
       style="fill:#cf5932;fill-opacity:1;fill-rule:nonzero;stroke:none"
       transform="matrix(1.8301624,0,0,-1.6145068,265.18845,294.09193)"
       clip-path="url(#clipPath95)" />
  </g>
</svg>
