<?xml version="1.0" encoding="UTF-8" standalone="no"?>
<svg
   id="svg1"
   viewBox="0 0 780.00001 460.00001"
   version="1.1"
   sodipodi:docname="talleres-montreal-logo-simple.svg"
   width="780"
   height="460"
   inkscape:version="1.4 (86a8ad7, 2024-10-11)"
   xmlns:inkscape="http://www.inkscape.org/namespaces/inkscape"
   xmlns:sodipodi="http://sodipodi.sourceforge.net/DTD/sodipodi-0.dtd"
   xmlns="http://www.w3.org/2000/svg"
   xmlns:svg="http://www.w3.org/2000/svg">
  <sodipodi:namedview
     id="namedview12"
     pagecolor="#ffffff"
     bordercolor="#999999"
     borderopacity="1"
     inkscape:showpageshadow="2"
     inkscape:pageopacity="0"
     inkscape:pagecheckerboard="0"
     inkscape:deskcolor="#d1d1d1"
     inkscape:zoom="0.76554158"
     inkscape:cx="436.94557"
     inkscape:cy="400.37016"
     inkscape:window-width="1920"
     inkscape:window-height="1017"
     inkscape:window-x="-8"
     inkscape:window-y="-8"
     inkscape:window-maximized="1"
     inkscape:current-layer="svg1" />
  <defs
     id="defs3">
    <style
       id="style1">
      .cls-1 {
        fill: #071859;
      }

      .cls-2 {
        fill: url(#Degradado_sin_nombre_16);
      }

      .cls-3 {
        fill: #09041b;
      }

      .cls-4 {
        fill: #fff;
      }

      .cls-5 {
        fill: #0033a5;
      }
    </style>
    <linearGradient
       id="Degradado_sin_nombre_16"
       data-name="Degradado sin nombre 16"
       x1="458.16"
       y1="6.1900001"
       x2="746.98999"
       y2="681.16998"
       gradientUnits="userSpaceOnUse"
       gradientTransform="translate(-138.03,-146.15)">
      <stop
         offset=".41"
         stop-color="#071859"
         id="stop1" />
      <stop
         offset=".49"
         stop-color="#080c33"
         id="stop2" />
      <stop
         offset=".55"
         stop-color="#09041b"
         id="stop3" />
    </linearGradient>
  </defs>
  <path
     class="cls-3"
     d="M 641.92,84.45 C 629.41,71.94 612.78,65.05 595.09,65.05 H 71.24 c -17.69,0 -34.32,6.89 -46.83,19.4 C 11.9,96.96 5.01,113.59 5.01,131.28 V 269.54 H 148.04 V 208.08 H 261.65 V 455.49 H 404.68 V 208.08 h 113.61 v 61.46 H 661.32 V 131.28 c 0,-17.69 -6.89,-34.32 -19.4,-46.83 z"
     id="path3" />
  <path
     class="cls-5"
     d="M 5,304.34 V 455.49 H 148.03 V 304.34 Z M 131.66,439.12 H 21.38 V 320.73 h 110.28 z"
     id="path4" />
  <rect
     class="cls-4"
     x="21.380003"
     y="320.72"
     width="110.28"
     height="118.39"
     id="rect4" />
  <path
     class="cls-5"
     d="M 518.29,304.34 V 455.49 H 661.32 V 304.34 Z M 644.94,439.12 H 534.66 V 320.73 h 110.28 z"
     id="path5" />
  <rect
     class="cls-4"
     x="534.65997"
     y="320.72"
     width="110.28"
     height="118.39"
     id="rect5" />
  <g
     id="g7"
     transform="translate(-138.03,-146.15)">
    <path
       class="cls-5"
       d="M 779.95,230.6 C 767.44,218.09 750.81,211.2 733.12,211.2 H 209.27 c -17.69,0 -34.32,6.89 -46.83,19.4 -12.51,12.51 -19.4,29.14 -19.4,46.83 V 415.69 H 286.07 V 354.23 H 399.68 V 601.64 H 542.71 V 354.23 h 113.61 v 61.46 H 799.35 V 277.43 c 0,-17.69 -6.89,-34.32 -19.4,-46.83 z m 3.02,107.25 v 61.46 H 672.69 V 337.85 H 526.32 V 585.26 H 416.04 V 337.85 H 269.67 v 61.46 H 159.39 V 277.43 c 0,-27.53 22.32,-49.86 49.86,-49.86 H 733.1 c 27.53,0 49.86,22.32 49.86,49.86 v 60.42 z"
       id="path6" />
    <path
       class="cls-4"
       d="M 733.12,227.58 H 209.27 c -27.53,0 -49.86,22.32 -49.86,49.86 V 399.32 H 269.69 V 337.86 H 416.06 V 585.27 H 526.34 V 337.86 h 146.37 v 61.46 H 782.99 V 277.44 c 0,-27.53 -22.32,-49.86 -49.86,-49.86 z"
       id="path7" />
  </g>
  <polygon
     class="cls-3"
     points="286.06,601.64 286.06,450.49 399.67,390.44 399.67,541.59 "
     id="polygon7"
     transform="translate(-138.03,-146.15)" />
  <polygon
     class="cls-3"
     points="799.35,601.64 799.35,450.49 912.96,390.44 912.96,541.59 "
     id="polygon8"
     transform="translate(-138.03,-146.15)" />
  <path
     class="cls-2"
     d="M 755.53,24.4 C 743.02,11.89 726.39,5 708.7,5 H 184.84 c -10.99,0 -21.58,2.66 -31.02,7.68 v 0 c 0,0 -113.07,59.76 -113.07,59.76 v 0 c 9.3,-4.83 19.69,-7.39 30.48,-7.39 h 523.85 c 17.69,0 34.32,6.89 46.83,19.4 12.51,12.51 19.4,29.14 19.4,46.83 V 269.54 L 774.92,209.49 V 71.23 c 0,-17.69 -6.89,-34.32 -19.4,-46.83 z"
     id="path8"
     style="fill:url(#Degradado_sin_nombre_16)" />
  <polygon
     class="cls-3"
     points="542.71,601.64 656.31,541.59 656.32,354.23 542.71,354.23 "
     id="polygon9"
     transform="translate(-138.03,-146.15)" />
  <polygon
     class="cls-3"
     points="286.06,415.69 286.06,354.23 399.67,354.23 "
     id="polygon10"
     transform="translate(-138.03,-146.15)" />
  <polygon
     class="cls-1"
     points="143.03,450.49 286.06,450.49 399.67,390.44 332.73,390.44 286.06,415.69 208.88,415.69 "
     id="polygon11"
     transform="translate(-138.03,-146.15)" />
  <polygon
     class="cls-1"
     points="656.32,450.49 799.35,450.49 912.96,390.44 846.02,390.44 799.35,415.69 722.16,415.69 "
     id="polygon12"
     transform="translate(-138.03,-146.15)" />
</svg>
