<svg width="271" height="70" viewBox="0 0 271 70" fill="none" xmlns="http://www.w3.org/2000/svg">
<g clip-path="url(#clip0_551_6060)">
<path d="M139.306 24.348V35.6784H136.372V24.348H130.589V21.8801H145.112V24.348H139.306Z" fill="white"/>
<path d="M143.293 35.6783L150.423 21.8816H153.25L160.476 35.6783H157.186L155.671 32.6625H147.682L146.216 35.6783H143.295H143.293ZM148.932 30.1698H154.453L151.733 24.5574L148.932 30.1698Z" fill="white"/>
<path d="M163.187 35.6783V21.8816H166.12V33.0816H175.576V35.6798H163.187V35.6783Z" fill="white"/>
<path d="M178.524 35.6783V21.8816H181.458V33.0816H190.913V35.6798H178.524V35.6783Z" fill="white"/>
<path d="M193.864 35.6783V21.8816H206.765V24.2315H196.796V27.3124H202.615V29.6623H196.796V33.0816H206.883V35.6798H193.862L193.864 35.6783Z" fill="white"/>
<path d="M210.956 35.6783V21.8816H221.736C222.737 21.8816 223.463 22.0927 223.912 22.5148C224.36 22.937 224.585 23.6184 224.585 24.5574V27.7951C224.585 28.7264 224.36 29.4047 223.912 29.8315C223.463 30.2583 222.737 30.4709 221.736 30.4709H220.09L225.909 35.6798H221.7L216.62 30.4709H213.841V35.6798H210.956V35.6783ZM220.435 24.2703H213.841V28.1086H220.435C220.944 28.1086 221.292 28.0279 221.478 27.8665C221.664 27.7051 221.759 27.4211 221.759 27.0113V25.3537C221.759 24.9532 221.666 24.6723 221.478 24.5124C221.292 24.351 220.942 24.2703 220.435 24.2703Z" fill="white"/>
<path d="M229.192 35.6783V21.8816H242.093V24.2315H232.124V27.3124H237.943V29.6623H232.124V33.0816H242.211V35.6798H229.19L229.192 35.6783Z" fill="white"/>
<path d="M257.206 24.295H248.955V27.258H256.814C258.046 27.258 258.878 27.4893 259.311 27.9503C259.744 28.4112 259.961 29.268 259.961 30.5221V32.4141C259.961 33.6667 259.744 34.525 259.311 34.986C258.878 35.4469 258.044 35.6782 256.814 35.6782H249.027C247.794 35.6782 246.962 35.4485 246.529 34.986C246.096 34.525 245.879 33.6682 245.879 32.4141V32.0354H248.466V33.08H257.374V29.9338H249.516C248.291 29.9338 247.465 29.7041 247.035 29.2416C246.605 28.7806 246.391 27.9239 246.391 26.6698V25.1425C246.391 23.8899 246.605 23.0316 247.035 22.5707C247.465 22.1097 248.291 21.8784 249.516 21.8784H256.671C257.855 21.8784 258.671 22.1004 259.122 22.5443C259.57 22.9882 259.795 23.7751 259.795 24.9066V25.1937H257.208V24.2935L257.206 24.295Z" fill="white"/>
<path d="M130.589 60.6236V46.8269H132.962L138.9 55.1679L144.707 46.8269H147.055V60.6236H144.336V52.0994C144.336 51.9349 144.345 51.7254 144.365 51.4724C144.386 51.2194 144.41 50.9369 144.443 50.6234C144.283 50.9803 144.145 51.2737 144.026 51.505C143.906 51.7362 143.799 51.9256 143.704 52.073L138.97 58.9659H138.387L133.64 52.0482C133.465 51.7874 133.316 51.5406 133.193 51.3109C133.071 51.0797 132.968 50.8562 132.889 50.6389C132.912 50.926 132.931 51.1868 132.943 51.4227C132.956 51.6571 132.962 51.8837 132.962 52.101V60.6251H130.589V60.6236Z" fill="white"/>
<path d="M151.615 50.091C151.615 48.8384 151.829 47.9801 152.259 47.5191C152.689 47.0582 153.515 46.8269 154.74 46.8269H164.017C165.241 46.8269 166.067 47.0582 166.497 47.5191C166.927 47.9801 167.141 48.8369 167.141 50.091V57.361C167.141 58.6229 166.927 59.4828 166.497 59.9391C166.067 60.3954 165.241 60.6251 164.017 60.6251H154.74C153.515 60.6251 152.689 60.397 152.259 59.9391C151.829 59.4828 151.615 58.6229 151.615 57.361V50.091ZM154.549 58.0269H164.22V49.2948H154.549V58.0269Z" fill="white"/>
<path d="M171.949 60.6237V46.827H173.953L182.825 54.9585C183.128 55.2285 183.393 55.4831 183.624 55.7221C183.856 55.9611 184.065 56.2079 184.256 56.4594C184.208 55.6849 184.177 55.137 184.161 54.8141C184.146 54.4928 184.138 54.2445 184.138 54.0707V46.8254H186.774V60.6221H184.77L175.516 52.0979C175.294 51.8807 175.098 51.6851 174.932 51.5112C174.765 51.3374 174.611 51.1589 174.467 50.9758C174.507 51.4026 174.537 51.8046 174.557 52.1833C174.577 52.562 174.586 52.8911 174.586 53.1689V60.6221H171.951L171.949 60.6237Z" fill="white"/>
<path d="M197.723 49.2948V60.6251H194.789V49.2948H189.006V46.8269H203.529V49.2948H197.723Z" fill="white"/>
<path d="M205.776 60.6236V46.8269H216.556C217.557 46.8269 218.283 47.038 218.732 47.4602C219.18 47.8823 219.406 48.5637 219.406 49.5027V52.7404C219.406 53.6717 219.18 54.35 218.732 54.7768C218.283 55.2036 217.557 55.4163 216.556 55.4163H214.911L220.729 60.6251H216.52L211.44 55.4163H208.662V60.6251H205.776V60.6236ZM215.255 49.2156H208.662V53.054H215.255C215.764 53.054 216.112 52.9732 216.298 52.8118C216.484 52.6504 216.579 52.3664 216.579 51.9566V50.299C216.579 49.8985 216.486 49.6176 216.298 49.4577C216.112 49.2963 215.763 49.2156 215.255 49.2156Z" fill="white"/>
<path d="M224.012 60.6236V46.8269H236.914V49.1768H226.944V52.2577H232.763V54.6076H226.944V58.0269H237.031V60.6251H224.011L224.012 60.6236Z" fill="white"/>
<path d="M238.695 60.6236L245.826 46.8269H248.652L255.879 60.6236H252.588L251.073 57.6078H243.085L241.618 60.6236H238.697H238.695ZM244.336 55.1152H249.857L247.137 49.5027L244.336 55.1152Z" fill="white"/>
<path d="M258.589 60.6236V46.8269H261.522V58.0269H270.978V60.6251H258.589V60.6236Z" fill="white"/>
<path d="M98.8619 12.3548C96.9202 10.4132 94.339 9.34375 91.5933 9.34375H10.2855C7.53985 9.34375 4.95867 10.4132 3.01697 12.3548C1.07527 14.2965 0.00585938 16.8777 0.00585938 19.6234V41.0828H22.2058V31.5435H39.8395V69.9442H62.0394V31.5435H79.673V41.0828H101.873V19.6234C101.873 16.8777 100.804 14.2965 98.8619 12.3548Z" fill="#97B2F1"/>
<path d="M0.00488281 46.4841V69.9442H22.2048V46.4841H0.00488281ZM19.664 67.4034H2.54725V49.028H19.664V67.4034Z" fill="#0033A5"/>
<path d="M19.6636 49.0264H2.54688V67.4018H19.6636V49.0264Z" fill="white"/>
<path d="M79.6738 46.4841V69.9442H101.874V46.4841H79.6738ZM99.3314 67.4034H82.2146V49.028H99.3314V67.4034Z" fill="#0033A5"/>
<path d="M99.3306 49.0264H82.2139V67.4018H99.3306V49.0264Z" fill="white"/>
<path d="M98.8619 12.3548C96.9202 10.4132 94.339 9.34375 91.5933 9.34375H10.2855C7.53985 9.34375 4.95867 10.4132 3.01697 12.3548C1.07527 14.2965 0.00585938 16.8777 0.00585938 19.6234V41.0828H22.2058V31.5435H39.8395V69.9442H62.0394V31.5435H79.673V41.0828H101.873V19.6234C101.873 16.8777 100.804 14.2965 98.8619 12.3548ZM99.3306 29.0012V38.5404H82.2139V29.0012H59.4955V67.4018H42.3787V29.0012H19.6603V38.5404H2.54358V19.6234C2.54358 15.3504 6.00791 11.8845 10.2824 11.8845H91.5902C95.8632 11.8845 99.3291 15.3488 99.3291 19.6234V29.0012H99.3306Z" fill="#0033A5"/>
<path d="M91.5935 11.886H10.2857C6.01276 11.886 2.54688 15.3503 2.54688 19.6248V38.5419H19.6636V29.0026H42.382V67.4033H59.4988V29.0026H82.2172V38.5419H99.3339V19.6248C99.3339 15.3518 95.8696 11.886 91.595 11.886H91.5935Z" fill="white"/>
<path d="M22.2041 69.9441V46.484L39.8377 37.1636V60.6237L22.2041 69.9441Z" fill="#6695FF"/>
<path d="M101.873 69.9441V46.484L119.507 37.1636V60.6237L101.873 69.9441Z" fill="#6695FF"/>
<path d="M116.496 3.03428C114.554 1.0926 111.973 0.0231934 109.228 0.0231934H27.9182C26.2124 0.0231934 24.5687 0.436055 23.1035 1.21521L5.55371 10.4906C6.99718 9.74093 8.60983 9.34359 10.2846 9.34359H91.5923C94.338 9.34359 96.9192 10.413 98.8609 12.3547C100.803 14.2964 101.872 16.8775 101.872 19.6232V41.0826L119.506 31.7622V10.3028C119.506 7.55712 118.436 4.97597 116.495 3.03428H116.496Z" fill="url(#paint0_linear_551_6060)"/>
<path d="M62.04 69.9441L79.6721 60.6237L79.6737 31.5435H62.04V69.9441Z" fill="#6695FF"/>
<path d="M22.2041 31.5435H39.8377L22.2041 41.0827V31.5435Z" fill="#6695FF"/>
<path d="M22.2048 41.0826H10.2256L0.00488281 46.484H22.2048L39.8385 37.1636H29.4486L22.2048 41.0826Z" fill="#C2D5FF"/>
<path d="M101.874 41.0826H89.893L79.6738 46.484H101.874L119.507 37.1636H109.118L101.874 41.0826Z" fill="#C2D5FF"/>
</g>
<defs>
<linearGradient id="paint0_linear_551_6060" x1="48.9168" y1="-22.4761" x2="93.7461" y2="82.2882" gradientUnits="userSpaceOnUse">
<stop offset="0.41" stop-color="#C2D5FF"/>
<stop offset="0.55" stop-color="#6695FF"/>
</linearGradient>
<clipPath id="clip0_551_6060">
<rect width="271" height="70" fill="white"/>
</clipPath>
</defs>
</svg>
