<?xml version="1.0" encoding="UTF-8" standalone="no"?>
<!-- Created with Inkscape (http://www.inkscape.org/) -->

<svg
   width="2300mm"
   height="650mm"
   viewBox="0 0 2300 650"
   version="1.1"
   id="svg1"
   inkscape:version="1.4 (86a8ad7, 2024-10-11)"
   sodipodi:docname="talleres-montreal.svg"
   xml:space="preserve"
   inkscape:export-filename="talleres-montreal54.png"
   inkscape:export-xdpi="96"
   inkscape:export-ydpi="96"
   xmlns:inkscape="http://www.inkscape.org/namespaces/inkscape"
   xmlns:sodipodi="http://sodipodi.sourceforge.net/DTD/sodipodi-0.dtd"
   xmlns="http://www.w3.org/2000/svg"
   xmlns:svg="http://www.w3.org/2000/svg"><sodipodi:namedview
     id="namedview1"
     pagecolor="#ffffff"
     bordercolor="#000000"
     borderopacity="0.25"
     inkscape:showpageshadow="2"
     inkscape:pageopacity="0.0"
     inkscape:pagecheckerboard="0"
     inkscape:deskcolor="#d1d1d1"
     inkscape:document-units="mm"
     inkscape:zoom="0.125"
     inkscape:cx="3680"
     inkscape:cy="1668"
     inkscape:window-width="1920"
     inkscape:window-height="1017"
     inkscape:window-x="-8"
     inkscape:window-y="-8"
     inkscape:window-maximized="1"
     inkscape:current-layer="layer1"
     showguides="false"><sodipodi:guide
       position="-40.530332,730.90594"
       orientation="0,-1"
       id="guide23"
       inkscape:locked="false" /></sodipodi:namedview><defs
     id="defs1" /><g
     inkscape:label="Capa 1"
     inkscape:groupmode="layer"
     id="layer1"
     transform="translate(-59.987553,-88.90341)"><g
       id="text1"
       style="display:none" /><g
       id="g26"
       style="display:inline"
       transform="matrix(16.882159,0,0,16.852618,-936.66534,-1375.6648)"><path
         id="path84"
         style="color:#000000;-inkscape-font-specification:'Bauhaus 93, ';display:inline;fill:#1d406f;fill-opacity:1;stroke-width:1.06124;-inkscape-stroke:none"
         d="m 92.589689,88.684851 c -6.076535,-0.0019 -12.230953,0.0085 -16.095291,0.03674 -1.908739,0.05634 -1.951648,0.01261 -2.830328,0.148075 -0.601446,0.03978 -1.403437,0.263905 -2.253624,0.836385 -0.363009,0.209232 -0.726704,0.418883 -1.104305,0.636795 -2.437711,1.406783 -4.148446,2.497241 -6.408325,3.808043 0.194453,0.331564 0.340159,0.603194 0.492077,0.956535 0.03444,0.08343 0.07012,0.166027 0.105319,0.248999 2.043847,-1.204983 4.292745,-2.521269 6.520327,-3.824004 0.03554,-0.01784 0.07091,-0.04014 0.106203,-0.06229 0.501154,-0.293045 0.963787,-0.566676 1.466313,-0.859945 0.40397,-0.16323 0.805021,-0.292425 1.076015,-0.337136 0.663475,-0.109465 40.29162,-0.490459 41.71202,0 1.42036,0.490463 1.63459,0.551875 2.37899,1.564613 0.36757,0.50008 0.41383,0.94942 0.53636,2.70859 0.0205,0.729246 0.0105,5.813369 0.001,9.486499 l -5.9016,3.40823 -0.9352,-9e-5 -1.36838,1.14767 -1.861,0.32963 c 0.26699,-0.15363 1.11684,-0.64365 1.20001,-0.69121 l -2.53833,0.049 -6.12237,3.53563 1.58622,0.61846 0.84697,-0.61598 c 2.05623,-1.18515 3.89843,-2.24622 5.01962,-2.89134 l 3.96363,-2.4e-4 0.002,0.0845 0.14631,-0.0845 4.84161,-3.1e-4 -5.00314,2.88957 0.001,1.61945 6.15811,-3.5559 v 7.57409 l -1.5e-4,0.52931 -0.0437,0.0439 -1.36389,0.83077 -5.27954,3.04914 0.51551,1.32276 7.57025,-4.3719 h 0.004 v -11.41186 h -1.40284 l -3.43221,-3.1e-4 4.85552,-2.80405 -0.004,-0.0139 5.2e-4,9e-5 -0.002,-1.23492 c 0,0 -0.02,-7.991492 0,-8.861243 -0.14513,-2.015717 -0.17174,-2.541834 -0.87252,-3.529014 -0.9253,-1.303427 -1.80671,-1.791278 -3.49831,-2.128377 -0.40709,-0.08112 -3.51501,-0.1269 -7.15896,-0.148075 -3.55173,-0.02064 -9.549813,-0.03484 -15.626346,-0.03674 z m -14.544717,15.495129 -5.44889,3.14678 0.0028,0.10806 -0.563582,2.5e-4 -2.134145,0.78963 -2.380915,0.043 -6.127984,3.5389 1.586219,0.61845 0.846944,-0.61601 c 2.055564,-1.18477 3.896313,-2.24496 5.018033,-2.89039 l 3.793486,-0.003 0.0025,0.0969 0.167942,-0.097 4.835411,-0.003 -5.00314,2.88957 0.0011,1.61945 6.158105,-3.55587 v 7.57406 l -1.53e-4,0.52931 -0.04373,0.0439 -1.363893,0.83077 -5.279544,3.04914 0.515515,1.32276 7.570248,-4.3719 h 0.0044 v -11.41189 h -1.402835 l -3.425191,0.002 4.576066,-2.64334 0.819691,-0.47206 -2.652009,-0.11499 z m 20.442867,0.27168 5.19e-4,13.59041 -6.209406,3.58599 0.05066,1.59171 7.394066,-4.27009 0.16727,-0.104 -9.1e-5,-4.9e-4 0.002,5.8e-4 v -14.39356 z" /><path
         id="path23"
         style="color:#000000;-inkscape-font-specification:'Bauhaus 93, ';display:inline;fill:#1d406f;fill-opacity:1;stroke-width:1.06124;-inkscape-stroke:none"
         d="m 67.517171,109.25175 0.279689,0.13573 8.970888,-0.006 -5.003143,2.88957 0.0011,1.61946 6.158093,-3.55589 v 7.57408 l -1.43e-4,0.52931 -0.04373,0.0439 -1.363895,0.83077 -5.279542,3.04915 0.515506,1.32276 7.570249,-4.37191 h 0.0044 v -11.41187 h -1.402832 l -6.76356,0.003 z m 41.695299,-0.19444 -1.88659,0.33417 8.97089,-5.5e-4 -5.00314,2.88957 0.001,1.61946 6.15809,-3.55589 v 7.57409 l -1.4e-4,0.5293 -0.0437,0.0439 -1.36389,0.83075 -5.27954,3.04916 0.51551,1.32276 7.57024,-4.37192 h 0.004 v -11.41186 h -1.40283 l -6.87152,-5.9e-4 z"
         sodipodi:nodetypes="cccccccccccccccccccccccccccccccccccc" /><path
         id="path24"
         style="color:#000000;-inkscape-font-specification:'Bauhaus 93, ';display:inline;fill:#1d406f;fill-opacity:1;stroke-width:1.06124;-inkscape-stroke:none"
         d="m 91.714659,89.153628 c -6.076541,-0.0019 -12.230938,0.0085 -16.09528,0.03674 -1.908741,0.05634 -1.951663,0.01261 -2.830344,0.14807 -0.827466,0.05473 -2.033136,0.449632 -3.224102,1.635907 -0.357018,0.355614 -0.625695,0.830876 -0.837969,1.354572 0.607495,-0.222243 1.134829,-0.06706 1.64249,-0.471642 0.494963,-0.507088 1.794453,-1.012325 2.419584,-1.115465 0.663476,-0.109465 40.291652,-0.49046 41.712052,0 1.42036,0.490463 1.6346,0.551874 2.379,1.564613 0.36757,0.500081 0.41382,0.949424 0.53635,2.708596 0.0211,0.751816 0.01,6.158861 5.5e-4,9.848301 l 1.45556,0.22876 -0.002,-1.23494 c 0,0 -0.02,-7.99146 0,-8.861212 -0.14513,-2.015719 -0.17174,-2.541837 -0.87252,-3.529018 -0.9253,-1.303428 -1.8067,-1.791279 -3.49831,-2.128378 -0.40709,-0.08112 -3.515,-0.126895 -7.15895,-0.14807 -3.55174,-0.02064 -9.549844,-0.03484 -15.626383,-0.03674 z m 5.898147,15.766782 5.49e-4,13.99707 1.404477,0.39704 v -14.39356 z"
         sodipodi:nodetypes="cccsccssscccccsssccccccc" /><path
         id="path25"
         style="color:#000000;-inkscape-font-specification:'Bauhaus 93, ';display:inline;fill:#1d406f;fill-opacity:1;stroke-width:1.06124;-inkscape-stroke:none"
         d="m 70.859672,89.987868 c -0.464394,0.267575 -0.940077,0.541859 -1.42855,0.823754 -2.437713,1.406785 -4.148447,2.497242 -6.408328,3.808045 0.194453,0.331564 0.340163,0.603199 0.492082,0.95654 0.03444,0.08343 0.0701,0.166006 0.105296,0.248978 2.629807,-1.550445 5.514798,-3.243231 8.389682,-4.920294 z m 47.530078,13.252302 c 0.13523,0.23557 0.16794,0.28909 0.30327,0.52483 l -7.41176,4.28034 0.0276,1.43038 7.56682,-4.36982 z m -51.74455,5.49625 -6.128,3.53889 1.586211,0.61846 0.846963,-0.616 c 2.55102,-1.47034 5.79594,-3.34024 6.227523,-3.58707 z m 10.52473,-4.0877 -5.448881,3.14678 0.04334,1.68622 7.310303,-4.22273 0.819687,-0.47206 -2.652014,-0.115 z m 21.543187,13.22697 -7.309207,4.22112 0.05067,1.59171 7.394071,-4.27009 0.167283,-0.104 z m 7.300053,-9.13096 -6.122377,3.53563 1.586217,0.61846 0.84696,-0.616 c 2.55103,-1.47034 5.79594,-3.34024 6.22752,-3.58707 z"
         sodipodi:nodetypes="cscccccccccccccccccccccccccccccccccccc" /><path
         id="path26"
         style="color:#000000;-inkscape-font-specification:'Bauhaus 93, ';display:inline;fill:#245da5;fill-opacity:1;stroke-width:1.06124;-inkscape-stroke:none"
         d="m 84.153184,93.644008 c -6.076552,-0.0019 -12.23093,0.0085 -16.095281,0.03674 -1.908743,0.05634 -1.95166,0.01261 -2.830343,0.14807 -0.827468,0.05473 -2.033133,0.44963 -3.224101,1.635907 -1.190968,1.186277 -1.486739,3.629668 -1.486739,5.182475 v 8.58093 c 0.163658,-0.006 0.327393,-0.0115 0.490827,-0.017 0.232681,-0.01 0.465358,-0.0142 0.698125,-0.0159 0.07155,-5.2e-4 0.142904,-10e-5 0.214429,0 v -8.54803 c -4e-6,-1.383921 0.159203,-3.209606 1.072141,-4.182176 -0.04986,0.05871 -0.393116,0.462566 0.02084,-0.02632 -0.0076,0.008 -0.01327,0.01825 -0.02084,0.02632 0.0035,-0.0041 0.02252,-0.02635 0.02249,-0.02632 -6.9e-5,6.6e-5 0.06575,-0.06861 0.09158,-0.09543 0.494965,-0.50709 1.496115,-1.007939 2.121249,-1.111079 0.663477,-0.109465 40.291659,-0.49046 41.712059,0 1.42036,0.490465 1.63469,0.551794 2.37909,1.564536 0.36757,0.50008 0.41396,0.949499 0.53649,2.708675 0.0214,0.762734 0.01,5.135834 0,8.876524 -0.002,0.73389 -0.005,0.1346 -0.01,1.01922 0.10443,0.0153 0.20913,0.0303 0.31369,0.0445 0.37947,0.0501 0.7716,-0.003 1.15294,0.0297 0.002,-0.83471 -0.006,0.19068 -0.002,-0.59866 0.0189,-3.95414 -0.02,-8.52063 0,-9.390387 -0.14512,-2.015723 -0.17199,-2.541832 -0.87279,-3.529014 -0.92531,-1.303431 -1.80642,-1.791281 -3.49803,-2.12838 -0.40709,-0.08112 -3.515,-0.126895 -7.158947,-0.14807 -3.551737,-0.02064 -9.550392,-0.03484 -15.626943,-0.03674 z m -13.790862,9.897702 v 4.71334 h -9.845128 v 1.21603 c 0,0 9.975689,0.007 10.809778,0.0109 0.146128,7.5e-4 0.29215,5.6e-4 0.43818,8.9e-4 v -1.22772 -3.31071 h 8.415897 c 0,0 0.02745,1.16062 0.02742,2.19583 l -5.47e-4,16.54827 h 11.248434 v -16.52359 -2.21942 h 4.750325 3.686412 v 3.28508 l 5.5e-4,1.25226 11.418637,-0.007 -0.74553,-1.24465 h -9.27043 v -4.68899 H 96.206681 90.05133 c 0,0 -2.2e-5,2.58242 0,3.62279 l 5.48e-4,15.12021 H 81.611305 V 107.1394 c -1.3e-5,-1.13635 0,-3.59757 0,-3.59757 h -4.552351 z m 0.0017,10.21796 -0.0017,-1.48338 h -7.410114 -2.434989 l -4.74e-4,11.41187 h 11.24841 v -9.7923 -1.61957 h -1.402858 l 2.6e-5,1.48189 v 8.52667 h -8.442221 v -8.52667 z m 29.529581,-1.48338 v 11.41236 h 11.416247 l -0.009,-11.41236 c 0,0 -0.82999,0.13047 -1.43878,0.0428 -0.005,1.29005 -0.33066,-1.26985 -0.0331,1.43899 -0.0356,4.49065 -3.2e-4,8.52667 -3.2e-4,8.52667 h -8.53166 l -5.5e-4,-8.52694 h 8.53248 l 1.47194,-1.48148 z"
         sodipodi:nodetypes="cccssccscccccscssscccccccsssccccccccccccccccccccccccccccccccccccccccccccccccccccccccccc" /><path
         style="fill:#1d406f;fill-opacity:1;stroke:#b2caec;stroke-width:11.8;stroke-dasharray:none;stroke-opacity:1"
         d="m 3272.4854,1022.4764 c -0.01,-351.85968 -7.5612,-414.28519 -58.449,-482.97815 -52.679,-71.11087 -101.6127,-104.5263 -186.9499,-127.66264 -37.4605,-10.15618 -74.3763,-11.31683 -529.5854,-16.65037 -269.1248,-3.15324 -836.03,-4.81249 -1259.7891,-3.68722 -423.75925,1.12528 -769.95873,1.6941 -769.33221,1.26405 37.1448,-25.49678 294.46176,-169.89792 312.33811,-175.27791 20.03812,-6.03058 126.12811,-9.01708 482.3271,-13.57781 547.674,-7.01236 1940.0306,-7.39687 2092.5272,-0.57787 102.9875,4.60517 111.0544,5.80318 157.7512,23.4277 39.0012,14.72001 55.0891,24.45005 77.5288,46.88977 63.2341,63.23413 67.4618,96.67543 65.1385,515.25628 l -1.6629,299.58437 -158.3919,91.8817 c -153.7872,89.2105 -159.3375,91.8895 -190.9188,92.1528 l -32.5269,0.2711 z"
         id="path87"
         transform="matrix(0.01562537,0,0,0.01562537,60.23546,87.482251)" /><path
         style="fill:#1d406f;fill-opacity:1;stroke:#b2caec;stroke-width:7;stroke-dasharray:none;stroke-opacity:1"
         d="m 3272.4902,1949.1185 v -257.7224 l 28.6804,-15.5547 c 15.7742,-8.5551 98.5047,-55.7272 183.8456,-104.8268 85.3408,-49.0997 158.9844,-90.7378 163.6526,-92.5291 7.4693,-2.8663 8.466,27.1839 8.3087,250.4925 l -0.1789,253.7494 -26.6912,16.2889 c -14.6802,8.9589 -99.2404,58.2614 -187.9116,109.561 -88.6712,51.2996 -163.1295,94.3951 -165.463,95.7678 -2.3334,1.3727 -4.2426,-113.4793 -4.2426,-255.2266 z"
         id="path88"
         transform="matrix(0.01562537,0,0,0.01562537,60.23546,87.482251)" /><path
         style="fill:#1d406f;fill-opacity:1;stroke:#b2caec;stroke-width:7;stroke-dasharray:none;stroke-opacity:1"
         d="m 2735.089,1572.5606 c 7.7782,-6.1088 73.9634,-45.354 147.0782,-87.2116 l 132.9361,-76.1046 282.8427,-3.6781 282.8427,-3.678 -157.1317,91.0155 -157.1317,91.0154 -272.7892,-0.1258 c -272.1384,-0.1255 -272.7555,-0.1523 -258.6471,-11.2328 z"
         id="path89"
         transform="matrix(0.01562537,0,0,0.01562537,60.23546,87.482251)" /><path
         style="fill:#1d406f;fill-opacity:1;stroke:#b2caec;stroke-width:7;stroke-dasharray:none;stroke-opacity:1"
         d="m 1999.698,1663.5865 v -543.5294 h 195.1614 195.1615 v 431.7006 431.7007 l -190.3739,109.9432 c -104.7056,60.4687 -192.5283,110.7916 -195.1614,111.8287 -2.6332,1.0371 -4.7876,-242.7026 -4.7876,-541.6438 z"
         id="path94"
         transform="matrix(0.01562537,0,0,0.01562537,60.23546,87.482251)" /><path
         style="fill:#1d406f;fill-opacity:1;stroke:#b2caec;stroke-width:7;stroke-dasharray:none;stroke-opacity:1"
         d="m 738.21948,1949.5744 v -256.5987 l 35.35533,-18.7947 c 33.08793,-17.5894 296.11169,-168.5173 336.58279,-193.1375 l 18.3848,-11.1841 v 254.8459 254.846 l -29.6985,18.9726 c -34.8369,22.2553 -354.64937,207.6492 -358.20371,207.6492 -1.33139,0 -2.42071,-115.4694 -2.42071,-256.5987 z"
         id="path95"
         transform="matrix(0.01562537,0,0,0.01562537,60.23546,87.482251)" /><path
         style="fill:#1d406f;fill-opacity:1;stroke:#b2caec;stroke-width:7;stroke-dasharray:none;stroke-opacity:1"
         d="m 212.78337,1573.3872 c 7.41994,-5.7926 73.31954,-44.9816 146.44356,-87.0866 l 132.95276,-76.5547 277.16917,-4.1121 c 152.44306,-2.2616 275.85624,-2.7011 274.25144,-0.9767 -1.6047,1.7244 -71.55662,42.7638 -155.44868,91.1987 l -152.53101,88.0634 H 467.4566 c -262.58865,0 -267.88354,-0.219 -254.67323,-10.532 z"
         id="path96"
         transform="matrix(0.01562537,0,0,0.01562537,60.23546,87.482251)" /><path
         style="fill:#1d406f;fill-opacity:1;stroke:#b2caec;stroke-width:4.7;stroke-dasharray:none;stroke-opacity:1"
         d="m 741.0479,1198.9731 v -78.916 h 143.30698 c 78.81883,0 141.18562,2.0746 138.59292,4.6103 -11.3124,11.0633 -227.39307,132.4981 -253.27949,142.3401 l -28.62041,10.8815 z"
         id="path102"
         transform="matrix(0.01562537,0,0,0.01562537,60.23546,87.482251)" /><path
         style="fill:#e2ebf7;fill-opacity:1;stroke:#e2ebf7;stroke-width:3.77953;stroke-dasharray:none;stroke-opacity:1"
         d="M 1374.6156,1617.8603 V 1018.2338 H 1007.2484 639.88129 l -3.15681,149.9066 -3.15681,149.9066 -258.03443,3.0425 -258.03443,3.0425 3.47599,-320.1722 c 3.45193,-317.95618 3.67606,-320.56075 32.3798,-376.29395 20.50631,-39.81649 44.89439,-66.01197 83.94274,-90.16373 l 55.03894,-34.04209 476.08582,-8.74586 c 261.8472,-4.81022 865.5602,-7.35581 1341.5845,-5.65686 l 865.4987,3.08901 58.98,26.66968 c 125.4926,56.74551 138.0655,104.85738 138.6397,530.5305 l 0.3702,274.3574 h -271.529 -271.529 v -152.7351 -152.735 h -362.0387 -362.0386 v 599.6265 599.6266 h -265.8722 -265.8721 z"
         id="path5"
         transform="matrix(0.01562537,0,0,0.01562537,60.23546,87.482251)" /><path
         style="fill:#e2ebf7;fill-opacity:1;stroke:#e2ebf7;stroke-width:3.77953;stroke-dasharray:none;stroke-opacity:1"
         d="m 118.79394,1951.6147 v -265.8721 h 260.21529 260.2153 v 265.8721 265.8722 H 379.00923 118.79394 Z"
         id="path6"
         transform="matrix(0.01562537,0,0,0.01562537,60.23546,87.482251)" /><path
         style="fill:#e2ebf7;fill-opacity:1;stroke:#e2ebf7;stroke-width:3.77953;stroke-dasharray:none;stroke-opacity:1"
         d="m 2630.4372,1951.6147 v -265.8721 h 270.833 270.8331 l -2.1325,265.8532 -2.1324,265.8532 -268.7006,0.019 -268.7006,0.019 z"
         id="path7"
         transform="matrix(0.01562537,0,0,0.01562537,60.23546,87.482251)" /></g><path
       style="display:none;fill:#1d406f;fill-opacity:1;stroke:#1d406f;stroke-width:1.30286;stroke-dasharray:none;stroke-opacity:1"
       d="m 194.10081,55.140395 c 0,-22.648224 -0.2667,-24.618986 -3.99166,-29.496152 -3.50784,-4.592874 -7.82219,-6.689934 -15.10022,-7.339712 C 172.41276,18.072747 145.17026,17.925794 99.643377,17.89799 60.428548,17.874041 28.370095,17.835821 28.402368,17.813057 30.341407,16.445361 45.26268,8.053966 46.492271,7.6396943 49.120292,6.7542653 91.493073,6.2834956 153.61895,6.4494964 c 46.06715,0.1230918 50.3794,0.1839984 52.3259,0.739056 6.41926,1.8304949 9.58128,4.9256176 10.3996,10.1795606 0.58271,3.741198 0.84898,17.816291 0.56852,30.05191 l -0.26438,11.534351 -11.08644,6.408484 c -6.09755,3.524662 -11.1708,6.40848 -11.2739,6.40848 -0.10309,0 -0.18744,-7.483926 -0.18744,-16.630943 z"
       id="path52"
       transform="matrix(0.26458333,0,0,0.26458333,59.987553,88.90341)" /><path
       style="display:none;fill:#1d406f;fill-opacity:1;stroke:#1d406f;stroke-width:1.30286;stroke-dasharray:none;stroke-opacity:1"
       d="m 161.24981,87.907425 c 0.081,-0.07005 4.04524,-2.361862 8.80937,-5.092908 l 8.66206,-4.965538 16.79378,-0.252019 c 9.23659,-0.138611 16.71424,-0.168455 16.61701,-0.06632 -0.0972,0.102134 -4.20658,2.507351 -9.1319,5.344927 l -8.95512,5.159228 h -16.47126 c -9.05919,0 -16.40496,-0.05732 -16.32394,-0.12737 z"
       id="path53"
       transform="matrix(0.26458333,0,0,0.26458333,59.987553,88.90341)" /><path
       style="display:none;fill:#1d406f;fill-opacity:1;stroke:#1d406f;stroke-width:1.30286;stroke-dasharray:none;stroke-opacity:1"
       d="m 194.10483,109.68994 0.004,-15.114408 3.79668,-2.170283 c 2.08817,-1.193655 7.25708,-4.170446 11.48646,-6.61509 l 7.68979,-4.444808 -0.003,15.100372 -0.003,15.100367 -2.38346,1.46847 c -3.24556,1.9996 -20.19977,11.78979 -20.41705,11.78979 -0.0959,0 -0.1726,-6.80149 -0.17039,-15.11441 z"
       id="path54"
       transform="matrix(0.26458333,0,0,0.26458333,59.987553,88.90341)" /><path
       style="display:none;fill:#1d406f;fill-opacity:1;stroke:#1d406f;stroke-width:1.30286;stroke-dasharray:none;stroke-opacity:1"
       d="M 119.14749,92.807765 V 60.811183 h 11.49281 11.49281 l -0.0907,25.496285 -0.0907,25.496282 -11.24506,6.5003 c -6.18477,3.57516 -11.31572,6.5003 -11.40209,6.5003 -0.0864,0 -0.15705,-14.39847 -0.15705,-31.996585 z"
       id="path55"
       transform="matrix(0.26458333,0,0,0.26458333,59.987553,88.90341)" /><path
       style="display:none;fill:#1d406f;fill-opacity:1;stroke:#1d406f;stroke-width:1.30286;stroke-dasharray:none;stroke-opacity:1"
       d="m 44.547727,65.978369 v -5.167186 h 8.732769 c 4.803023,0 8.581624,0.13432 8.396893,0.298488 -0.184732,0.164168 -3.756505,2.258011 -7.937274,4.652983 -4.180769,2.394972 -7.95937,4.585886 -8.396893,4.868698 l -0.795495,0.514204 z"
       id="path56"
       transform="matrix(0.26458333,0,0,0.26458333,59.987553,88.90341)" /><path
       style="display:none;fill:#1d406f;fill-opacity:1;stroke:#1d406f;stroke-width:1.30286;stroke-dasharray:none;stroke-opacity:1"
       d="m 12.403831,87.907425 c 0.08102,-0.07005 4.04524,-2.362456 8.809372,-5.094227 l 8.662058,-4.966858 16.440233,-0.247885 c 10.369237,-0.156347 16.309672,-0.124042 16.086679,0.08748 -0.194454,0.184452 -4.282818,2.588403 -9.085254,5.342112 l -8.731703,5.006744 H 28.420867 c -8.890393,0 -16.098058,-0.05732 -16.017036,-0.127369 z"
       id="path57"
       transform="matrix(0.26458333,0,0,0.26458333,59.987553,88.90341)" /><path
       style="display:none;fill:#1d406f;fill-opacity:1;stroke:#1d406f;stroke-width:1.30286;stroke-dasharray:none;stroke-opacity:1"
       d="m 44.562766,109.72777 0.01504,-15.152238 11.24245,-6.45235 c 6.183348,-3.548792 11.347298,-6.452349 11.475446,-6.452349 0.128148,0 0.232996,6.742529 0.232996,14.983398 v 14.983399 l -4.154252,2.47845 c -5.706011,3.40424 -17.755098,10.3527 -18.344386,10.57883 -0.402925,0.15462 -0.479856,-2.30943 -0.467293,-14.96714 z"
       id="path58"
       transform="matrix(0.26458333,0,0,0.26458333,59.987553,88.90341)" /><path
       style="display:none;fill:#245da5;fill-opacity:1;stroke:#8fb1e3;stroke-width:1.30286;stroke-dasharray:none;stroke-opacity:1"
       d="M 81.84761,90.509668 V 55.154329 H 60.45763 39.06765 v 8.838834 8.838835 H 23.313887 7.5601257 L 7.6938074,54.889164 C 7.8119167,39.036475 7.9000782,36.701461 8.4506289,34.84426 c 1.419565,-4.788692 3.6855691,-7.504387 7.9261021,-9.499046 2.282532,-1.073655 2.5865,-1.121037 9.079113,-1.415221 3.694633,-0.167407 38.855518,-0.330097 78.135296,-0.361534 66.87296,-0.05352 71.55933,-0.01802 73.64194,0.557944 3.94081,1.089857 5.64014,2.014995 7.56056,4.116077 0.99855,1.092484 2.02634,2.490761 2.28399,3.107281 0.92114,2.20418 1.18379,7.609979 1.18665,24.423286 l 0.003,17.058951 h -15.9099 -15.90991 V 63.993163 55.154329 H 134.88062 113.31386 V 90.509668 125.86501 H 97.580735 81.84761 Z"
       id="path61"
       transform="matrix(0.26458333,0,0,0.26458333,59.987553,88.90341)" /><path
       style="display:none;fill:#245da5;fill-opacity:1;stroke:#8fb1e3;stroke-width:1.30286;stroke-dasharray:none;stroke-opacity:1"
       d="M 7.6013979,109.9551 V 94.045202 H 23.334524 39.06765 V 109.9551 125.86501 H 23.334524 7.6013979 Z"
       id="path62"
       transform="matrix(0.26458333,0,0,0.26458333,59.987553,88.90341)" /><path
       style="display:none;fill:#245da5;fill-opacity:1;stroke:#8fb1e3;stroke-width:1.30286;stroke-dasharray:none;stroke-opacity:1"
       d="M 156.44737,109.9551 V 94.045202 h 15.90991 15.9099 v 15.909898 15.90991 h -15.9099 -15.90991 z"
       id="path63"
       transform="matrix(0.26458333,0,0,0.26458333,59.987553,88.90341)" /><text
       xml:space="preserve"
       style="font-style:normal;font-variant:normal;font-weight:normal;font-stretch:normal;font-size:296.752px;font-family:'Bauhaus 93';-inkscape-font-specification:'Bauhaus 93, Normal';font-variant-ligatures:normal;font-variant-caps:normal;font-variant-numeric:normal;font-variant-east-asian:normal;text-align:start;writing-mode:lr-tb;direction:ltr;text-anchor:start;fill:#1d406f;fill-opacity:1;stroke-width:5.9123"
       x="1382.6255"
       y="319.07861"
       id="text2"
       transform="scale(0.83774532,1.1936802)"><tspan
         sodipodi:role="line"
         id="tspan1"
         style="font-style:normal;font-variant:normal;font-weight:normal;font-stretch:normal;font-size:296.752px;font-family:'Bauhaus 93';-inkscape-font-specification:'Bauhaus 93, Normal';font-variant-ligatures:normal;font-variant-caps:normal;font-variant-numeric:normal;font-variant-east-asian:normal;stroke-width:5.9123"
         x="1382.6255"
         y="319.07861">TALLERES</tspan><tspan
         sodipodi:role="line"
         style="font-style:normal;font-variant:normal;font-weight:normal;font-stretch:normal;font-size:296.752px;font-family:'Bauhaus 93';-inkscape-font-specification:'Bauhaus 93, Normal';font-variant-ligatures:normal;font-variant-caps:normal;font-variant-numeric:normal;font-variant-east-asian:normal;stroke-width:5.9123"
         x="1382.6255"
         y="690.01862"
         id="tspan2" /></text><text
       xml:space="preserve"
       style="font-style:normal;font-variant:normal;font-weight:normal;font-stretch:normal;font-size:296.752px;font-family:'Bauhaus 93';-inkscape-font-specification:'Bauhaus 93, Normal';font-variant-ligatures:normal;font-variant-caps:normal;font-variant-numeric:normal;font-variant-east-asian:normal;text-align:start;writing-mode:lr-tb;direction:ltr;text-anchor:start;fill:#1d406f;fill-opacity:1;stroke-width:5.9123"
       x="1368.8602"
       y="572.19904"
       id="text4"
       transform="scale(0.83774532,1.1936802)"><tspan
         sodipodi:role="line"
         style="font-style:normal;font-variant:normal;font-weight:normal;font-stretch:normal;font-size:296.752px;font-family:'Bauhaus 93';-inkscape-font-specification:'Bauhaus 93, Normal';font-variant-ligatures:normal;font-variant-caps:normal;font-variant-numeric:normal;font-variant-east-asian:normal;stroke-width:5.9123"
         x="1368.8602"
         y="572.19904"
         id="tspan4">MONTREAL</tspan></text></g></svg>
