<?xml version="1.0" encoding="UTF-8" standalone="no"?>
<svg
   id="svg1"
   viewBox="0 0 780.00001 749.99996"
   version="1.1"
   sodipodi:docname="talleres-montreal-logo-vertical.svg"
   width="780"
   height="750"
   inkscape:version="1.4 (86a8ad7, 2024-10-11)"
   xmlns:inkscape="http://www.inkscape.org/namespaces/inkscape"
   xmlns:sodipodi="http://sodipodi.sourceforge.net/DTD/sodipodi-0.dtd"
   xmlns="http://www.w3.org/2000/svg"
   xmlns:svg="http://www.w3.org/2000/svg">
  <sodipodi:namedview
     id="namedview27"
     pagecolor="#ffffff"
     bordercolor="#999999"
     borderopacity="1"
     inkscape:showpageshadow="2"
     inkscape:pageopacity="0"
     inkscape:pagecheckerboard="0"
     inkscape:deskcolor="#d1d1d1"
     inkscape:zoom="0.55230537"
     inkscape:cx="231.75585"
     inkscape:cy="585.72669"
     inkscape:window-width="1920"
     inkscape:window-height="1017"
     inkscape:window-x="-8"
     inkscape:window-y="-8"
     inkscape:window-maximized="1"
     inkscape:current-layer="svg1" />
  <defs
     id="defs3">
    <style
       id="style1">
      .cls-1 {
        fill: #071859;
      }

      .cls-2 {
        fill: url(#Degradado_sin_nombre_16);
      }

      .cls-3 {
        fill: #09041b;
      }

      .cls-4 {
        fill: #fff;
      }

      .cls-5 {
        fill: #0033a5;
      }
    </style>
    <linearGradient
       id="Degradado_sin_nombre_16"
       data-name="Degradado sin nombre 16"
       x1="458.16"
       y1="6.1900001"
       x2="746.98999"
       y2="681.16998"
       gradientUnits="userSpaceOnUse"
       gradientTransform="translate(-138.02,-146.15)">
      <stop
         offset=".41"
         stop-color="#071859"
         id="stop1" />
      <stop
         offset=".49"
         stop-color="#080c33"
         id="stop2" />
      <stop
         offset=".55"
         stop-color="#09041b"
         id="stop3" />
    </linearGradient>
  </defs>
  <path
     class="cls-3"
     d="M 641.93,84.45 C 629.42,71.94 612.79,65.05 595.1,65.05 H 71.25 c -17.69,0 -34.32,6.89 -46.83,19.4 -12.51,12.51 -19.4,29.14 -19.4,46.83 V 269.54 H 148.05 V 208.08 H 261.66 V 455.49 H 404.69 V 208.08 H 518.3 v 61.46 H 661.33 V 131.28 c 0,-17.69 -6.89,-34.32 -19.4,-46.83 z"
     id="path3" />
  <path
     class="cls-5"
     d="M 5.01,304.34 V 455.49 H 148.04 V 304.34 Z M 131.67,439.12 H 21.39 V 320.73 h 110.28 z"
     id="path4" />
  <rect
     class="cls-4"
     x="21.390003"
     y="320.72"
     width="110.28"
     height="118.39"
     id="rect4" />
  <path
     class="cls-5"
     d="M 518.3,304.34 V 455.49 H 661.33 V 304.34 Z M 644.95,439.12 H 534.67 V 320.73 h 110.28 z"
     id="path5" />
  <rect
     class="cls-4"
     x="534.66998"
     y="320.72"
     width="110.28"
     height="118.39"
     id="rect5" />
  <g
     id="g7"
     transform="translate(-138.02,-146.15)">
    <path
       class="cls-5"
       d="M 779.95,230.6 C 767.44,218.09 750.81,211.2 733.12,211.2 H 209.27 c -17.69,0 -34.32,6.89 -46.83,19.4 -12.51,12.51 -19.4,29.14 -19.4,46.83 V 415.69 H 286.07 V 354.23 H 399.68 V 601.64 H 542.71 V 354.23 h 113.61 v 61.46 H 799.35 V 277.43 c 0,-17.69 -6.89,-34.32 -19.4,-46.83 z m 3.02,107.25 v 61.46 H 672.69 V 337.85 H 526.32 V 585.26 H 416.04 V 337.85 H 269.67 v 61.46 H 159.39 V 277.43 c 0,-27.53 22.32,-49.86 49.86,-49.86 H 733.1 c 27.53,0 49.86,22.32 49.86,49.86 v 60.42 z"
       id="path6" />
    <path
       class="cls-4"
       d="M 733.12,227.58 H 209.27 c -27.53,0 -49.86,22.32 -49.86,49.86 V 399.32 H 269.69 V 337.86 H 416.06 V 585.27 H 526.34 V 337.86 h 146.37 v 61.46 H 782.99 V 277.44 c 0,-27.53 -22.32,-49.86 -49.86,-49.86 z"
       id="path7" />
  </g>
  <polygon
     class="cls-3"
     points="399.67,541.59 286.06,601.64 286.06,450.49 399.67,390.44 "
     id="polygon7"
     transform="translate(-138.02,-146.15)" />
  <polygon
     class="cls-3"
     points="912.96,541.59 799.35,601.64 799.35,450.49 912.96,390.44 "
     id="polygon8"
     transform="translate(-138.02,-146.15)" />
  <path
     class="cls-2"
     d="M 755.54,24.4 C 743.03,11.89 726.4,5 708.71,5 H 184.85 c -10.99,0 -21.58,2.66 -31.02,7.68 v 0 c 0,0 -113.07,59.76 -113.07,59.76 v 0 c 9.3,-4.83 19.69,-7.39 30.48,-7.39 h 523.85 c 17.69,0 34.32,6.89 46.83,19.4 12.51,12.51 19.4,29.14 19.4,46.83 V 269.54 L 774.93,209.49 V 71.23 c 0,-17.69 -6.89,-34.32 -19.4,-46.83 z"
     id="path8"
     style="fill:url(#Degradado_sin_nombre_16)" />
  <polygon
     class="cls-3"
     points="542.71,354.23 542.71,601.64 656.31,541.59 656.32,354.23 "
     id="polygon9"
     transform="translate(-138.02,-146.15)" />
  <polygon
     class="cls-3"
     points="286.06,415.69 286.06,354.23 399.67,354.23 "
     id="polygon10"
     transform="translate(-138.02,-146.15)" />
  <polygon
     class="cls-1"
     points="332.73,390.44 286.06,415.69 208.88,415.69 143.03,450.49 286.06,450.49 399.67,390.44 "
     id="polygon11"
     transform="translate(-138.02,-146.15)" />
  <polygon
     class="cls-1"
     points="846.02,390.44 799.35,415.69 722.16,415.69 656.32,450.49 799.35,450.49 912.96,390.44 "
     id="polygon12"
     transform="translate(-138.02,-146.15)" />
  <g
     id="g27"
     transform="translate(-138.02,-146.15)">
    <g
       id="g19">
      <path
         d="m 196.28,693.33 v 62.14 H 180.19 V 693.33 H 148.47 V 679.8 h 79.65 v 13.53 h -31.85 z"
         id="path12" />
      <path
         d="m 218.15,755.47 39.11,-75.67 h 15.5 l 39.63,75.67 h -18.05 l -8.31,-16.54 h -43.81 l -8.04,16.54 h -16.02 z m 30.93,-30.21 h 30.28 l -14.91,-30.78 z"
         id="path13" />
      <path
         d="M 327.25,755.47 V 679.8 h 16.09 v 61.42 h 51.86 v 14.25 z"
         id="path14" />
      <path
         d="M 411.37,755.47 V 679.8 h 16.09 v 61.42 h 51.86 v 14.25 z"
         id="path15" />
      <path
         d="M 495.49,755.47 V 679.8 h 70.76 v 12.89 h -54.67 v 16.89 h 31.91 v 12.89 h -31.91 v 18.76 h 55.32 v 14.25 h -71.41 z"
         id="path16" />
      <path
         d="M 589.23,755.47 V 679.8 h 59.12 c 5.49,0 9.47,1.16 11.93,3.47 2.46,2.32 3.69,6.05 3.69,11.2 v 17.75 c 0,5.11 -1.23,8.83 -3.69,11.17 -2.46,2.34 -6.44,3.51 -11.93,3.51 h -9.02 l 31.91,28.56 H 648.16 L 620.3,726.9 h -15.24 v 28.56 h -15.83 z m 51.99,-62.57 h -36.16 v 21.05 h 36.16 c 2.79,0 4.7,-0.44 5.72,-1.32 1.02,-0.88 1.54,-2.45 1.54,-4.69 v -9.09 c 0,-2.19 -0.51,-3.73 -1.54,-4.62 -1.02,-0.88 -2.93,-1.32 -5.72,-1.32 z"
         id="path17" />
      <path
         d="M 689.24,755.47 V 679.8 H 760 v 12.89 h -54.67 v 16.89 h 31.91 v 12.89 h -31.91 v 18.76 h 55.32 v 14.25 h -71.41 z"
         id="path18" />
      <path
         d="m 842.87,693.04 h -45.25 v 16.25 h 43.1 c 6.76,0 11.32,1.27 13.7,3.79 2.38,2.53 3.56,7.23 3.56,14.1 v 10.38 c 0,6.87 -1.19,11.57 -3.56,14.1 -2.38,2.53 -6.94,3.79 -13.7,3.79 h -42.7 c -6.76,0 -11.32,-1.26 -13.7,-3.79 -2.38,-2.53 -3.56,-7.23 -3.56,-14.1 v -2.08 h 14.19 v 5.73 h 48.85 v -17.25 h -43.09 c -6.71,0 -11.25,-1.26 -13.6,-3.79 -2.35,-2.53 -3.53,-7.23 -3.53,-14.1 v -8.38 c 0,-6.87 1.18,-11.57 3.53,-14.1 2.35,-2.53 6.89,-3.79 13.6,-3.79 h 39.24 c 6.5,0 10.97,1.22 13.44,3.65 2.46,2.43 3.69,6.75 3.69,12.96 v 1.57 h -14.19 v -4.94 z"
         id="path19" />
    </g>
    <path
       d="m 143.03,892.28 v -75.67 h 13.01 l 32.57,45.74 31.85,-45.74 h 12.88 v 75.67 h -14.91 v -46.75 c 0,-0.91 0.05,-2.05 0.16,-3.44 0.11,-1.38 0.25,-2.94 0.42,-4.65 -0.87,1.96 -1.63,3.57 -2.29,4.83 -0.65,1.27 -1.24,2.3 -1.77,3.11 l -25.96,37.8 h -3.2 l -26.03,-37.94 c -0.96,-1.43 -1.78,-2.78 -2.45,-4.04 -0.68,-1.26 -1.23,-2.49 -1.67,-3.69 0.13,1.57 0.23,3.01 0.29,4.3 0.07,1.29 0.1,2.53 0.1,3.72 v 46.75 h -13.01 z"
       id="path20" />
    <path
       d="m 258.35,834.51 c 0,-6.87 1.18,-11.57 3.53,-14.1 2.35,-2.53 6.89,-3.79 13.6,-3.79 h 50.88 c 6.71,0 11.25,1.27 13.6,3.79 2.35,2.53 3.53,7.23 3.53,14.1 v 39.87 c 0,6.92 -1.18,11.63 -3.53,14.14 -2.35,2.51 -6.89,3.76 -13.6,3.76 h -50.88 c -6.71,0 -11.25,-1.25 -13.6,-3.76 -2.35,-2.51 -3.53,-7.22 -3.53,-14.14 z m 16.08,43.52 h 53.04 v -47.89 h -53.04 z"
       id="path21" />
    <path
       d="m 369.87,892.28 v -75.67 h 10.99 l 48.65,44.6 c 1.66,1.48 3.12,2.88 4.38,4.19 1.26,1.31 2.42,2.66 3.47,4.04 -0.26,-4.25 -0.44,-7.25 -0.52,-9.02 -0.09,-1.77 -0.13,-3.13 -0.13,-4.08 v -39.73 h 14.45 v 75.67 h -10.99 l -50.75,-46.75 c -1.22,-1.19 -2.29,-2.27 -3.2,-3.22 -0.92,-0.95 -1.77,-1.93 -2.55,-2.94 0.22,2.34 0.38,4.55 0.49,6.62 0.11,2.08 0.16,3.88 0.16,5.4 v 40.88 h -14.45 z"
       id="path22" />
    <path
       d="m 511.21,830.14 v 62.14 H 495.12 V 830.14 H 463.4 v -13.53 h 79.65 v 13.53 H 511.2 Z"
       id="path23" />
    <path
       d="m 555.37,892.28 v -75.67 h 59.12 c 5.49,0 9.47,1.16 11.93,3.47 2.46,2.32 3.69,6.05 3.69,11.2 v 17.75 c 0,5.11 -1.23,8.83 -3.69,11.17 -2.46,2.34 -6.44,3.51 -11.93,3.51 h -9.02 l 31.91,28.56 H 614.3 L 586.44,863.71 H 571.2 v 28.56 h -15.83 z m 51.99,-62.57 H 571.2 v 21.05 h 36.16 c 2.79,0 4.7,-0.44 5.72,-1.32 1.02,-0.88 1.54,-2.45 1.54,-4.69 v -9.09 c 0,-2.19 -0.51,-3.73 -1.54,-4.62 -1.02,-0.88 -2.93,-1.32 -5.72,-1.32 z"
       id="path24" />
    <path
       d="m 655.39,892.28 v -75.67 h 70.76 v 12.89 h -54.67 v 16.89 h 31.91 v 12.89 h -31.91 v 18.76 h 55.32 v 14.25 h -71.41 z"
       id="path25" />
    <path
       d="m 735.91,892.28 39.11,-75.67 h 15.5 l 39.63,75.67 H 812.1 l -8.31,-16.54 h -43.81 l -8.04,16.54 h -16.02 z m 30.93,-30.21 h 30.28 l -14.91,-30.78 z"
       id="path26" />
    <path
       d="m 845.01,892.28 v -75.67 h 16.09 v 61.42 h 51.86 v 14.25 z"
       id="path27" />
  </g>
</svg>
