<?xml version="1.0" encoding="UTF-8" standalone="no"?>
<svg
   id="svg1"
   viewBox="0 0 1755 460.00001"
   version="1.1"
   sodipodi:docname="Logo Horizontal.svg"
   width="1755"
   height="460"
   inkscape:version="1.4 (86a8ad7, 2024-10-11)"
   xmlns:inkscape="http://www.inkscape.org/namespaces/inkscape"
   xmlns:sodipodi="http://sodipodi.sourceforge.net/DTD/sodipodi-0.dtd"
   xmlns="http://www.w3.org/2000/svg"
   xmlns:svg="http://www.w3.org/2000/svg">
  <sodipodi:namedview
     id="namedview28"
     pagecolor="#ffffff"
     bordercolor="#999999"
     borderopacity="1"
     inkscape:showpageshadow="2"
     inkscape:pageopacity="0"
     inkscape:pagecheckerboard="0"
     inkscape:deskcolor="#d1d1d1"
     inkscape:zoom="0.61805287"
     inkscape:cx="920.63321"
     inkscape:cy="405.30513"
     inkscape:window-width="1920"
     inkscape:window-height="1017"
     inkscape:window-x="-8"
     inkscape:window-y="-8"
     inkscape:window-maximized="1"
     inkscape:current-layer="svg1" />
  <defs
     id="defs3">
    <style
       id="style1">
      .cls-1 {
        fill: #071859;
      }

      .cls-2 {
        fill: url(#Degradado_sin_nombre_16);
      }

      .cls-3 {
        fill: #09041b;
      }

      .cls-4 {
        fill: #fff;
      }

      .cls-5 {
        fill: #0033a5;
      }
    </style>
    <linearGradient
       id="Degradado_sin_nombre_16"
       data-name="Degradado sin nombre 16"
       x1="458.16"
       y1="6.1900001"
       x2="746.98999"
       y2="681.16998"
       gradientUnits="userSpaceOnUse"
       gradientTransform="translate(-138.03,-146.15)">
      <stop
         offset=".41"
         stop-color="#071859"
         id="stop1" />
      <stop
         offset=".49"
         stop-color="#080c33"
         id="stop2" />
      <stop
         offset=".55"
         stop-color="#09041b"
         id="stop3" />
    </linearGradient>
  </defs>
  <g
     id="g18"
     transform="translate(-138.03,-146.15)">
    <path
       d="m 1040.52,307.87 v 73 h -18.9 v -73 h -37.26 v -15.9 h 93.57 v 15.9 z"
       id="path3" />
    <path
       d="m 1066.21,380.87 45.94,-88.89 h 18.21 l 46.56,88.89 h -21.2 l -9.76,-19.43 h -51.47 l -9.45,19.43 h -18.82 z m 36.33,-35.49 h 35.57 l -17.52,-36.16 z"
       id="path4" />
    <path
       d="m 1194.38,380.87 v -88.89 h 18.9 v 72.16 h 60.92 v 16.74 h -79.82 z"
       id="path5" />
    <path
       d="m 1293.2,380.87 v -88.89 h 18.9 v 72.16 h 60.92 v 16.74 h -79.82 z"
       id="path6" />
    <path
       d="m 1392.03,380.87 v -88.89 h 83.12 v 15.14 h -64.23 v 19.85 h 37.49 v 15.14 h -37.49 v 22.03 h 64.99 v 16.74 h -83.89 z"
       id="path7" />
    <path
       d="m 1502.15,380.87 v -88.89 h 69.45 c 6.45,0 11.13,1.36 14.02,4.08 2.89,2.72 4.34,7.11 4.34,13.16 v 20.86 c 0,6 -1.45,10.37 -4.34,13.12 -2.89,2.75 -7.57,4.12 -14.02,4.12 H 1561 l 37.49,33.56 h -27.12 l -32.73,-33.56 h -17.9 v 33.56 h -18.59 z m 61.07,-73.5 h -42.48 v 24.73 h 42.48 c 3.28,0 5.52,-0.52 6.72,-1.56 1.2,-1.04 1.81,-2.87 1.81,-5.51 v -10.68 c 0,-2.58 -0.6,-4.39 -1.81,-5.42 -1.2,-1.04 -3.45,-1.56 -6.72,-1.56 z"
       id="path8" />
    <path
       d="m 1619.64,380.87 v -88.89 h 83.12 v 15.14 h -64.23 v 19.85 h 37.49 v 15.14 h -37.49 v 22.03 h 64.99 v 16.74 h -83.89 z"
       id="path9" />
    <path
       d="m 1800.13,307.53 h -53.16 v 19.09 h 50.63 c 7.94,0 13.3,1.49 16.09,4.46 2.79,2.97 4.19,8.49 4.19,16.57 v 12.19 c 0,8.07 -1.4,13.6 -4.19,16.57 -2.79,2.97 -8.16,4.46 -16.09,4.46 h -50.17 c -7.94,0 -13.3,-1.48 -16.09,-4.46 -2.79,-2.97 -4.19,-8.49 -4.19,-16.57 v -2.44 h 16.67 v 6.73 h 57.39 v -20.27 h -50.63 c -7.89,0 -13.21,-1.48 -15.98,-4.46 -2.77,-2.97 -4.15,-8.49 -4.15,-16.57 v -9.84 c 0,-8.07 1.38,-13.6 4.15,-16.57 2.77,-2.97 8.09,-4.46 15.98,-4.46 h 46.1 c 7.63,0 12.89,1.43 15.79,4.29 2.89,2.86 4.34,7.93 4.34,15.22 v 1.85 h -16.67 v -5.8 z"
       id="path10" />
    <path
       d="M 984.36,541.59 V 452.7 h 15.29 l 38.26,53.74 37.41,-53.74 h 15.13 v 88.89 h -17.52 v -54.92 c 0,-1.06 0.06,-2.41 0.19,-4.04 0.13,-1.63 0.29,-3.45 0.5,-5.47 -1.03,2.3 -1.92,4.19 -2.69,5.68 -0.77,1.49 -1.46,2.71 -2.07,3.66 l -30.5,44.41 h -3.76 l -30.58,-44.57 c -1.13,-1.68 -2.09,-3.27 -2.88,-4.75 -0.79,-1.49 -1.45,-2.93 -1.96,-4.33 0.15,1.85 0.27,3.53 0.35,5.05 0.08,1.51 0.12,2.97 0.12,4.37 v 54.92 h -15.29 z"
       id="path11" />
    <path
       d="m 1119.83,473.73 c 0,-8.07 1.38,-13.6 4.15,-16.57 2.77,-2.97 8.09,-4.46 15.98,-4.46 h 59.77 c 7.89,0 13.21,1.49 15.98,4.46 2.77,2.97 4.15,8.49 4.15,16.57 v 46.84 c 0,8.13 -1.38,13.67 -4.15,16.61 -2.77,2.94 -8.09,4.42 -15.98,4.42 h -59.77 c -7.89,0 -13.21,-1.47 -15.98,-4.42 -2.77,-2.94 -4.15,-8.48 -4.15,-16.61 z m 18.9,51.13 h 62.31 V 468.6 h -62.31 z"
       id="path12" />
    <path
       d="M 1250.84,541.59 V 452.7 h 12.91 l 57.16,52.39 c 1.95,1.74 3.66,3.38 5.15,4.92 1.49,1.54 2.84,3.13 4.07,4.75 -0.31,-4.99 -0.51,-8.52 -0.61,-10.6 -0.1,-2.07 -0.15,-3.67 -0.15,-4.79 v -46.68 h 16.98 v 88.89 h -12.91 l -59.62,-54.92 c -1.43,-1.4 -2.69,-2.66 -3.76,-3.78 -1.08,-1.12 -2.07,-2.27 -3,-3.45 0.26,2.75 0.45,5.34 0.58,7.78 0.13,2.44 0.19,4.56 0.19,6.35 v 48.02 h -16.98 z"
       id="path13" />
    <path
       d="m 1416.89,468.6 v 73 h -18.9 v -73 h -37.26 v -15.9 h 93.57 v 15.9 z"
       id="path14" />
    <path
       d="M 1468.78,541.59 V 452.7 h 69.45 c 6.45,0 11.13,1.36 14.02,4.08 2.89,2.72 4.34,7.11 4.34,13.16 v 20.86 c 0,6 -1.45,10.37 -4.34,13.12 -2.89,2.75 -7.57,4.12 -14.02,4.12 h -10.6 l 37.49,33.56 H 1538 l -32.73,-33.56 h -17.9 v 33.56 h -18.59 z m 61.07,-73.5 h -42.48 v 24.73 h 42.48 c 3.28,0 5.52,-0.52 6.72,-1.56 1.2,-1.04 1.81,-2.87 1.81,-5.51 v -10.68 c 0,-2.58 -0.6,-4.39 -1.81,-5.42 -1.2,-1.04 -3.45,-1.56 -6.72,-1.56 z"
       id="path15" />
    <path
       d="M 1586.27,541.59 V 452.7 h 83.12 v 15.14 h -64.23 v 19.85 h 37.49 v 15.14 h -37.49 v 22.03 h 64.99 v 16.74 h -83.89 z"
       id="path16" />
    <path
       d="m 1680.87,541.59 45.94,-88.89 h 18.21 l 46.56,88.89 h -21.2 l -9.76,-19.43 h -51.47 l -9.45,19.43 h -18.82 z m 36.34,-35.49 h 35.57 l -17.52,-36.16 z"
       id="path17" />
    <path
       d="M 1809.04,541.59 V 452.7 h 18.9 v 72.16 h 60.92 v 16.74 h -79.82 z"
       id="path18" />
  </g>
  <path
     class="cls-3"
     d="M 641.92,84.45 C 629.41,71.94 612.78,65.05 595.09,65.05 H 71.24 c -17.69,0 -34.32,6.89 -46.83,19.4 C 11.9,96.96 5.01,113.59 5.01,131.28 V 269.54 H 148.04 V 208.08 H 261.65 V 455.49 H 404.68 V 208.08 h 113.61 v 61.46 H 661.32 V 131.28 c 0,-17.69 -6.89,-34.32 -19.4,-46.83 z"
     id="path19" />
  <path
     class="cls-5"
     d="M 5,304.34 V 455.49 H 148.03 V 304.34 Z M 131.66,439.12 H 21.38 V 320.73 h 110.28 z"
     id="path20" />
  <rect
     class="cls-4"
     x="21.380003"
     y="320.72"
     width="110.28"
     height="118.39"
     id="rect20" />
  <path
     class="cls-5"
     d="M 518.29,304.34 V 455.49 H 661.32 V 304.34 Z M 644.94,439.12 H 534.66 V 320.73 h 110.28 z"
     id="path21" />
  <rect
     class="cls-4"
     x="534.65997"
     y="320.72"
     width="110.28"
     height="118.39"
     id="rect21" />
  <g
     id="g23"
     transform="translate(-138.03,-146.15)">
    <path
       class="cls-5"
       d="M 779.95,230.6 C 767.44,218.09 750.81,211.2 733.12,211.2 H 209.27 c -17.69,0 -34.32,6.89 -46.83,19.4 -12.51,12.51 -19.4,29.14 -19.4,46.83 V 415.69 H 286.07 V 354.23 H 399.68 V 601.64 H 542.71 V 354.23 h 113.61 v 61.46 H 799.35 V 277.43 c 0,-17.69 -6.89,-34.32 -19.4,-46.83 z m 3.02,107.25 v 61.46 H 672.69 V 337.85 H 526.32 V 585.26 H 416.04 V 337.85 H 269.67 v 61.46 H 159.39 V 277.43 c 0,-27.53 22.32,-49.86 49.86,-49.86 H 733.1 c 27.53,0 49.86,22.32 49.86,49.86 v 60.42 z"
       id="path22" />
    <path
       class="cls-4"
       d="M 733.12,227.58 H 209.27 c -27.53,0 -49.86,22.32 -49.86,49.86 V 399.32 H 269.69 V 337.86 H 416.06 V 585.27 H 526.34 V 337.86 h 146.37 v 61.46 H 782.99 V 277.44 c 0,-27.53 -22.32,-49.86 -49.86,-49.86 z"
       id="path23" />
  </g>
  <polygon
     class="cls-3"
     points="399.67,541.59 286.06,601.64 286.06,450.49 399.67,390.44 "
     id="polygon23"
     transform="translate(-138.03,-146.15)" />
  <polygon
     class="cls-3"
     points="912.96,541.59 799.35,601.64 799.35,450.49 912.96,390.44 "
     id="polygon24"
     transform="translate(-138.03,-146.15)" />
  <path
     class="cls-2"
     d="M 755.53,24.4 C 743.02,11.89 726.39,5 708.7,5 H 184.84 c -10.99,0 -21.58,2.66 -31.02,7.68 v 0 c 0,0 -113.07,59.76 -113.07,59.76 v 0 c 9.3,-4.83 19.69,-7.39 30.48,-7.39 h 523.85 c 17.69,0 34.32,6.89 46.83,19.4 12.51,12.51 19.4,29.14 19.4,46.83 V 269.54 L 774.92,209.49 V 71.23 c 0,-17.69 -6.89,-34.32 -19.4,-46.83 z"
     id="path24"
     style="fill:url(#Degradado_sin_nombre_16)" />
  <polygon
     class="cls-3"
     points="542.71,354.23 542.71,601.64 656.31,541.59 656.32,354.23 "
     id="polygon25"
     transform="translate(-138.03,-146.15)" />
  <polygon
     class="cls-3"
     points="399.67,354.23 286.06,415.69 286.06,354.23 "
     id="polygon26"
     transform="translate(-138.03,-146.15)" />
  <polygon
     class="cls-1"
     points="208.88,415.69 143.03,450.49 286.06,450.49 399.67,390.44 332.73,390.44 286.06,415.69 "
     id="polygon27"
     transform="translate(-138.03,-146.15)" />
  <polygon
     class="cls-1"
     points="722.16,415.69 656.32,450.49 799.35,450.49 912.96,390.44 846.02,390.44 799.35,415.69 "
     id="polygon28"
     transform="translate(-138.03,-146.15)" />
</svg>
