<?xml version="1.0" encoding="UTF-8" standalone="no"?>
<svg
   version="1.1"
   x="0px"
   y="0px"
   viewBox="0 0 98 98"
   xml:space="preserve"
   id="svg10"
   sodipodi:docname="container-truck.svg"
   width="98"
   height="98"
   inkscape:version="1.4 (86a8ad7, 2024-10-11)"
   xmlns:inkscape="http://www.inkscape.org/namespaces/inkscape"
   xmlns:sodipodi="http://sodipodi.sourceforge.net/DTD/sodipodi-0.dtd"
   xmlns="http://www.w3.org/2000/svg"
   xmlns:svg="http://www.w3.org/2000/svg"><defs
     id="defs10" /><sodipodi:namedview
     id="namedview10"
     pagecolor="#ffffff"
     bordercolor="#999999"
     borderopacity="1"
     inkscape:showpageshadow="2"
     inkscape:pageopacity="0"
     inkscape:pagecheckerboard="0"
     inkscape:deskcolor="#d1d1d1"
     inkscape:zoom="4.9393939"
     inkscape:cx="64.177915"
     inkscape:cy="116.51227"
     inkscape:window-width="1920"
     inkscape:window-height="1017"
     inkscape:window-x="-8"
     inkscape:window-y="-8"
     inkscape:window-maximized="1"
     inkscape:current-layer="svg10" /><path
     d="M 93.09939,55.283802 84.71308,50.409334 80.692452,36.306071 C 79.747304,32.962305 76.626817,30.614238 73.101266,30.614238 H 62.37459 c -1.815284,0 -3.300516,1.471257 -3.300516,3.26946 V 63.838569 H 47.582279 l -2.760431,-4.57197 h 5.250819 c 3.510549,0 6.375997,-2.823625 6.375997,-6.316003 V 30.629099 c 0,-3.477517 -2.850446,-6.316003 -6.375997,-6.316003 h -2.175339 v -2.169733 c 0,-2.377789 -1.950305,-4.309743 -4.35068,-4.309743 -2.400375,0 -4.35068,1.931954 -4.35068,4.309743 v 2.169733 H 17.772621 v -2.169733 c 0,-2.377789 -1.950305,-4.309743 -4.35068,-4.309743 -2.400375,0 -4.35068,1.931954 -4.35068,4.309743 v 2.169733 H 8.5611814 c -3.5105485,0 -6.3759962,2.838486 -6.3759962,6.316003 v 22.336358 c 0,3.477517 2.8654477,6.316003 6.3759962,6.316003 h 5.2508206 l -2.775433,4.57197 H 4.3005157 C 2.485232,63.85343 1,64.824682 1,66.622885 v 3.863907 c 0,1.798204 1.485232,3.269461 3.3005157,3.269461 h 3.1654946 c 0.5700891,4.057103 4.0956407,7.207674 8.3563057,7.207674 4.245663,0 7.771214,-3.13571 8.341303,-7.207674 h 8.581341 c 0.57009,4.057103 4.09564,7.207674 8.356306,7.207674 4.245663,0 7.771214,-3.13571 8.341303,-7.207674 h 21.453352 c 0.57009,4.057103 4.09564,7.207674 8.356306,7.207674 4.245664,0 7.771215,-3.13571 8.341303,-7.207674 h 6.105955 C 95.514768,73.756253 97,72.284996 97,70.486792 v -8.470874 c -0.015,-2.76418 -1.500234,-5.335165 -3.90061,-6.732116 z m 1.47561,9.035599 h -2.030696 c -0.570089,0 -1.035162,-0.460696 -1.035162,-1.025421 0,-0.564725 0.465073,-1.025422 1.035162,-1.025422 H 94.575 Z m -14.983282,-24.714147 2.055322,7.177951 -14.691079,-0.04458 0.04501,-7.133368 z M 41.091,22.143363 c 0,-0.787643 1.645521,-2.426363 2.440646,-2.426363 0.795123,0 2.440354,1.63872 2.440354,2.426363 v 2.169733 h -4.881 z m -30.109,0 c 0,-0.787643 1.644817,-2.426363 2.439941,-2.426363 0.795124,0 2.440059,1.63872 2.440059,2.426363 v 2.169733 h -4.88 z M 4.0952292,52.965457 V 30.629099 c 0,-1.88737 1.5452415,-4.033099 3.4655416,-4.033099 H 51.072229 c 1.905299,0 3.465542,2.145729 3.465542,4.033099 v 22.336358 c 0,1.887371 -1.560243,3.932543 -3.465542,3.932543 H 7.5607708 c -1.9203,0 -3.4655416,-2.045172 -3.4655416,-3.932543 z M 16.807216,59.28146 h 25.004569 l 2.76043,4.57197 H 14.046784 Z M 7.5560244,70.873183 H 3.3000305 c -0.2100328,0 -0.390061,-0.178334 -0.390061,-0.386391 v -3.863907 c 0,-0.208057 0.1800282,-0.386391 0.390061,-0.386391 h 7.0614325 c -1.3952183,1.174034 -2.4153777,2.793903 -2.8054386,4.636689 z m 8.2662916,7.207674 c -3.045475,0 -5.535865,-2.466956 -5.535865,-5.483776 0,-3.016821 2.49039,-5.483777 5.535865,-5.483777 3.045476,0 5.520863,2.466956 5.520863,5.483777 0,3.031681 -2.475387,5.483776 -5.520863,5.483776 z m 17.012659,-7.207674 h -8.76137 c -0.390061,-1.842786 -1.395218,-3.462655 -2.805438,-4.65155 H 35.62541 c -1.395218,1.188895 -2.400374,2.808764 -2.790435,4.65155 z m 8.251288,7.207674 c -3.045476,0 -5.535864,-2.466956 -5.535864,-5.483776 0,-3.016821 2.490388,-5.483777 5.535864,-5.483777 3.045476,0 5.520864,2.466956 5.520864,5.483777 0,3.031681 -2.475388,5.483776 -5.520864,5.483776 z m 5.460853,-11.859224 h 12.526958 v 4.65155 h -9.736521 c -0.390061,-1.842786 -1.395218,-3.462655 -2.790437,-4.65155 z m 32.690109,11.859224 c -3.045476,0 -5.535865,-2.466956 -5.535865,-5.483776 0,-3.016821 2.490389,-5.483777 5.535865,-5.483777 3.045476,0 5.520862,2.466956 5.520862,5.483777 0,3.031681 -2.475386,5.483776 -5.520862,5.483776 z m 15.446851,-7.207674 h -7.195562 c -0.795124,-3.789601 -4.200657,-6.642949 -8.251289,-6.642949 -4.065636,0 -7.456166,2.853348 -8.266292,6.642949 H 60.985028 V 33.883698 c 0,-0.208057 0.180028,-0.386391 0.390062,-0.386391 h 12.72577 c 2.085326,0 3.930615,1.307784 4.650727,3.224877 H 68.015471 c -1.635255,0 -2.955462,1.322645 -2.955462,2.927653 v 7.088785 c 0,1.619869 1.335209,2.927653 2.955462,2.927653 h 14.456698 l 0.600093,2.080565 c 0.105017,0.356669 0.345054,0.668754 0.660104,0.847088 l 8.89639,5.15683 c 0.690107,0.401252 1.260197,0.965977 1.680263,1.634731 h -0.750118 c -2.17534,0 -3.945616,1.753619 -3.945616,3.908491 0,2.154871 1.770276,3.908491 3.945616,3.908491 h 1.530239 v 3.284321 c -0.015,0.208057 -0.195031,0.386391 -0.405064,0.386391 z"
     id="path1"
     style="stroke-width:1;stroke-dasharray:none"
     sodipodi:nodetypes="cccssscccsssscsssccssscssssccsssscsccsccscsscccssscccccccsssccssssccssssssssssccccccssssccssssscccccssssscccccsssssscsccssscsssscccccsssccs" /><path
     d="m 14.922175,29.796873 h -2.985466 c -1.305204,0 -2.355368,1.040282 -2.355368,2.333205 v 19.3344 c 0,1.292923 1.050164,2.333206 2.355368,2.333206 h 2.985466 c 1.305204,0 2.355369,-1.040283 2.355369,-2.333206 v -19.3344 c -0.015,-1.292923 -1.065167,-2.333205 -2.355369,-2.333205 z M 15.367,50.914614 H 11.492 V 32.679942 h 3.875 z"
     id="path2"
     style="stroke-width:1;stroke-dasharray:none"
     sodipodi:nodetypes="ssssssscsccccc" /><path
     d="m 25.498828,29.796873 h -2.985467 c -1.305204,0 -2.355368,1.040282 -2.355368,2.333205 v 19.3344 c 0,1.292923 1.050164,2.333206 2.355368,2.333206 h 2.985467 c 1.305204,0 2.355368,-1.040283 2.355368,-2.333206 v -19.3344 c 0,-1.292923 -1.050164,-2.333205 -2.355368,-2.333205 z M 25.944,50.914614 H 22.068 V 32.679942 h 3.876 z"
     id="path3"
     style="stroke-width:1;stroke-dasharray:none"
     sodipodi:nodetypes="sssssssssccccc" /><path
     d="m 36.090483,29.796873 h -2.985467 c -1.305204,0 -2.355368,1.040282 -2.355368,2.333205 v 19.3344 c 0,1.292923 1.050164,2.333206 2.355368,2.333206 h 2.985467 c 1.305204,0 2.355368,-1.040283 2.355368,-2.333206 v -19.3344 c 0,-1.292923 -1.050164,-2.333205 -2.355368,-2.333205 z M 36.535,50.914614 H 32.66 V 32.679942 h 3.875 z"
     id="path4"
     style="stroke-width:1;stroke-dasharray:none"
     sodipodi:nodetypes="sssssssssccccc" /><path
     d="m 46.682138,29.796873 h -2.985467 c -1.305204,0 -2.355367,1.040282 -2.355367,2.333205 v 19.3344 c 0,1.292923 1.050163,2.333206 2.355367,2.333206 h 2.985467 c 1.305204,0 2.355368,-1.040283 2.355368,-2.333206 v -19.3344 c 0,-1.292923 -1.065166,-2.333205 -2.355368,-2.333205 z M 47.127,50.914614 H 43.252 V 32.679942 h 3.875 z"
     id="path5"
     style="stroke-width:1;stroke-dasharray:none"
     sodipodi:nodetypes="sssssssssccccc" /><path
     d="m 15.893894,70.667142 c -1.022434,0 -1.853575,0.82332 -1.853575,1.836135 0,1.012814 0.831141,1.836134 1.853575,1.836134 1.022435,0 1.853576,-0.82332 1.853576,-1.836134 0,-1.012815 -0.831141,-1.836135 -1.853576,-1.836135 z m 0,2.404617 c -0.316624,0 -0.573882,-0.254837 -0.573882,-0.568482 0,-0.313646 0.257258,-0.568483 0.573882,-0.568483 0.316625,0 0.573883,0.254837 0.573883,0.568483 0,0.313645 -0.257258,0.568482 -0.573883,0.568482 z"
     id="path8"
     style="stroke-width:0.439688;stroke-dasharray:none" /><path
     d="m 41.173427,70.684895 c -1.022434,0 -1.853575,0.82332 -1.853575,1.836135 0,1.012814 0.831141,1.836134 1.853575,1.836134 1.022435,0 1.853576,-0.82332 1.853576,-1.836134 0,-1.012815 -0.831141,-1.836135 -1.853576,-1.836135 z m 0,2.404617 c -0.316624,0 -0.573882,-0.254837 -0.573882,-0.568482 0,-0.313646 0.257258,-0.568483 0.573882,-0.568483 0.316625,0 0.573883,0.254837 0.573883,0.568483 0,0.313645 -0.257258,0.568482 -0.573883,0.568482 z"
     id="path8-8"
     style="stroke-width:0.439688;stroke-dasharray:none" /><path
     d="m 79.394295,70.667 c -1.022434,0 -1.853575,0.82332 -1.853575,1.836135 0,1.012814 0.831141,1.836134 1.853575,1.836134 1.022435,0 1.853576,-0.82332 1.853576,-1.836134 0,-1.012815 -0.831141,-1.836135 -1.853576,-1.836135 z m 0,2.404617 c -0.316624,0 -0.573882,-0.254837 -0.573882,-0.568482 0,-0.313646 0.257258,-0.568483 0.573882,-0.568483 0.316625,0 0.573883,0.254837 0.573883,0.568483 0,0.313645 -0.257258,0.568482 -0.573883,0.568482 z"
     id="path8-82"
     style="stroke-width:0.439688;stroke-dasharray:none" /><path
     d="m 71.195968,51.226699 h -2.760431 c -0.810127,0 -1.455228,0.639031 -1.455228,1.441535 0,0.802504 0.645101,1.441534 1.455228,1.441534 h 2.760431 c 0.810127,0 1.455227,-0.63903 1.455227,-1.441534 0,-0.787643 -0.660102,-1.441535 -1.455227,-1.441535 z"
     id="path9"
     style="stroke-width:1;stroke-dasharray:none" /><rect
     x="14.723926"
     y="93.159599"
     width="3"
     height="2"
     id="rect6" /><rect
     x="20.723927"
     y="93.159599"
     width="3"
     height="2"
     id="rect7" /><rect
     x="32.723927"
     y="93.159599"
     width="3"
     height="2"
     id="rect8" /><rect
     x="26.723927"
     y="93.159599"
     width="3"
     height="2"
     id="rect9" /><rect
     x="38.723927"
     y="93.159599"
     width="3"
     height="2"
     id="rect10" /><rect
     x="14.723926"
     y="88.142998"
     width="27.7754"
     height="2"
     id="rect11" /><rect
     x="1.0736184"
     y="81.372971"
     width="10.1152"
     height="2"
     id="rect18" /><rect
     x="84.165596"
     y="81.373001"
     width="10.1152"
     height="2"
     id="rect18-4" /><rect
     x="20.166479"
     y="7.3496933"
     width="10.1152"
     height="2"
     id="rect21" /><rect
     x="81.429466"
     y="6.6864371"
     width="3"
     height="2"
     id="rect26" /><rect
     x="75.429466"
     y="6.6864371"
     width="3"
     height="2"
     id="rect27" /><rect
     x="65.469299"
     y="93.159256"
     width="3"
     height="2"
     id="rect12" /><rect
     x="59.469296"
     y="93.159256"
     width="3"
     height="2"
     id="rect13" /><rect
     x="77.469299"
     y="93.159256"
     width="3"
     height="2"
     id="rect14" /><rect
     x="71.469299"
     y="93.159256"
     width="3"
     height="2"
     id="rect15" /><rect
     x="83.469299"
     y="93.159256"
     width="3"
     height="2"
     id="rect16" /><rect
     x="59.469296"
     y="88.143158"
     width="27.7749"
     height="2"
     id="rect17" /><rect
     x="30.748466"
     y="13.969325"
     width="10.1152"
     height="2"
     id="rect25" /><rect
     x="62.761898"
     y="22.715782"
     width="10.1152"
     height="2"
     id="rect25-4" /></svg>
