<?xml version="1.0" encoding="UTF-8" standalone="no"?>
<svg
   version="1.1"
   x="0px"
   y="0px"
   viewBox="0 0 98 98"
   enable-background="new 0 0 98 98"
   xml:space="preserve"
   id="svg22"
   sodipodi:docname="noun-csr-2193052.svg"
   width="98"
   height="98"
   inkscape:version="1.4 (86a8ad7, 2024-10-11)"
   xmlns:inkscape="http://www.inkscape.org/namespaces/inkscape"
   xmlns:sodipodi="http://sodipodi.sourceforge.net/DTD/sodipodi-0.dtd"
   xmlns="http://www.w3.org/2000/svg"
   xmlns:svg="http://www.w3.org/2000/svg"><defs
     id="defs22" /><sodipodi:namedview
     id="namedview22"
     pagecolor="#ffffff"
     bordercolor="#999999"
     borderopacity="1"
     inkscape:showpageshadow="2"
     inkscape:pageopacity="0"
     inkscape:pagecheckerboard="0"
     inkscape:deskcolor="#d1d1d1"
     inkscape:zoom="6.6530612"
     inkscape:cx="49"
     inkscape:cy="61.25"
     inkscape:window-width="1920"
     inkscape:window-height="1017"
     inkscape:window-x="-8"
     inkscape:window-y="-8"
     inkscape:window-maximized="1"
     inkscape:current-layer="svg22" /><g
     id="g21"><path
       d="m 83.8375,95.0001 c 2.5356,-1.8672 4.1908,-4.8635 4.1908,-8.2466 v -1 H 80.4472 V 55.0611 c 0,-3.0156 -1.8713,-5.5981 -4.5117,-6.6597 v -0.3037 c 0,-4.7764 -3.8862,-8.6626 -8.6631,-8.6626 H 54.3311 l -3.7669,8.4468 H 47.4354 L 43.669,39.4351 H 30.7271 c -4.7764,0 -8.6626,3.8862 -8.6626,8.6626 v 0.3042 c -2.6396,1.062 -4.5103,3.6443 -4.5103,6.6592 v 30.6924 h -7.583 v 1 c 0,3.3831 1.6568,6.3794 4.1948,8.2466 H 2 v 2 H 20.228 77.7812 96 v -2 z M 55.6289,41.4351 h 11.6436 c 3.6122,0 6.5559,2.8911 6.6538,6.48 -0.2171,-0.0198 -0.436,-0.0332 -0.6582,-0.0332 H 52.7536 Z m -24.9018,0 h 11.644 l 2.8749,6.4468 H 24.7334 c -0.2227,0 -0.4421,0.0134 -0.6597,0.0334 0.0979,-3.5891 3.0411,-6.4802 6.6534,-6.4802 z m -11.1729,13.626 c 0,-2.856 2.3232,-5.1792 5.1792,-5.1792 h 48.5347 c 2.856,0 5.1792,2.3232 5.1792,5.1792 V 85.751 H 19.5542 Z m 0.6738,39.939 c -2.3785,0 -4.5248,-1.0103 -6.0328,-2.623 h 15.9376 v -2 H 12.82 c -0.3989,-0.8103 -0.675,-1.6914 -0.7883,-2.6235 h 73.9365 c -0.4951,4.0776 -3.978,7.2466 -8.187,7.2466 H 20.228 Z"
       id="path1" /><path
       d="m 35.4019,30.7212 h 1 V 16.4566 C 35.7028,16.4867 34.8223,16.347 33.4651,16.731 34.4156,9.0293 41.0783,3 48.9981,3 57.058,3 63.615,9.0334 64.5425,16.7329 63.1831,16.3464 62.2978,16.4867 61.5982,16.4565 v 13.0527 c -0.3737,0.7847 -2.3469,4.4224 -7.1852,5.3215 -0.1359,-0.3577 -0.3412,-0.6907 -0.6093,-0.989 3.4327,-2.5496 5.6092,-7.312 6.0682,-11.4214 l 0.0383,-0.0142 c -0.004,-0.0107 -0.0166,-0.0435 -0.0292,-0.0759 0.0537,-0.5078 0.0887,-1.0083 0.0887,-1.4895 C 59.9697,14.5132 55.3564,9.921 49,9.921 c -6.3564,0 -10.9702,4.5923 -10.9702,10.9199 0,6.1113 4.1807,13.4885 9.5887,14.5847 0.0046,1.5726 1.3039,2.8005 2.8664,3.1311 1.7304,0.3676 3.3272,-0.4072 3.8997,-1.7056 5.5378,-0.8535 8.0722,-4.6707 8.8583,-6.1626 3.6312,-0.3274 6.4875,-3.3848 6.4875,-7.0996 0,-2.4426 -1.2357,-4.6011 -3.1135,-5.8872 C 66.1357,8.3575 58.4405,1.0001 48.998,1.0001 c -9.34,0 -17.1107,7.4404 -17.6057,16.6943 -1.8835,1.2852 -3.1233,3.4475 -3.1233,5.8945 0,3.9326 3.1998,7.1323 7.1329,7.1323 z M 49,11.921 c 4.3653,0 7.7157,2.6519 8.6796,6.5615 -0.9361,-1.178 -2.1537,-2.2571 -3.6469,-2.6255 -4.5197,-1.1194 -5.6131,4.037 -9.7856,3.5298 -1.7206,-0.207 -2.9961,-1.4529 -3.5536,-2.1001 1.3,-3.2466 4.4004,-5.3657 8.3065,-5.3657 z m -8.9702,8.9199 c 0,-0.4453 0.0378,-0.8755 0.0923,-1.2983 0.9026,0.7871 2.2145,1.623 3.8652,1.8276 5.1061,0.6312 6.4664,-4.3401 9.5635,-3.5723 2.0245,0.4976 3.6322,3.3252 4.2916,4.835 -0.5692,4.1262 -2.9943,8.3179 -5.9379,10.0762 -1.4254,-0.3616 -2.6946,0.0312 -3.483,0.811 -4.5657,-0.5264 -8.3917,-7.2202 -8.3917,-12.6792 z m 12.5669,15.081 c -0.1099,0.5161 -0.9053,0.8452 -1.6973,0.6782 -0.6495,-0.137 -1.4061,-0.6896 -1.2759,-1.3076 0.1284,-0.6043 1.0051,-0.824 1.6968,-0.6787 0.792,0.168 1.3882,0.7793 1.2764,1.3081 z m 15.1338,-12.333 c 0,2.4878 -1.7793,4.5679 -4.1323,5.0347 V 18.5543 c 2.353,0.4667 4.1323,2.5468 4.1323,5.0346 z M 34.4019,18.5543 v 10.0693 c -2.3535,-0.4668 -4.1328,-2.5469 -4.1328,-5.0347 0,-2.4878 1.7792,-4.5679 4.1328,-5.0346 z"
       id="path2" /><rect
       x="30.132799"
       y="81.161697"
       width="2.3559999"
       height="2"
       id="rect2" /><polygon
       points="27.7769,83.1617 27.7769,81.1617 24.0645,81.1617 24.0645,74.4004 22.0645,74.4004 22.0645,83.1617 "
       id="polygon2" /><rect
       x="12.7329"
       y="67.816498"
       width="2"
       height="15.0811"
       id="rect3" /><rect
       x="12.7329"
       y="59.599701"
       width="2"
       height="3.8715999"
       id="rect4" /><path
       d="m 59.5854,62.6587 1.6235,-2.4873 -4.0586,-4.062 -2.4897,1.626 C 54.1235,57.46 53.5629,57.2276 52.9848,57.0411 l -0.6113,-2.9082 h -5.7432 l -0.6084,2.9067 c -0.5742,0.1846 -1.1348,0.4175 -1.6768,0.6958 l -2.4878,-1.6265 -4.0591,4.0625 1.623,2.4868 c -0.2764,0.5376 -0.5088,1.0981 -0.6953,1.6758 l -2.9072,0.6118 v 5.7417 l 2.9077,0.6118 c 0.186,0.5771 0.4185,1.1377 0.6948,1.6753 l -1.623,2.4868 4.0591,4.0625 2.4873,-1.6265 c 0.5415,0.2783 1.1025,0.5112 1.6772,0.6958 l 0.6084,2.9072 h 5.7432 l 0.6113,-2.9082 c 0.5786,-0.1865 1.1387,-0.4189 1.6758,-0.6943 l 2.4897,1.6255 4.0591,-4.062 -1.624,-2.4858 c 0.2778,-0.5425 0.5098,-1.103 0.6943,-1.6768 l 2.9063,-0.6113 v -5.7417 l -2.9063,-0.6113 c -0.1844,-0.5742 -0.4163,-1.1347 -0.6942,-1.6758 z m 1.6006,6.4058 -2.5117,0.5283 -0.1558,0.6001 c -0.2085,0.8062 -0.5322,1.5884 -0.9614,2.3252 l -0.311,0.5332 1.4009,2.1445 -1.7632,1.7651 -2.1509,-1.4048 -0.5347,0.314 c -0.7212,0.4243 -1.5024,0.748 -2.3228,0.9634 l -0.5977,0.1567 -0.5273,2.5103 H 48.2553 L 47.7294,76.9883 47.1288,76.8325 C 46.3202,76.623 45.5385,76.2993 44.8051,75.8696 l -0.5342,-0.313 -2.1479,1.4038 -1.7632,-1.7646 1.4028,-2.1494 -0.314,-0.5342 c -0.4253,-0.7231 -0.7495,-1.5044 -0.9634,-2.3218 l -0.1563,-0.5977 -2.5103,-0.5283 v -2.4956 l 2.5103,-0.5283 0.1563,-0.5977 c 0.2143,-0.8184 0.5381,-1.5996 0.9634,-2.3223 l 0.314,-0.5342 -1.4028,-2.1494 1.7632,-1.7646 2.1479,1.4038 0.5342,-0.313 c 0.7344,-0.4297 1.5161,-0.7539 2.3237,-0.9629 l 0.6006,-0.1558 0.5259,-2.5117 h 2.4951 l 0.5273,2.5093 0.5972,0.1572 c 0.8203,0.2158 1.6021,0.5396 2.3237,0.9634 l 0.5342,0.314 2.1509,-1.4048 1.7637,1.7651 -1.4019,2.1479 0.312,0.5337 c 0.4287,0.7324 0.752,1.5137 0.9609,2.3218 l 0.1558,0.6001 2.5117,0.5283 v 2.4958 z"
       id="path4" /><path
       d="m 49.5024,61.0919 c -0.6167,0 -1.229,0.084 -1.8193,0.2495 l 0.54,1.9258 c 0.4146,-0.1162 0.8452,-0.1753 1.2793,-0.1753 2.605,0 4.7246,2.1196 4.7246,4.7246 0,2.605 -2.1196,4.7246 -4.7246,4.7246 -2.605,0 -4.7246,-2.1196 -4.7246,-4.7246 0,-1.3794 0.6011,-2.687 1.6494,-3.5869 L 45.1245,62.712 c -1.4912,1.2808 -2.3467,3.1411 -2.3467,5.1045 0,3.708 3.0166,6.7246 6.7246,6.7246 3.708,0 6.7246,-3.0166 6.7246,-6.7246 0,-3.708 -3.0166,-6.7246 -6.7246,-6.7246 z"
       id="path5" /><rect
       x="3.8843"
       y="9.1386995"
       width="19.6973"
       height="2"
       id="rect5" /><rect
       x="3.8843"
       y="14.6846"
       width="2"
       height="2"
       id="rect6" /><rect
       x="15.8843"
       y="14.6846"
       width="2"
       height="2"
       id="rect7" /><rect
       x="7.8843002"
       y="14.6846"
       width="2"
       height="2"
       id="rect8" /><rect
       x="19.8843"
       y="14.6846"
       width="2"
       height="2"
       id="rect9" /><rect
       x="11.8843"
       y="14.6846"
       width="2"
       height="2"
       id="rect10" /><rect
       x="75.663597"
       y="17.949301"
       width="19.6973"
       height="2"
       id="rect11" /><rect
       x="91.663597"
       y="23.495199"
       width="2"
       height="2"
       id="rect12" /><rect
       x="79.663597"
       y="23.495199"
       width="2"
       height="2"
       id="rect13" /><rect
       x="83.663597"
       y="23.495199"
       width="2"
       height="2"
       id="rect14" /><rect
       x="75.663597"
       y="23.495199"
       width="2"
       height="2"
       id="rect15" /><rect
       x="87.663597"
       y="23.495199"
       width="2"
       height="2"
       id="rect16" /><rect
       x="34.924801"
       y="90.376999"
       width="6.3485999"
       height="2"
       id="rect17" /><rect
       x="82.876503"
       y="64.228104"
       width="2"
       height="17.933599"
       id="rect18" /><rect
       x="82.876503"
       y="55.1329"
       width="2"
       height="4.4668002"
       id="rect19" /><rect
       x="4.8867002"
       y="37.931198"
       width="8.8462"
       height="2"
       id="rect20" /><rect
       x="81.088898"
       y="42.2388"
       width="8.8462"
       height="2"
       id="rect21" /></g><text
     x="0"
     y="113"
     fill="#000000"
     font-size="5px"
     font-weight="bold"
     font-family="'Helvetica Neue', Helvetica, Arial-Unicode, Arial, Sans-serif"
     id="text21">Created by ProSymbols</text><text
     x="0"
     y="118"
     fill="#000000"
     font-size="5px"
     font-weight="bold"
     font-family="'Helvetica Neue', Helvetica, Arial-Unicode, Arial, Sans-serif"
     id="text22">from the Noun Project</text></svg>
