<svg width="41" height="42" viewBox="0 0 41 42" fill="none" xmlns="http://www.w3.org/2000/svg">
<path d="M22.5064 0.794478L24.7345 2.42086C25.4413 2.93682 26.2931 3.21536 27.1673 3.21536H29.9199C31.7128 3.21536 33.3029 4.37626 33.8572 6.09051L34.7071 8.72264C34.9768 9.55826 35.5032 10.2873 36.2118 10.8033L38.4399 12.4297C39.8906 13.4896 40.4988 15.3665 39.9445 17.0826L39.0946 19.7148C38.8249 20.5504 38.8249 21.4514 39.0946 22.2871L39.9445 24.9192C40.4988 26.6334 39.8925 28.5122 38.4399 29.5722L36.2118 31.1985C35.505 31.7145 34.9787 32.4436 34.7071 33.2792L33.8572 35.9113C33.3029 37.6256 31.7128 38.7865 29.9199 38.7865H27.1673C26.2931 38.7865 25.4413 39.065 24.7345 39.581L22.5064 41.2073C21.0557 42.2673 19.0917 42.2673 17.6392 41.2073L15.411 39.581C14.7043 39.065 13.8525 38.7865 12.9783 38.7865H10.2257C8.43283 38.7865 6.84264 37.6256 6.2884 35.9113L5.43844 33.2792C5.16876 32.4436 4.64242 31.7145 3.93381 31.1985L1.70569 29.5722C0.254998 28.5122 -0.353178 26.6353 0.201062 24.9192L1.05102 22.2871C1.3207 21.4514 1.3207 20.5504 1.05102 19.7148L0.201062 17.0826C-0.353178 15.3684 0.253138 13.4896 1.70569 12.4297L3.93381 10.8033C4.64056 10.2873 5.1669 9.55826 5.43844 8.72264L6.2884 6.09051C6.84264 4.37626 8.43283 3.21536 10.2257 3.21536H12.9783C13.8525 3.21536 14.7043 2.93682 15.411 2.42086L17.6392 0.794478C19.0899 -0.265477 21.0539 -0.265477 22.5064 0.794478Z" fill="#6695FF"/>
<path d="M20.0733 9.34521L23.4304 16.1816L30.9368 17.279L25.506 22.6012L26.7875 30.1162L20.0733 26.5681L13.3592 30.1162L14.6407 22.6012L9.20801 17.279L16.7163 16.1816L20.0733 9.34521Z" fill="white"/>
</svg>
