<?xml version="1.0" encoding="UTF-8" standalone="no"?>
<svg
   version="1.1"
   x="0px"
   y="0px"
   viewBox="0 0 98 98"
   enable-background="new 0 0 98 98"
   xml:space="preserve"
   id="svg32"
   sodipodi:docname="noun-manager-2193096.svg"
   width="98"
   height="98"
   inkscape:version="1.4 (86a8ad7, 2024-10-11)"
   xmlns:inkscape="http://www.inkscape.org/namespaces/inkscape"
   xmlns:sodipodi="http://sodipodi.sourceforge.net/DTD/sodipodi-0.dtd"
   xmlns="http://www.w3.org/2000/svg"
   xmlns:svg="http://www.w3.org/2000/svg"><defs
     id="defs32" /><sodipodi:namedview
     id="namedview32"
     pagecolor="#ffffff"
     bordercolor="#999999"
     borderopacity="1"
     inkscape:showpageshadow="2"
     inkscape:pageopacity="0"
     inkscape:pagecheckerboard="0"
     inkscape:deskcolor="#d1d1d1"
     inkscape:zoom="6.6530612"
     inkscape:cx="49"
     inkscape:cy="61.25"
     inkscape:window-width="1920"
     inkscape:window-height="1017"
     inkscape:window-x="-8"
     inkscape:window-y="-8"
     inkscape:window-maximized="1"
     inkscape:current-layer="svg32" /><g
     id="g31"><path
       d="M 90.186,25.8204 H 66.3345 c -3.7568,0 -6.8135,3.0566 -6.8135,6.814 V 45.2892 H 97 V 32.6343 C 97,28.877 93.9434,25.8204 90.186,25.8204 Z M 95,43.2891 h -7.0366 v -6.4365 h -2 v 6.4365 H 70.5571 v -6.4365 h -2 v 6.4365 H 61.521 V 32.6343 c 0,-2.6543 2.1592,-4.814 4.8135,-4.814 H 90.186 c 2.6543,0 4.814,2.1597 4.814,4.814 z"
       id="path1" /><path
       d="m 34.1646,23.4334 0.6309,1.1624 c 0.8496,-0.4614 1.7295,-0.8867 2.6152,-1.2646 l -0.7852,-1.8398 c -0.8323,0.3556 -1.6563,0.7554 -2.4609,1.1809 V 7.5884 H 12.1948 L 1,18.7833 V 46.0528 H 34.1646 Z M 11.6089,11.0025 v 7.1948 H 4.4141 Z M 32.1646,44.0528 H 3 V 20.1973 H 13.6089 V 9.5884 h 18.5557 z"
       id="path2" /><rect
       x="24.5278"
       y="37.751499"
       width="3.4263"
       height="2"
       id="rect2" /><rect
       x="12.8677"
       y="37.751499"
       width="9.9883003"
       height="2"
       id="rect3" /><rect
       x="7.21"
       y="37.751499"
       width="4.1210999"
       height="2"
       id="rect4" /><rect
       x="24.2568"
       y="31.7861"
       width="3.6973"
       height="2"
       id="rect5" /><rect
       x="12.8677"
       y="31.7861"
       width="9.7167997"
       height="2"
       id="rect6" /><rect
       x="7.21"
       y="31.7861"
       width="4.4829001"
       height="2"
       id="rect7" /><rect
       x="24.706499"
       y="25.820299"
       width="3.2476001"
       height="2"
       id="rect8" /><rect
       x="12.0542"
       y="25.820299"
       width="10.5303"
       height="2"
       id="rect9" /><rect
       x="7.21"
       y="25.820299"
       width="3.3984001"
       height="2"
       id="rect10" /><rect
       x="20.143999"
       y="19.855"
       width="7.8101001"
       height="2"
       id="rect11" /><rect
       x="16.0112"
       y="19.855"
       width="2.2349"
       height="2"
       id="rect12" /><rect
       x="25.789101"
       y="13.8892"
       width="2.165"
       height="2"
       id="rect13" /><rect
       x="16.0112"
       y="13.8892"
       width="7.6128001"
       height="2"
       id="rect14" /><path
       d="m 78.2603,20.857 c 5.3501,0 9.7031,-4.353 9.7031,-9.7031 0,-5.3501 -4.353,-9.7031 -9.7031,-9.7031 -5.3501,0 -9.7031,4.353 -9.7031,9.7031 0,5.3501 4.353,9.7031 9.7031,9.7031 z m 0,-17.4063 c 4.2476,0 7.7031,3.4556 7.7031,7.7031 0,4.2475 -3.4556,7.7031 -7.7031,7.7031 -4.2475,0 -7.7031,-3.4556 -7.7031,-7.7031 0,-4.2475 3.4555,-7.7031 7.7031,-7.7031 z"
       id="path14" /><path
       d="m 67.2612,62.4356 2.9048,-4.4512 -6.5425,-6.5488 -4.4561,2.9097 c -1.228,-0.6699 -2.5293,-1.2095 -3.8828,-1.6104 l -1.0942,-5.2031 h -9.2573 l -1.0898,5.2017 c -1.3418,0.3945 -2.6445,0.9351 -3.8862,1.6118 l -4.4521,-2.9102 -6.5425,6.5493 2.9043,4.4502 c -0.6714,1.2305 -1.2114,2.5322 -1.6108,3.8833 l -5.2026,1.0942 v 9.2568 l 5.2026,1.0942 c 0.3994,1.3511 0.9395,2.6528 1.6108,3.8833 l -2.9043,4.4502 6.5425,6.5488 4.4521,-2.9097 c 1.2422,0.6768 2.5449,1.2173 3.8862,1.6113 l 1.0894,5.2021 h 9.2578 l 1.0942,-5.2036 c 1.354,-0.4009 2.6558,-0.9404 3.8828,-1.6099 l 4.4561,2.9092 6.543,-6.5483 -2.9058,-4.4478 c 0.6758,-1.2451 1.2148,-2.5474 1.6079,-3.8857 l 5.2017,-1.0942 V 67.412 l -5.2012,-1.0942 c -0.3936,-1.3392 -0.9327,-2.6405 -1.608,-3.8822 z m 4.8091,12.6104 -4.8154,1.0127 -0.1558,0.6001 c -0.4067,1.5703 -1.0361,3.0928 -1.8711,4.5259 l -0.311,0.5332 2.687,4.1133 -4.2471,4.2515 -4.1245,-2.6929 -0.5347,0.314 c -1.4028,0.8247 -2.9238,1.4556 -4.5205,1.875 l -0.5977,0.1572 -1.0122,4.8135 h -6.0098 l -1.0088,-4.8159 -0.6006,-0.1558 c -1.5747,-0.4077 -3.0967,-1.0386 -4.5234,-1.8745 l -0.5342,-0.313 -4.1191,2.6919 -4.2476,-4.251 2.689,-4.1206 -0.314,-0.5342 c -0.8276,-1.4077 -1.4585,-2.9287 -1.8755,-4.52 l -0.1567,-0.5981 -4.8135,-1.0122 v -6.0107 l 4.8135,-1.0122 0.1567,-0.5981 c 0.417,-1.5913 1.0479,-3.1118 1.8755,-4.52 l 0.314,-0.5342 -2.689,-4.1206 4.2476,-4.2515 4.1191,2.6924 0.5342,-0.313 c 1.4268,-0.8359 2.9482,-1.4668 4.5234,-1.8755 l 0.6006,-0.1558 1.0083,-4.8149 h 6.0103 l 1.0122,4.813 0.5977,0.1572 c 1.5957,0.4189 3.1167,1.0503 4.5205,1.8755 l 0.5347,0.314 4.1245,-2.6934 4.2476,4.252 -2.688,4.1191 0.312,0.5337 c 0.834,1.4263 1.4634,2.9468 1.8706,4.5195 l 0.1558,0.6001 4.8154,1.0127 z"
       id="path15" /><path
       d="m 49.562,59.6553 c -1.8198,0 -3.5732,0.3857 -5.2109,1.1465 l 0.8428,1.8135 c 1.3716,-0.6367 2.8413,-0.96 4.3682,-0.96 5.7266,0 10.3853,4.6587 10.3853,10.3853 0,5.7266 -4.6588,10.3852 -10.3854,10.3852 -5.7266,0 -10.3857,-4.6587 -10.3857,-10.3853 0,-2.2671 0.7173,-4.4209 2.0747,-6.2285 l -1.5996,-1.2012 c -1.6191,2.1572 -2.4751,4.7261 -2.4751,7.4297 0,6.8291 5.5562,12.3853 12.3857,12.3853 6.8291,0 12.3853,-5.5562 12.3853,-12.3853 0,-6.8291 -5.5562,-12.3852 -12.3853,-12.3852 z"
       id="path16" /><path
       d="m 54.8101,19.273 c -1.0142,-0.1626 -2.0483,-0.2783 -3.0737,-0.3452 l -0.1299,1.9961 c 0.9634,0.0625 1.9351,0.1714 2.8882,0.3237 z"
       id="path17" /><path
       d="m 42.9375,21.5665 -0.4248,-1.9541 c -1.0039,0.2183 -2.0093,0.4873 -2.9883,0.7998 l 0.6084,1.9053 c 0.919,-0.2935 1.8628,-0.546 2.8047,-0.751 z"
       id="path18" /><path
       d="m 66.3799,23.462 c -0.8823,-0.5239 -1.8013,-1.0127 -2.7305,-1.4526 l -0.8555,1.8076 c 0.873,0.4131 1.7358,0.8726 2.5645,1.3647 z"
       id="path19" /><path
       d="m 60.7935,20.8194 c -0.9648,-0.3496 -1.959,-0.6572 -2.9546,-0.915 l -0.501,1.9365 c 0.9346,0.2417 1.8682,0.5308 2.7749,0.8594 z"
       id="path20" /><path
       d="m 48.6997,20.8687 -0.0547,-1.999 c -1.0313,0.0283 -2.0688,0.105 -3.0835,0.228 l 0.2402,1.9854 c 0.9537,-0.1153 1.9288,-0.1875 2.898,-0.2144 z"
       id="path21" /><path
       d="m 20.0811,66.6353 c 0.4619,0.918 0.9727,1.8242 1.5181,2.6948 l 1.6943,-1.0625 c -0.5122,-0.8174 -0.9917,-1.6689 -1.4253,-2.5308 z"
       id="path22" /><path
       d="m 19.7612,60.3321 -1.9238,0.5469 c 0.2813,0.9878 0.6128,1.9741 0.9858,2.9316 l 1.8633,-0.7266 c -0.3501,-0.8984 -0.6616,-1.8247 -0.9253,-2.7519 z"
       id="path23" /><path
       d="m 18.7056,54.627 -1.9922,0.1777 c 0.0918,1.0234 0.2324,2.0542 0.4189,3.063 l 1.9668,-0.3633 c -0.1753,-0.9477 -0.3076,-1.916 -0.3935,-2.8774 z"
       id="path24" /><path
       d="m 18.7266,48.8213 -1.9902,-0.1934 c -0.0991,1.0171 -0.1509,2.0562 -0.1543,3.0884 l 2,0.0068 c 0.0033,-0.9701 0.0517,-1.9462 0.1445,-2.9018 z"
       id="path25" /><path
       d="M 82.4976,50.1226 C 82.4449,49.0923 82.3433,48.0572 82.1958,47.045 l -1.9795,0.2891 c 0.1387,0.9502 0.2344,1.9229 0.2842,2.8911 z"
       id="path26" /><path
       d="m 80.2603,56.0279 1.9824,0.2676 c 0.1372,-1.0171 0.2285,-2.0537 0.2705,-3.0811 l -1.998,-0.082 c -0.0401,0.9653 -0.1256,1.9394 -0.2549,2.8955 z"
       id="path27" /><path
       d="m 76.5918,66.9849 1.7441,0.9795 c 0.5034,-0.897 0.9697,-1.8271 1.3857,-2.7656 l -1.8281,-0.8105 c -0.3911,0.8808 -0.8286,1.7548 -1.3017,2.5966 z"
       id="path28" /><path
       d="m 74.7085,69.9346 1.623,1.1689 c 0.123,-0.1709 0.2446,-0.3428 0.3647,-0.5166 l -1.644,-1.1387 c -0.1127,0.1632 -0.2275,0.3253 -0.3437,0.4864 z"
       id="path29" /><path
       d="m 78.9453,61.6793 1.8965,0.6357 c 0.3257,-0.9727 0.6094,-1.9741 0.8428,-2.9771 l -1.9482,-0.4531 c -0.2188,0.9414 -0.4854,1.8819 -0.7911,2.7945 z"
       id="path30" /><path
       d="m 54.7813,72.0406 c 0,-2.7251 -2.2173,-4.9424 -4.9429,-4.9424 -2.7251,0 -4.9424,2.2173 -4.9424,4.9424 0,2.7251 2.2173,4.9424 4.9424,4.9424 2.7256,0 4.9429,-2.2173 4.9429,-4.9424 z m -7.8853,0 c 0,-1.6226 1.3198,-2.9424 2.9424,-2.9424 1.6226,0 2.9429,1.3198 2.9429,2.9424 0,1.6226 -1.3203,2.9424 -2.9429,2.9424 -1.6226,0 -2.9424,-1.3199 -2.9424,-2.9424 z"
       id="path31" /></g><text
     x="0"
     y="113"
     fill="#000000"
     font-size="5px"
     font-weight="bold"
     font-family="'Helvetica Neue', Helvetica, Arial-Unicode, Arial, Sans-serif"
     id="text31">Created by ProSymbols</text><text
     x="0"
     y="118"
     fill="#000000"
     font-size="5px"
     font-weight="bold"
     font-family="'Helvetica Neue', Helvetica, Arial-Unicode, Arial, Sans-serif"
     id="text32">from the Noun Project</text></svg>
