<?xml version="1.0" encoding="UTF-8" standalone="no"?>
<svg
   version="1.1"
   x="0px"
   y="0px"
   viewBox="0 0 98 98"
   enable-background="new 0 0 98 98"
   xml:space="preserve"
   id="svg19"
   sodipodi:docname="modelado.svg"
   width="98"
   height="98"
   inkscape:version="1.4 (86a8ad7, 2024-10-11)"
   xmlns:inkscape="http://www.inkscape.org/namespaces/inkscape"
   xmlns:sodipodi="http://sodipodi.sourceforge.net/DTD/sodipodi-0.dtd"
   xmlns="http://www.w3.org/2000/svg"
   xmlns:svg="http://www.w3.org/2000/svg"><defs
     id="defs19" /><sodipodi:namedview
     id="namedview19"
     pagecolor="#ffffff"
     bordercolor="#999999"
     borderopacity="1"
     inkscape:showpageshadow="2"
     inkscape:pageopacity="0"
     inkscape:pagecheckerboard="0"
     inkscape:deskcolor="#d1d1d1"
     inkscape:zoom="6.6530612"
     inkscape:cx="49"
     inkscape:cy="37.65184"
     inkscape:window-width="1920"
     inkscape:window-height="1017"
     inkscape:window-x="-8"
     inkscape:window-y="-8"
     inkscape:window-maximized="1"
     inkscape:current-layer="g18" /><g
     id="g18"><path
       d="M 88.9097,1.438 H 9.0903 c -4.3164,0 -7.8281,3.5117 -7.8281,7.8281 v 61.6934 c 0,4.3164 3.5117,7.8281 7.8281,7.8281 h 28.2994 l -5.114,9.9189 h -3.4091 c -2.1655,0 -3.9272,1.7622 -3.9272,3.9277 0,0.7039 0.2011,1.3558 0.5267,1.9277 h -7.0028 v 2 h 10.4033 40.2661 22.603 v -2 h -19.202 c 0.3257,-0.572 0.5269,-1.2239 0.5269,-1.9277 0,-2.1655 -1.7622,-3.9277 -3.9277,-3.9277 h -3.4086 l -5.114,-9.9189 h 28.2994 c 4.3164,0 7.8281,-3.5117 7.8281,-7.8281 V 9.2662 c 0,-4.3164 -3.5117,-7.8282 -7.8281,-7.8282 z m -79.8194,2 h 79.8193 c 3.2139,0 5.8281,2.6143 5.8281,5.8281 V 65.6196 H 3.2622 V 9.2662 c 0,-3.2139 2.6143,-5.8282 5.8281,-5.8282 z m 60.0425,87.2686 c 1.063,0 1.9277,0.8647 1.9277,1.9277 0,1.063 -0.8647,1.9277 -1.9277,1.9277 H 28.8667 c -1.0625,0 -1.9272,-0.8647 -1.9272,-1.9277 0,-1.063 0.8647,-1.9277 1.9272,-1.9277 14.717,0 25.5485,0 40.2661,0 z m -5.6587,-2 H 34.5259 l 2.0413,-3.9595 h 7.6306 v -2 h -6.5994 l 2.0413,-3.9595 H 58.3604 Z M 88.9097,76.7877 H 59.5791 38.4209 9.0903 c -3.2139,0 -5.8281,-2.6143 -5.8281,-5.8281 v -3.3398 h 91.4756 v 3.3398 c 0,3.2138 -2.6143,5.8281 -5.8281,5.8281 z"
       id="path1" /><path
       d="m 49,68.7427 c -1.9082,0 -3.4609,1.5527 -3.4609,3.4609 0,1.9082 1.5527,3.4605 3.4609,3.4605 1.9082,0 3.4609,-1.5522 3.4609,-3.4604 0,-1.9082 -1.5527,-3.461 -3.4609,-3.461 z m 0,4.9214 c -0.8057,0 -1.4609,-0.6553 -1.4609,-1.4604 0,-0.8057 0.6553,-1.4609 1.4609,-1.4609 0.8056,0 1.4609,0.6553 1.4609,1.4609 0,0.8051 -0.6552,1.4604 -1.4609,1.4604 z"
       id="path2" /><rect
       x="6.2637"
       y="94.561996"
       width="6.6729002"
       height="2"
       id="rect2" /><rect
       x="76.477097"
       y="81.147499"
       width="10.4399"
       height="2"
       id="rect3" /><rect
       x="71.053703"
       y="81.147499"
       width="3.1187"
       height="2"
       id="rect4" /><rect
       x="78.545403"
       y="60.748501"
       width="3.6782"
       height="2"
       id="rect14" /><path
       d="m 91.3945,55.5176 v -1.8325 h -2 v 1.8325 c 0,2.8843 -2.3467,5.231 -5.231,5.231 v 2 c 3.9874,0 7.231,-3.2437 7.231,-7.231 z"
       id="path14" /><rect
       x="89.394501"
       y="48.242199"
       width="2"
       height="3.0957"
       id="rect15" /><rect
       x="15.7759"
       y="6.2964001"
       width="3.6787"
       height="2"
       id="rect16" /><path
       d="m 8.6055,13.5274 c 0,-2.8843 2.3467,-5.231 5.231,-5.231 v -2 c -3.9873,0 -7.231,3.2437 -7.231,7.231 v 1.832 h 2 z"
       id="path16" /><rect
       x="6.6055002"
       y="17.706499"
       width="2"
       height="3.0962"
       id="rect17" /><rect
       x="46.539101"
       y="82.747101"
       width="3.6889999"
       height="2"
       id="rect18" /><path
       d="m 59.231192,16.414281 h 0.0361 c 1.8219,0 3.3037,-1.4823 3.3037,-3.3047 0,-1.8275 -1.4819,-3.3145 -3.3037,-3.3145 -1.8224,0 -3.3047,1.487 -3.3047,3.3145 0,1.7914 1.4969,3.3047 3.2686,3.3047 z m 0.0361,-4.7009 c 0.7639,0 1.3854,0.6262 1.3854,1.3962 0,0.7643 -0.6215,1.3863 -1.3854,1.3863 h -0.0361 c -0.6388,0 -1.3503,-0.5695 -1.3503,-1.3863 10e-5,-0.7569 0.6352,-1.3962 1.3864,-1.3962 z"
       id="path3" /><path
       d="m 45.108992,41.861681 c 0,-2.0785 -1.6851,-3.7693 -3.7566,-3.7693 -2.072,0 -3.7581,1.6908 -3.7581,3.7693 0,2.072 1.6861,3.7576 3.7581,3.7576 2.0715,0 3.7566,-1.6856 3.7566,-3.7576 z m -5.5963,0 c 0,-1.0032 0.8426,-1.8509 1.8397,-1.8509 1.1353,0 1.8383,0.9606 1.8383,1.8509 0,1.014 -0.8248,1.8392 -1.8383,1.8392 -0.9971,0 -1.8397,-0.8421 -1.8397,-1.8392 z"
       id="path4" /><path
       d="m 50.078292,56.525781 h -0.4501 l -3.7593,-7.4508 c 2.399,-1.5088 4.0015,-4.1724 4.0015,-7.2096 0,-2.3098 -0.9248,-4.4048 -2.4186,-5.9427 l 11.5699,-15.5315 c 2.6859,0.0838 4.9902,-1.2315 6.3325,-3.267 3.1859,-4.8317 -0.2582,-11.3205 -6.0872,-11.3205 -3.2471,0 -6.0968,2.1714 -6.9902,5.2324 l -17.6189,4.8554 v 1.5812 h -3.3909 v -1.7994 l -6.1939,-4.4901 -4.2657,2.6008 0.9985,1.6383 3.1754,-1.9366 4.3674,3.1665 v 3.559 l -4.4114,3.1984 -3.9786,-2.0059 -0.8636,1.7132 5.0221,2.5314 6.1499,-4.4582 v -1.7989 h 3.3909 v 2.2153 l 18.3341,-4.7908 c 0.1897,0.3242 0.4045,0.6302 0.6418,0.9177 l -11.6546,15.6319 c -0.2084,-0.0152 -0.4165,-0.0318 -0.6288,-0.0318 -4.6976,0 -8.5193,3.8274 -8.5193,8.532 0,4.1605 2.9874,7.6669 7.0148,8.3786 l 3.1643,6.2818 h -0.7896 c -3.5103,0 -6.3663,2.856 -6.3663,6.3663 v 1.1774 h 20.5897 v -1.1774 c 0,-3.5104 -2.8555,-6.3664 -6.3658,-6.3664 z m 9.1885,-48.8036 c 4.3095,0 6.8265,4.7967 4.4859,8.346 -1.1873,1.7999 -3.2093,2.6271 -5.0877,2.3848 -2.7475,-0.3073 -4.7753,-2.6552 -4.7753,-5.3434 0,-2.9886 2.4349,-5.3874 5.3771,-5.3874 z m -22.6906,11.4001 v -1.7694 l 15.3952,-4.2428 c 0.0087,0.1139 -0.0058,0.9632 0.259,1.9221 z m 18.4647,-0.067 c 0.232,0.1668 1.1144,0.7055 1.8673,0.9615 l -10.9409,14.6884 c -0.5898,-0.3828 -1.2292,-0.693 -1.9069,-0.9216 z m -20.2913,22.8101 c 0,-3.6466 2.9614,-6.6136 6.6009,-6.6136 3.64,0 6.6014,2.967 6.6014,6.6136 0,3.6396 -2.9614,6.6009 -6.6014,6.6009 -3.6541,10e-5 -6.6009,-2.9542 -6.6009,-6.6009 z m 7.2974,8.484 c 0.7278,-0.0592 1.4279,-0.2117 2.0929,-0.4431 l 3.3399,6.6194 h -2.3217 z m -4.2124,11.8018 c 0.3536,-2.101 2.1858,-3.707 4.3861,-3.707 h 7.8575 c 2.1998,0 4.032,1.606 4.3856,3.707 z"
       id="path5" /><path
       d="m 81.037692,47.962881 v -5.8741 l -3.027,-0.6365 c -0.1995,-0.6304 -0.4538,-1.2449 -0.7611,-1.8373 l 1.6903,-2.5905 -4.1519,-4.1557 -2.5928,1.6931 c -0.5873,-0.3049 -1.2023,-0.5601 -1.8383,-0.762 l -0.6365,-3.0284 h -5.875 l -0.6337,3.0274 c -0.6313,0.1995 -1.2467,0.4548 -1.8397,0.7629 l -2.5905,-1.6936 -4.1524,4.1562 1.6898,2.5895 c -0.3058,0.5887 -0.5606,1.2037 -0.762,1.8383 l -3.0279,0.6365 v 5.8741 l 3.0279,0.637 c 0.2014,0.6346 0.4562,1.2496 0.762,1.8383 l -1.6898,2.5895 4.1524,4.1562 2.5905,-1.6936 c 0.5934,0.3082 1.2088,0.5634 1.8397,0.7629 l 0.6337,3.027 h 5.875 l 0.6365,-3.0279 c 0.6356,-0.2019 1.25,-0.4566 1.8378,-0.762 l 2.5933,1.6931 4.1524,-4.1557 -1.6912,-2.5886 c 0.3077,-0.5939 0.562,-1.2093 0.7615,-1.8392 z m -4.5552,4.81 -1.9502,1.9526 -2.2692,-1.4819 -0.5124,0.3011 c -1.4643,0.8601 -2.6837,1.0592 -3.0307,1.1695 l -0.5564,2.6476 h -2.7595 l -0.555,-2.6495 -0.5761,-0.1494 c -1.6375,-0.4237 -2.6569,-1.1561 -2.9708,-1.3189 l -2.2659,1.4809 -1.9502,-1.9521 1.4791,-2.2668 -0.3007,-0.5124 c -0.8616,-1.4674 -1.0584,-2.6812 -1.1695,-3.0307 l -2.6476,-0.5569 v -2.7605 l 2.6481,-0.5564 0.1499,-0.5737 c 0.4334,-1.6566 1.1486,-2.6399 1.3198,-2.9693 l -1.4791,-2.2668 1.9502,-1.9521 2.2659,1.4809 0.5124,-0.3002 c 1.4866,-0.8708 2.6783,-1.0555 3.0345,-1.1681 l 0.555,-2.6499 h 2.7595 l 0.5564,2.6481 0.5733,0.1503 c 1.6663,0.4377 2.6413,1.1495 2.9698,1.3203 l 2.2692,-1.4819 1.9507,1.9526 -1.4786,2.2659 0.2993,0.5119 c 0.8694,1.4873 1.0537,2.6768 1.1657,3.0316 l 2.6499,0.5569 v 2.7605 l -2.6499,0.5573 -0.1494,0.5756 c -0.2206,0.8533 -0.563,1.6809 -1.0173,2.4603 l -0.2979,0.5119 z"
       id="path6" /><path
       d="m 66.783392,37.861981 v 1.9184 c 2.8668,0 5.1987,2.353 5.1987,5.2451 0,2.8925 -2.3319,5.2455 -5.1987,5.2455 -2.8682,0 -5.2015,-2.353 -5.2015,-5.2455 0,-1.7455 0.859,-3.3721 2.2977,-4.3515 l -1.0795,-1.5858 c -1.9643,1.3371 -3.1366,3.5567 -3.1366,5.9373 0,3.9501 3.1942,7.1639 7.1199,7.1639 3.9243,0 7.1171,-3.2138 7.1171,-7.1639 0,-3.9501 -3.1928,-7.1635 -7.1171,-7.1635 z"
       id="path7" /></g></svg>
