<?xml version="1.0" encoding="UTF-8" standalone="no"?>
<svg
   version="1.1"
   x="0px"
   y="0px"
   viewBox="0 0 98 98"
   enable-background="new 0 0 98 98"
   xml:space="preserve"
   id="svg28"
   sodipodi:docname="noun-settings-2193017.svg"
   width="98"
   height="98"
   inkscape:version="1.4 (86a8ad7, 2024-10-11)"
   xmlns:inkscape="http://www.inkscape.org/namespaces/inkscape"
   xmlns:sodipodi="http://sodipodi.sourceforge.net/DTD/sodipodi-0.dtd"
   xmlns="http://www.w3.org/2000/svg"
   xmlns:svg="http://www.w3.org/2000/svg"><defs
     id="defs28" /><sodipodi:namedview
     id="namedview28"
     pagecolor="#ffffff"
     bordercolor="#999999"
     borderopacity="1"
     inkscape:showpageshadow="2"
     inkscape:pageopacity="0"
     inkscape:pagecheckerboard="0"
     inkscape:deskcolor="#d1d1d1"
     inkscape:zoom="6.6530612"
     inkscape:cx="49"
     inkscape:cy="73.27454"
     inkscape:window-width="1920"
     inkscape:window-height="1017"
     inkscape:window-x="-8"
     inkscape:window-y="-8"
     inkscape:window-maximized="1"
     inkscape:current-layer="svg28" /><g
     id="g27"><path
       d="m 64.0022,73.1775 c -1.5947,0.8535 -3.2793,1.5518 -5.0068,2.0757 l -0.5767,0.1748 -1.6816,8.6572 H 45.1428 L 43.4612,75.428 42.8845,75.2532 c -1.7378,-0.5269 -3.4214,-1.2275 -5.0039,-2.082 l -0.5327,-0.2876 -7.3218,4.9429 -8.2017,-8.2017 4.9429,-7.3223 -0.2876,-0.5327 c -0.856,-1.585 -1.5562,-3.2681 -2.082,-5.0034 L 24.2229,56.1897 15.5657,54.5081 V 42.9139 l 8.6572,-1.6816 0.1748,-0.5767 c 0.5229,-1.7251 1.2212,-3.4097 2.0757,-5.0073 l 0.2842,-0.5313 -4.9336,-7.3198 8.2021,-8.2021 7.314,4.9351 0.5327,-0.2876 c 1.5767,-0.8516 3.2627,-1.5522 5.0117,-2.082 l 0.5767,-0.1748 1.6816,-8.6489 H 56.737 l 1.6816,8.6489 0.5767,0.1748 c 1.7476,0.5298 3.4341,1.23 5.0117,2.082 l 0.5327,0.2876 7.3145,-4.9351 8.2012,8.2017 -4.9346,7.314 0.2876,0.5327 c 0.8506,1.5752 1.5513,3.2617 2.082,5.0122 l 0.1748,0.5767 8.6489,1.6816 v 11.5942 l -8.6489,1.6816 -0.1748,0.5767 c -0.52,1.7153 -1.2212,3.4028 -2.084,5.0151 l 1.7637,0.9434 c 0.8276,-1.5469 1.5166,-3.1587 2.0522,-4.8003 l 9.0918,-1.7681 V 41.2654 l -9.0913,-1.7681 c -0.481,-1.4756 -1.0747,-2.9058 -1.771,-4.2656 L 82.6354,27.5486 72.1023,17.0149 64.4187,22.199 c -1.3613,-0.6973 -2.791,-1.291 -4.2651,-1.771 L 58.3855,11.3367 H 43.4944 l -1.7681,9.0913 c -1.4746,0.48 -2.9048,1.0737 -4.2651,1.771 l -7.6831,-5.1841 -10.5332,10.5332 5.1846,7.6938 c -0.6978,1.3711 -1.2891,2.7979 -1.7642,4.2554 l -9.0996,1.7681 v 14.8911 l 9.0996,1.7681 c 0.4775,1.4648 1.0713,2.8921 1.771,4.2568 l -5.1919,7.6914 10.5337,10.5337 7.6914,-5.1919 c 1.3628,0.6987 2.79,1.2925 4.2568,1.7705 l 1.7681,9.1001 h 14.8911 l 1.7681,-9.0996 c 1.6509,-0.5386 3.2603,-1.2246 4.792,-2.0444 z"
       id="path1" /><path
       d="m 72.427,58.1536 c 1.312,-2.9824 1.9775,-6.1592 1.9775,-9.4429 0,-12.9385 -10.5264,-23.4644 -23.4648,-23.4644 -12.9384,0 -23.4644,10.526 -23.4644,23.4644 0,12.9384 10.5259,23.4644 23.4644,23.4644 3.644,0 7.1362,-0.8125 10.3804,-2.415 l -0.8857,-1.793 c -2.9663,1.4653 -6.1606,2.208 -9.4946,2.208 -11.8354,0 -21.4644,-9.6289 -21.4644,-21.4644 0,-11.8355 9.6289,-21.4644 21.4644,-21.4644 11.8359,0 21.4648,9.6289 21.4648,21.4644 0,3.0044 -0.6084,5.9106 -1.8086,8.6372 z"
       id="path2" /><path
       d="m 64.3322,53.1341 c 1.7481,-5.1128 0.5429,-10.8245 -3.4164,-14.7832 -2.7056,-2.7061 -6.2983,-4.1968 -10.1167,-4.1968 -0.8657,0 -1.7358,0.0791 -2.5869,0.2354 l -1.8745,0.3433 7.2407,7.2402 -0.2754,9.038 -9.0337,0.271 -7.2461,-7.2456 -0.3433,1.8745 c -0.8477,4.6323 0.6333,9.3848 3.9619,12.7134 3.9584,3.9591 9.6711,5.1641 14.7834,3.4163 l 22.639,22.6389 c 2.4609,2.4619 6.4454,2.4624 8.9067,0 2.4556,-2.4556 2.4556,-6.4512 0,-8.9067 z M 42.0559,57.2103 C 39.6746,54.829 38.3923,51.6004 38.4475,48.2889 l 5.0181,5.0186 11.7788,-0.354 0.3594,-11.7832 -5.0142,-5.0142 c 3.3486,-0.0498 6.5347,1.2314 8.9121,3.6089 4.8206,4.8206 4.8223,12.624 0,17.4453 -4.8199,4.8199 -12.624,4.8217 -17.4458,0 z m 43.501,26.0551 c -1.6803,1.6803 -4.3983,1.6804 -6.0786,0 L 57.4111,61.1983 c 1.2753,-0.6672 2.4579,-1.5271 3.5046,-2.574 1.0469,-1.0469 1.9067,-2.2292 2.5741,-3.5044 l 22.067,22.0669 c 1.6759,1.6758 1.6759,4.4029 1e-4,6.0786 z"
       id="path3" /><path
       d="m 79.7517,77.4603 c -1.2046,1.2046 -1.2046,3.1641 0,4.3687 1.2071,1.2071 3.1612,1.2075 4.3687,0 1.2046,-1.2046 1.2046,-3.1641 0,-4.3687 -1.1675,-1.1675 -3.2022,-1.167 -4.3687,0 z m 2.9546,2.9545 c -0.4131,0.4111 -1.1294,0.4106 -1.5405,0 -0.4248,-0.4248 -0.4248,-1.1157 0,-1.5405 0.4257,-0.4247 1.1133,-0.4262 1.5405,0 0.4248,0.4248 0.4248,1.1157 0,1.5405 z"
       id="path4" /><rect
       x="65.765999"
       y="67.681801"
       transform="matrix(-0.7071,-0.7071,0.7071,-0.7071,72.6568,167.4588)"
       width="10.4885"
       height="1.9998"
       id="rect4" /><rect
       x="64.067398"
       y="61.756802"
       transform="matrix(-0.7071,-0.7071,0.7071,-0.7071,66.7317,153.1545)"
       width="2.0357001"
       height="1.9998"
       id="rect5" /><rect
       x="65.804901"
       y="8.1917"
       width="3"
       height="2"
       id="rect6" /><rect
       x="71.804901"
       y="8.1917"
       width="3"
       height="2"
       id="rect7" /><rect
       x="83.804901"
       y="8.1917"
       width="3"
       height="2"
       id="rect8" /><rect
       x="77.804901"
       y="8.1917"
       width="3"
       height="2"
       id="rect9" /><rect
       x="89.804901"
       y="8.1917"
       width="3"
       height="2"
       id="rect10" /><rect
       x="65.804901"
       y="3.1751001"
       width="27.7754"
       height="2"
       id="rect11" /><rect
       x="11.4451"
       y="92.824997"
       width="3"
       height="2"
       id="rect12" /><rect
       x="5.4450998"
       y="92.824997"
       width="3"
       height="2"
       id="rect13" /><rect
       x="23.445101"
       y="92.824997"
       width="3"
       height="2"
       id="rect14" /><rect
       x="17.445101"
       y="92.824997"
       width="3"
       height="2"
       id="rect15" /><rect
       x="29.445101"
       y="92.824997"
       width="3"
       height="2"
       id="rect16" /><rect
       x="5.4450998"
       y="87.808899"
       width="27.7749"
       height="2"
       id="rect17" /><rect
       x="2.5579"
       y="69.3358"
       width="10.1152"
       height="2"
       id="rect18" /><rect
       x="68.2444"
       y="92.008598"
       width="3"
       height="2"
       id="rect19" /><rect
       x="62.2444"
       y="92.008598"
       width="3"
       height="2"
       id="rect20" /><rect
       x="3.4298999"
       y="32.361599"
       width="10.1152"
       height="2"
       id="rect21" /><rect
       x="32.387901"
       y="3.1751001"
       width="10.1152"
       height="2"
       id="rect22" /><rect
       x="16.406"
       y="10.0379"
       width="3"
       height="2"
       id="rect23" /><rect
       x="10.406"
       y="10.0379"
       width="3"
       height="2"
       id="rect24" /><rect
       x="82.256599"
       y="17.537399"
       width="10.1152"
       height="2"
       id="rect25" /><rect
       x="92.442101"
       y="61.756699"
       width="3"
       height="2"
       id="rect26" /><rect
       x="86.442101"
       y="61.756699"
       width="3"
       height="2"
       id="rect27" /></g></svg>
