<?xml version="1.0" encoding="UTF-8" standalone="no"?>
<svg
   version="1.1"
   x="0px"
   y="0px"
   viewBox="0 0 98 98"
   enable-background="new 0 0 98 98"
   xml:space="preserve"
   id="svg13"
   sodipodi:docname="noun-technical-support-2193013.svg"
   width="98"
   height="98"
   inkscape:version="1.4 (86a8ad7, 2024-10-11)"
   xmlns:inkscape="http://www.inkscape.org/namespaces/inkscape"
   xmlns:sodipodi="http://sodipodi.sourceforge.net/DTD/sodipodi-0.dtd"
   xmlns="http://www.w3.org/2000/svg"
   xmlns:svg="http://www.w3.org/2000/svg"><defs
     id="defs13" /><sodipodi:namedview
     id="namedview13"
     pagecolor="#ffffff"
     bordercolor="#999999"
     borderopacity="1"
     inkscape:showpageshadow="2"
     inkscape:pageopacity="0"
     inkscape:pagecheckerboard="0"
     inkscape:deskcolor="#d1d1d1"
     inkscape:zoom="6.6530612"
     inkscape:cx="49"
     inkscape:cy="61.25"
     inkscape:window-width="1920"
     inkscape:window-height="1017"
     inkscape:window-x="-8"
     inkscape:window-y="-8"
     inkscape:window-maximized="1"
     inkscape:current-layer="svg13" /><g
     id="g12"><path
       d="m 94.9165,65.5025 c 0,-2.3394 -1.2314,-4.3965 -3.0801,-5.5576 1.8486,-1.1611 3.0801,-3.2183 3.0801,-5.5576 0,-3.6201 -2.9419,-6.5649 -6.5576,-6.5649 H 78.7656 V 28.1961 c 4.381,-2.4644 7.3516,-7.1523 7.3516,-12.5271 0,-10.0042 -9.1508,-13.3925 -9.355,-13.5693 V 12.231 l -4.5361,3.4473 -5.4937,-3.5 V 2.0997 c -0.3324,0.2879 -9.355,3.3754 -9.355,13.5693 0,5.375 2.9709,10.0632 7.3525,12.5276 v 3.0522 C 60.57,28.3612 56.0933,30.4113 54.165,34.4151 51.8831,39.1058 42.5208,52.9153 33.1855,55.7169 V 53.459 H 3.0835 v 2 H 31.1856 V 95 H 3.0835 v 2 h 30.1021 v -4.9036 l 5.998,2.2156 h 49.1753 c 3.6157,0 6.5576,-2.9419 6.5576,-6.5576 0,-2.3423 -1.2319,-4.4023 -3.0811,-5.5645 1.8491,-1.1606 3.0811,-3.2183 3.0811,-5.5581 0,-2.3428 -1.2319,-4.4023 -3.082,-5.5645 1.8501,-1.162 3.082,-3.222 3.082,-5.5648 z M 59.3774,15.669 c 0,-4.1367 2.0156,-7.9102 5.355,-10.1973 v 7.8042 l 7.5942,4.8379 6.4355,-4.8906 v -7.752 c 3.3394,2.2871 5.355,6.0605 5.355,10.1978 0,6.8208 -5.5488,12.3701 -12.3696,12.3701 -6.8208,0 -12.3701,-5.5493 -12.3701,-12.3701 z m 12.3702,14.3701 c 1.767,0 3.4531,-0.3359 5.0181,-0.9221 V 47.8223 H 66.73 V 29.1172 c 1.5648,0.586 3.2508,0.9219 5.0176,0.9219 z M 88.3589,70.0674 H 77.7656 v 2 h 10.5933 c 2.5132,0 4.5576,2.0474 4.5576,4.5645 0,2.5132 -2.0444,4.5576 -4.5576,4.5576 H 77.7656 v 2 h 10.5933 c 2.5132,0 4.5576,2.0479 4.5576,4.5649 0,2.5132 -2.0444,4.5576 -4.5576,4.5576 H 39.541 L 33.1855,89.9643 V 57.7942 C 43.4847,55.1318 53.4351,40.4883 55.9653,35.2866 57.468,32.1656 61,30.27 64.73,33.8296 v 15.9927 h 23.6289 c 2.5132,0 4.5576,2.0479 4.5576,4.5649 0,2.5132 -2.0444,4.5576 -4.5576,4.5576 H 77.7656 v 2 h 10.5933 c 2.5132,0 4.5576,2.0444 4.5576,4.5576 0,2.5172 -2.0444,4.565 -4.5576,4.565 z"
       id="path1" /><path
       d="m 56.7397,28.9205 c 0.6123,-0.3276 1.252,-0.584 1.9014,-0.7612 l -0.5273,-1.9297 c -0.7939,0.2168 -1.5742,0.5293 -2.314,0.9258 -2.2432,1.1875 -4.0464,3.0972 -5.2144,5.523 l 1.8018,0.8682 c 0.9819,-2.0387 2.4854,-3.6374 4.3525,-4.6261 z"
       id="path2" /><path
       d="m 50.4395,37.2794 -1.7461,-0.9746 c -0.79,1.4141 -1.6152,2.7808 -2.4536,4.0605 l 1.6729,1.0957 c 0.8642,-1.3193 1.7143,-2.7261 2.5268,-4.1816 z"
       id="path3" /><path
       d="m 27.8438,86.0904 c 0,-2.1968 -1.7876,-3.9839 -3.9844,-3.9839 -2.1968,0 -3.9839,1.7871 -3.9839,3.9839 0,2.1968 1.7871,3.9844 3.9839,3.9844 2.1968,0 3.9844,-1.7876 3.9844,-3.9844 z m -5.9683,0 c 0,-1.0938 0.8901,-1.9839 1.9839,-1.9839 1.0942,0 1.9844,0.8901 1.9844,1.9839 0,1.0942 -0.8901,1.9844 -1.9844,1.9844 -1.0938,0 -1.9839,-0.8902 -1.9839,-1.9844 z"
       id="path4" /><rect
       x="51.098598"
       y="87.074799"
       width="18.991699"
       height="2"
       id="rect4" /><rect
       x="44.4482"
       y="87.074799"
       width="4.1279001"
       height="2"
       id="rect5" /><rect
       x="13.5796"
       y="48.746201"
       width="16.679199"
       height="2"
       id="rect6" /><rect
       x="5.7719998"
       y="48.746201"
       width="3.4154999"
       height="2"
       id="rect7" /><rect
       x="23.686001"
       y="44.033798"
       width="4.4526"
       height="2"
       id="rect8" /><rect
       x="7.8920999"
       y="44.033798"
       width="11.3418"
       height="2"
       id="rect9" /><rect
       x="81.063499"
       y="36.792099"
       width="2"
       height="8.2417002"
       id="rect10" /><rect
       x="81.063499"
       y="30.857"
       width="2"
       height="3.0610001"
       id="rect11" /><path
       d="m 10.9312,27.9146 -2.2993,3.5229 5.3711,5.377 3.5254,-2.3042 c 0.9131,0.4883 1.8667,0.8833 2.8457,1.1802 l 0.8623,4.1187 h 7.6001 l 0.8667,-4.1201 c 0.9878,-0.3008 1.9399,-0.6958 2.8433,-1.1787 l 3.5278,2.3037 5.3716,-5.377 -2.3003,-3.521 c 0.4873,-0.9155 0.8818,-1.8687 1.1777,-2.8457 l 4.1182,-0.8662 V 16.605 L 40.3233,15.7388 C 40.0269,14.7608 39.6329,13.8086 39.1456,12.896 L 41.4454,9.3711 36.0743,3.9951 32.5465,6.2988 C 31.6432,5.8159 30.691,5.4209 29.7032,5.1201 L 28.8365,1 H 21.2364 L 20.374,5.1187 c -0.979,0.2969 -1.9326,0.6919 -2.8457,1.1802 l -3.5254,-2.3042 -5.3711,5.3764 2.2993,3.5234 c -0.4839,0.9043 -0.8789,1.8569 -1.1792,2.8442 L 5.6323,16.605 v 7.5991 l 4.1196,0.8662 c 0.3003,0.9874 0.6954,1.94 1.1793,2.8443 z m -3.2989,-9.6865 3.728,-0.7837 0.1563,-0.5981 c 0.3218,-1.228 0.8076,-2.4004 1.4448,-3.4839 l 0.3145,-0.5342 -2.0825,-3.1914 3.0757,-3.0786 3.1899,2.085 0.5342,-0.313 c 1.1016,-0.645 2.2744,-1.1313 3.4863,-1.4448 l 0.6006,-0.1558 0.7813,-3.7295 h 4.3521 l 0.7837,3.7275 0.5977,0.1567 c 1.23,0.3228 2.4023,0.8091 3.4844,1.4453 l 0.5347,0.314 3.1938,-2.0859 3.0762,3.0791 -2.0811,3.1899 0.312,0.5332 c 0.6431,1.1011 1.1284,2.2729 1.4414,3.4834 l 0.1558,0.6006 3.7295,0.7842 v 4.353 l -3.7295,0.7842 -0.1558,0.6006 c -0.3125,1.208 -0.7979,2.3818 -1.4424,3.4883 l -0.3105,0.5337 2.0801,3.1846 -3.0757,3.0791 -3.1938,-2.0859 -0.5347,0.314 c -1.082,0.6362 -2.2544,1.1226 -3.4844,1.4453 l -0.5977,0.1567 -0.7837,3.7275 H 22.8614 L 22.0801,34.0797 21.479,33.9239 c -1.2114,-0.3135 -2.3843,-0.7998 -3.4858,-1.4448 l -0.5342,-0.313 -3.1895,2.085 -3.0762,-3.0791 2.0825,-3.1909 -0.3145,-0.5342 C 12.3241,26.3634 11.8383,25.191 11.5165,23.963 l -0.1563,-0.5981 -3.728,-0.7837 v -4.3531 z"
       id="path11" /><path
       d="m 25.0366,30.6685 c 5.6597,0 10.2642,-4.6045 10.2642,-10.2642 0,-5.6592 -4.6045,-10.2637 -10.2642,-10.2637 -5.6592,0 -10.2637,4.6045 -10.2637,10.2637 0,5.6597 4.6045,10.2642 10.2637,10.2642 z m 0,-18.5278 c 4.5566,0 8.2642,3.707 8.2642,8.2637 0,4.5567 -3.7075,8.2642 -8.2642,8.2642 -4.5567,0 -8.2637,-3.7075 -8.2637,-8.2642 0,-4.5567 3.7071,-8.2637 8.2637,-8.2637 z"
       id="path12" /></g><text
     x="0"
     y="113"
     fill="#000000"
     font-size="5px"
     font-weight="bold"
     font-family="'Helvetica Neue', Helvetica, Arial-Unicode, Arial, Sans-serif"
     id="text12">Created by ProSymbols</text><text
     x="0"
     y="118"
     fill="#000000"
     font-size="5px"
     font-weight="bold"
     font-family="'Helvetica Neue', Helvetica, Arial-Unicode, Arial, Sans-serif"
     id="text13">from the Noun Project</text></svg>
