<?xml version="1.0" encoding="UTF-8"?>
<svg id="Cara_frio" data-name="Cara frio" xmlns="http://www.w3.org/2000/svg" viewBox="0 0 218.04 99.51">
  <defs>
    <style>
      .cls-1, .cls-2, .cls-3, .cls-4 {
        stroke-width: 0px;
      }

      .cls-2 {
        fill: none;
      }

      .cls-3 {
        fill: #fff;
      }

      .cls-4 {
        fill: #ffd527;
      }
    </style>
  </defs>
  <circle class="cls-2" cx="151.17" cy="38.05" r="6.99" transform="translate(17.37 118.04) rotate(-45)"/>
  <path class="cls-2" d="m114.14,28.23c-1.53-.8-3.27-1.26-5.11-1.26-6.11,0-11.07,4.96-11.07,11.07,0,4.91,3.2,9.07,7.63,10.52l-3.91-10.57,12.46-9.76Z"/>
  <path class="cls-2" d="m117.63,45c1.54-1.9,2.47-4.32,2.47-6.96,0-1.54-.31-3-.88-4.33l-6.91,7.13,5.33,4.16Z"/>
  <polygon class="cls-2" points="73.38 32.41 72.7 32.41 69.76 44.41 73.38 44.41 77 44.41 74.06 32.41 73.38 32.41"/>
  <path class="cls-2" d="m192.81,34.56c0-4.5-7.98-4.16-7.98-4.16v8.58c3.54,0,7.98-.16,7.98-4.41Z"/>
  <polygon class="cls-1" points="53 20.3 39.64 20.3 33.76 40.68 27.87 20.3 14.51 20.3 7.72 55.79 20.74 55.79 22.72 36.15 24.02 36.15 29.46 55.79 33.76 55.79 38.06 55.79 43.49 36.15 44.79 36.15 46.78 55.79 53.12 55.79 57.56 44.09 53 20.3"/>
  <path class="cls-1" d="m80.17,20.3h-13.58l-9.03,23.79,2.24,11.7h6.91l.91-3.57h11.55l.91,3.57h13.58l-4.67-12.31c-.03-.09-.07-.18-.1-.27l-8.7-22.91Zm-6.79,24.11h-3.62l2.94-12h1.36l2.94,12h-3.62Z"/>
  <polygon class="cls-1" points="53.12 55.79 59.79 55.79 57.56 44.09 53.12 55.79"/>
  <path class="cls-1" d="m151.17,55.79c11.64,0,21.07-7.94,21.07-17.75s-9.43-17.75-21.07-17.75-21.07,7.94-21.07,17.75,9.43,17.75,21.07,17.75Zm0-24.74c3.86,0,6.99,3.13,6.99,6.99s-3.13,6.99-6.99,6.99-6.99-3.13-6.99-6.99,3.13-6.99,6.99-6.99Z"/>
  <path class="cls-1" d="m184.83,55.79v-10.75s.33.01.91,0h1.28l5.79,10.75h14.01l-9.37-13.17c3.93-1.82,7.25-5.02,7.25-10.61,0-13.67-26.17-11.72-26.17-11.72h-6.3v35.49h12.59Zm0-25.39s7.98-.34,7.98,4.16c0,4.26-4.45,4.41-7.98,4.41v-8.58Z"/>
  <path class="cls-2" d="m117.63,45l-.79-.62c-1.92,2.37-4.77,3.73-7.82,3.73-1.06,0-2.11-.17-3.13-.5-.24-.08-.5-.18-.77-.3l.46,1.25c1.08.35,2.24.55,3.44.55,3.48,0,6.58-1.61,8.61-4.11Z"/>
  <path class="cls-4" d="m131.45,55.79l-.04.05-3.73,4.19-1.82,2.04-.64.72-.74-.62-2.46-2.04-5.41-4.49c-2.45.76-5,1.15-7.59,1.15-.14,0-.27,0-.4-.01l.95,2.58,2.35,6.35h32.25l-8.14-6.35-4.58-3.57Z"/>
  <path class="cls-2" d="m131.41,55.83l-3.73,4.19-1.82,2.04-.64.72-.74-.62-2.46-2.04-5.41-4.49c-2.45.76-5,1.15-7.59,1.15-.14,0-.27,0-.4-.01l.95,2.58,2.35,6.35h32.25l-8.14-6.35-4.58-3.57-.04.05Z"/>
  <polygon class="cls-1" points="209 59.36 137.66 59.36 144.79 64.92 145.8 65.71 209 65.71 209 59.36"/>
  <path class="cls-2" d="m117.39,43.64c1.11-1.66,1.7-3.6,1.7-5.59,0-1.02-.15-2.02-.45-2.99l-.18-.57.41-.43.34-.35-6.91,7.13,4.54,3.54s0,0,.01-.01c.18-.22.36-.46.54-.73Z"/>
  <path class="cls-2" d="m130.1,38.05c0-3.79-1.43-7.28-3.83-10.16l-6.33,6.53-.34.35c.32,1.04.5,2.14.5,3.29,0,2.28-.69,4.39-1.87,6.15-.19.28-.38.55-.59.81-2.03,2.51-5.13,4.11-8.61,4.11-1.2,0-2.35-.2-3.44-.55-.43-.14-.85-.31-1.25-.51-3.77-1.77-6.38-5.58-6.38-10.01,0-6.11,4.96-11.07,11.07-11.07,1.45,0,2.82.29,4.09.79l.41-.32,6.05-4.74c-3.1-1.52-6.7-2.4-10.55-2.4-11.64,0-21.07,7.94-21.07,17.75,0,1.8.32,3.53.91,5.16.03.09.07.18.1.27,2.65,6.94,10.24,12,19.28,12.28.26,0,.51.03.78.03,2.76,0,5.39-.46,7.8-1.27l5.83,4.84,2.46,2.04,1.82-2.04,3.73-4.19-6.34-4.94c3.57-3.18,5.77-7.46,5.77-12.18Z"/>
  <path class="cls-4" d="m119.03,24.41l-4.88,3.83-12.46,9.76,3.45,9.32c.27.12.53.22.77.3,1.02.33,2.07.5,3.13.5,3.04,0,5.89-1.36,7.82-3.73l-4.54-3.54,6.91-7.13,6.33-6.53.77-.8,21.44-22.11h-3.06l-23.25,18.22-1.26.98-1.17.92Z"/>
  <polygon class="cls-3" points="119.03 24.41 120.19 23.49 121.45 22.51 120.56 23.2 119.03 24.41"/>
  <path class="cls-2" d="m147.76,4.28h-3.06l-24.14,18.92c1.93,1.07,3.63,2.39,5.05,3.92l22.15-22.84Z"/>
  <path class="cls-1" d="m124.32,50.22c3.57-3.18,5.77-7.46,5.77-12.18,0-3.79-1.43-7.28-3.83-10.16l-6.33,6.53-.34.35c.32,1.04.5,2.14.5,3.29,0,2.28-.69,4.39-1.87,6.15-.19.28-.38.55-.59.81-2.03,2.51-5.13,4.11-8.61,4.11-1.2,0-2.35-.2-3.44-.55-.43-.14-.85-.31-1.25-.51-3.77-1.77-6.38-5.58-6.38-10.01,0-6.11,4.96-11.07,11.07-11.07,1.45,0,2.82.29,4.09.79l.41-.32,6.05-4.74c-3.1-1.52-6.7-2.4-10.55-2.4-11.64,0-21.07,7.94-21.07,17.75,0,1.8.32,3.53.91,5.16.03.09.07.18.1.27,2.65,6.94,10.24,12,19.28,12.28.26,0,.51.03.78.03,2.76,0,5.39-.46,7.8-1.27l5.83,4.84,2.46,2.04,1.82-2.04,3.73-4.19-6.34-4.94Z"/>
  <g>
    <polygon class="cls-1" points="35.57 59.36 31.09 59.36 33.98 65.71 38.45 65.71 35.57 59.36"/>
    <polygon class="cls-1" points="41.14 59.36 36.66 59.36 39.55 65.71 44.02 65.71 41.14 59.36"/>
    <polygon class="cls-1" points="52.28 59.36 47.8 59.36 50.69 65.71 55.16 65.71 52.28 59.36"/>
    <polygon class="cls-1" points="29.99 59.36 25.52 59.36 28.41 65.71 32.88 65.71 29.99 59.36"/>
    <polygon class="cls-1" points="46.71 59.36 42.23 59.36 45.12 65.71 49.59 65.71 46.71 59.36"/>
    <polygon class="cls-1" points="18.85 59.36 14.38 59.36 17.27 65.71 21.74 65.71 18.85 59.36"/>
    <polygon class="cls-1" points="24.42 59.36 19.95 59.36 22.84 65.71 27.31 65.71 24.42 59.36"/>
    <polygon class="cls-1" points="106.4 65.71 110.86 65.71 108.64 59.7 108.51 59.36 103.51 59.36 106.4 65.71"/>
    <polygon class="cls-1" points="11.7 65.71 16.17 65.71 13.28 59.36 8.81 59.36 11.7 65.71"/>
    <polygon class="cls-1" points="63.42 59.36 58.95 59.36 61.83 65.71 66.3 65.71 63.42 59.36"/>
    <polygon class="cls-1" points="102.41 59.36 97.94 59.36 100.83 65.71 105.3 65.71 102.41 59.36"/>
    <polygon class="cls-1" points="96.84 59.36 92.37 59.36 95.26 65.71 99.73 65.71 96.84 59.36"/>
    <polygon class="cls-1" points="7.72 59.37 7.72 65.71 10.6 65.71 7.72 59.37"/>
    <polygon class="cls-1" points="91.27 59.36 86.8 59.36 89.68 65.71 94.16 65.71 91.27 59.36"/>
    <polygon class="cls-1" points="57.85 59.36 53.37 59.36 56.26 65.71 60.73 65.71 57.85 59.36"/>
    <polygon class="cls-1" points="68.99 59.36 64.52 59.36 67.4 65.71 71.88 65.71 68.99 59.36"/>
    <polygon class="cls-1" points="74.56 59.36 70.09 59.36 72.97 65.71 77.45 65.71 74.56 59.36"/>
    <polygon class="cls-1" points="85.7 59.36 81.23 59.36 84.11 65.71 88.59 65.71 85.7 59.36"/>
    <polygon class="cls-1" points="80.13 59.36 75.66 59.36 78.54 65.71 83.02 65.71 80.13 59.36"/>
  </g>
  <g>
    <path class="cls-1" d="m15.88,70.63h.79l3.52,7.89h-1.15l-1.04-2.32h-3.35l-.98,2.32h-1.15l3.37-7.89Zm1.65,4.57l-1.27-2.84-1.17,2.84h2.44Z"/>
    <path class="cls-1" d="m20.99,70.68h1.02v7.84h-1.02v-7.84Z"/>
    <path class="cls-1" d="m25.99,73.36h1.93v7.8h-1.02v-2.72c-.45.12-.82.18-1.13.18-.74,0-1.34-.25-1.82-.74-.48-.49-.72-1.12-.72-1.88,0-.81.25-1.45.75-1.92.5-.48,1.17-.71,2.01-.71Zm.91,4.19v-3.23h-.65c-.44,0-.74.02-.89.06-.15.04-.28.09-.38.16-.11.07-.21.15-.3.25-.28.32-.42.71-.42,1.18,0,.53.16.96.48,1.29.32.33.73.5,1.23.5.12,0,.21,0,.29-.02s.24-.06.5-.15l.08-.02.07-.02Z"/>
    <path class="cls-1" d="m32.65,78.52v-.66c-.22.24-.46.42-.74.55-.28.13-.56.2-.83.2-.33,0-.63-.08-.9-.24-.28-.16-.48-.38-.62-.66-.14-.28-.21-.74-.21-1.39v-2.96h1.02v2.94c0,.54.08.92.23,1.14.16.21.43.32.82.32.49,0,.9-.24,1.24-.71v-3.69h1.02v5.17h-1.02Z"/>
    <path class="cls-1" d="m35.69,71.18c.17,0,.31.06.43.17s.18.26.18.43-.06.31-.18.43-.26.18-.43.18c-.16,0-.3-.06-.42-.18-.12-.12-.18-.26-.18-.42s.06-.3.18-.42c.12-.12.26-.18.42-.18Zm-.5,2.17h1.02v5.17h-1.02v-5.17Z"/>
    <path class="cls-1" d="m37.76,70.68h1.02v7.84h-1.02v-7.84Z"/>
    <path class="cls-1" d="m44.72,76.03h-3.63c.03.49.19.89.5,1.18.31.29.7.44,1.18.44.67,0,1.29-.21,1.86-.63v1c-.31.21-.63.36-.94.45-.31.09-.67.13-1.09.13-.57,0-1.03-.12-1.38-.35-.35-.24-.63-.55-.84-.95-.21-.4-.32-.86-.32-1.38,0-.79.22-1.43.67-1.92s1.02-.74,1.74-.74,1.23.24,1.64.72.61,1.12.61,1.93v.13Zm-3.61-.61h2.6c-.03-.41-.15-.72-.37-.94-.22-.22-.51-.33-.88-.33s-.67.11-.9.33c-.23.22-.39.54-.46.94Z"/>
    <path class="cls-1" d="m46.98,73.36v1.18l.06-.09c.49-.8.99-1.2,1.48-1.2.39,0,.79.19,1.21.58l-.54.9c-.36-.34-.69-.51-.99-.51-.33,0-.62.16-.86.47s-.36.69-.36,1.12v2.7h-1.03v-5.17h1.03Z"/>
    <path class="cls-1" d="m57.2,70.68h1.03v7.84h-2.18c-.76,0-1.37-.24-1.83-.72-.46-.48-.68-1.13-.68-1.94,0-.76.24-1.39.72-1.88.48-.49,1.09-.74,1.83-.74.34,0,.72.07,1.12.22v-2.79Zm0,6.97v-3.27c-.32-.16-.64-.24-.97-.24-.51,0-.91.17-1.22.5-.3.33-.45.78-.45,1.35,0,.53.13.94.39,1.23.16.17.32.29.5.35s.49.09.95.09h.79Z"/>
    <path class="cls-1" d="m64.07,76.03h-3.63c.03.49.19.89.5,1.18.31.29.7.44,1.18.44.67,0,1.29-.21,1.86-.63v1c-.31.21-.63.36-.94.45-.31.09-.67.13-1.09.13-.57,0-1.03-.12-1.38-.35-.35-.24-.63-.55-.84-.95-.21-.4-.32-.86-.32-1.38,0-.79.22-1.43.67-1.92s1.02-.74,1.74-.74,1.23.24,1.64.72.61,1.12.61,1.93v.13Zm-3.61-.61h2.6c-.03-.41-.15-.72-.37-.94-.22-.22-.51-.33-.88-.33s-.67.11-.9.33c-.23.22-.39.54-.46.94Z"/>
    <path class="cls-1" d="m72.87,74.66h2.63v3.32c-.97.42-1.92.63-2.88.63-1.3,0-2.34-.38-3.11-1.14-.78-.76-1.17-1.69-1.17-2.8,0-1.17.4-2.15,1.21-2.93.8-.78,1.81-1.17,3.03-1.17.44,0,.86.05,1.26.14.4.1.9.27,1.5.52v1.15c-.94-.54-1.86-.81-2.79-.81-.86,0-1.58.29-2.17.88s-.88,1.3-.88,2.15c0,.89.29,1.62.88,2.18.59.57,1.34.85,2.27.85.45,0,.99-.1,1.61-.31l.11-.03v-1.63h-1.51v-1Z"/>
    <path class="cls-1" d="m78.15,73.36v1.18l.06-.09c.49-.8.99-1.2,1.48-1.2.39,0,.79.19,1.21.58l-.54.9c-.36-.34-.69-.51-.99-.51-.33,0-.62.16-.86.47s-.36.69-.36,1.12v2.7h-1.03v-5.17h1.03Z"/>
    <path class="cls-1" d="m84.96,78.52v-.66c-.22.24-.46.42-.74.55-.28.13-.56.2-.83.2-.33,0-.63-.08-.9-.24-.28-.16-.48-.38-.62-.66-.14-.28-.21-.74-.21-1.39v-2.96h1.02v2.94c0,.54.08.92.23,1.14.16.21.43.32.82.32.49,0,.9-.24,1.24-.71v-3.69h1.02v5.17h-1.02Zm.12-7.97l-1.27,1.68h-.63l.76-1.68h1.14Z"/>
    <path class="cls-1" d="m90.72,75.42v2.2c0,.18.06.26.18.26s.32-.09.58-.28v.62c-.23.15-.42.25-.56.31-.14.05-.29.08-.44.08-.44,0-.7-.17-.78-.52-.43.34-.9.51-1.39.51-.36,0-.66-.12-.9-.36-.24-.24-.36-.54-.36-.9,0-.33.12-.62.35-.87.23-.26.57-.46,1-.61l1.31-.45v-.27c0-.62-.31-.93-.93-.93-.56,0-1.1.29-1.63.86v-1.12c.4-.47.97-.7,1.71-.7.56,0,1,.15,1.34.44.11.09.21.22.3.37s.15.31.17.47.04.45.04.88Zm-1,2.08v-1.53l-.69.26c-.35.14-.59.28-.74.42-.14.14-.22.32-.22.52s.07.39.21.52.31.2.53.2c.33,0,.63-.13.9-.4Z"/>
    <path class="cls-1" d="m92.19,78.15v-1.1c.29.2.58.37.88.49.3.13.55.19.76.19s.4-.05.55-.16c.15-.1.23-.23.23-.38s-.05-.27-.15-.37c-.1-.1-.31-.24-.64-.43-.66-.37-1.09-.68-1.29-.94s-.31-.54-.31-.85c0-.4.15-.72.46-.97.31-.25.71-.38,1.19-.38s1.02.14,1.55.43v1.01c-.61-.37-1.1-.55-1.49-.55-.2,0-.36.04-.48.13-.12.08-.18.2-.18.33,0,.12.06.23.17.34.11.11.3.24.58.39l.37.21c.86.49,1.29,1.03,1.29,1.62,0,.42-.17.77-.5,1.04-.33.27-.76.41-1.28.41-.31,0-.58-.03-.82-.1-.24-.07-.54-.19-.9-.36Z"/>
    <path class="cls-1" d="m103.35,73.36h1.15l-3.66,7.8h-1.14l1.75-3.74-2-4.06h1.16l1.4,2.92,1.34-2.92Z"/>
    <path class="cls-1" d="m108.67,70.68h4.45v1h-3.32v2.39h3.21v1.01h-3.21v2.44h3.43v1h-4.55v-7.83Z"/>
    <path class="cls-1" d="m116.77,73.36h1.93v7.8h-1.02v-2.72c-.45.12-.82.18-1.13.18-.74,0-1.34-.25-1.82-.74-.48-.49-.72-1.12-.72-1.88,0-.81.25-1.45.75-1.92.5-.48,1.17-.71,2.01-.71Zm.91,4.19v-3.23h-.65c-.44,0-.74.02-.89.06-.15.04-.28.09-.38.16-.11.07-.21.15-.3.25-.28.32-.42.71-.42,1.18,0,.53.16.96.48,1.29.32.33.73.5,1.23.5.12,0,.21,0,.29-.02s.24-.06.5-.15l.08-.02.07-.02Z"/>
    <path class="cls-1" d="m123.43,78.52v-.66c-.22.24-.46.42-.74.55-.28.13-.56.2-.83.2-.33,0-.63-.08-.9-.24-.28-.16-.48-.38-.62-.66-.14-.28-.21-.74-.21-1.39v-2.96h1.02v2.94c0,.54.08.92.23,1.14.16.21.43.32.82.32.49,0,.9-.24,1.24-.71v-3.69h1.02v5.17h-1.02Z"/>
    <path class="cls-1" d="m126.48,71.18c.17,0,.31.06.43.17s.18.26.18.43-.06.31-.18.43-.26.18-.43.18c-.16,0-.3-.06-.42-.18-.12-.12-.18-.26-.18-.42s.06-.3.18-.42c.12-.12.26-.18.42-.18Zm-.5,2.17h1.02v5.17h-1.02v-5.17Z"/>
    <path class="cls-1" d="m128.46,81.15v-7.8h1.79c.92,0,1.63.23,2.14.69.51.46.77,1.1.77,1.91,0,.78-.24,1.41-.72,1.91-.48.5-1.09.75-1.84.75-.33,0-.69-.07-1.09-.22v2.76h-1.04Zm1.77-6.85h-.72v3.18c.31.16.64.24.99.24.48,0,.87-.17,1.17-.5s.46-.76.46-1.29c0-.34-.07-.63-.22-.89s-.34-.45-.59-.56c-.25-.12-.61-.18-1.09-.18Z"/>
    <path class="cls-1" d="m136.81,73.34c.79,0,1.44.25,1.96.76.52.51.78,1.14.78,1.91s-.26,1.36-.79,1.86-1.19.74-1.99.74-1.42-.25-1.94-.75c-.52-.5-.78-1.12-.78-1.87s.26-1.39.79-1.89c.53-.5,1.19-.76,1.98-.76Zm-.06.92c-.49,0-.89.16-1.21.48s-.47.73-.47,1.23.16.9.48,1.21c.32.31.74.47,1.24.47s.91-.16,1.23-.47c.32-.32.48-.72.48-1.22s-.17-.9-.5-1.22-.75-.48-1.26-.48Z"/>
    <path class="cls-1" d="m140.48,78.15v-1.1c.29.2.58.37.88.49.3.13.55.19.76.19s.4-.05.55-.16c.15-.1.23-.23.23-.38s-.05-.27-.15-.37c-.1-.1-.31-.24-.64-.43-.66-.37-1.09-.68-1.29-.94s-.31-.54-.31-.85c0-.4.15-.72.46-.97.31-.25.71-.38,1.19-.38s1.02.14,1.55.43v1.01c-.61-.37-1.1-.55-1.49-.55-.2,0-.36.04-.48.13-.12.08-.18.2-.18.33,0,.12.06.23.17.34.11.11.3.24.58.39l.37.21c.86.49,1.29,1.03,1.29,1.62,0,.42-.17.77-.5,1.04-.33.27-.76.41-1.28.41-.31,0-.58-.03-.82-.1-.24-.07-.54-.19-.9-.36Z"/>
    <path class="cls-1" d="m148.62,70.68h1.12v7.84h-1.12v-7.84Z"/>
    <path class="cls-1" d="m152.43,73.36v.66c.46-.51.98-.76,1.56-.76.32,0,.62.08.9.25s.49.4.63.69c.14.29.22.75.22,1.38v2.95h-1.02v-2.94c0-.53-.08-.9-.24-1.13-.16-.23-.43-.34-.81-.34-.48,0-.89.24-1.23.72v3.69h-1.04v-5.17h1.04Z"/>
    <path class="cls-1" d="m160.66,70.68h1.03v7.84h-2.18c-.76,0-1.37-.24-1.83-.72-.46-.48-.68-1.13-.68-1.94,0-.76.24-1.39.72-1.88.48-.49,1.09-.74,1.83-.74.34,0,.72.07,1.12.22v-2.79Zm0,6.97v-3.27c-.32-.16-.64-.24-.97-.24-.51,0-.91.17-1.22.5-.3.33-.45.78-.45,1.35,0,.53.13.94.39,1.23.16.17.32.29.5.35s.49.09.95.09h.79Z"/>
    <path class="cls-1" d="m166.42,78.52v-.66c-.22.24-.46.42-.74.55-.28.13-.56.2-.83.2-.33,0-.63-.08-.9-.24-.28-.16-.48-.38-.62-.66-.14-.28-.21-.74-.21-1.39v-2.96h1.02v2.94c0,.54.08.92.23,1.14.16.21.43.32.82.32.49,0,.9-.24,1.24-.71v-3.69h1.02v5.17h-1.02Z"/>
    <path class="cls-1" d="m168.69,78.15v-1.1c.29.2.58.37.88.49.3.13.55.19.76.19s.4-.05.55-.16c.15-.1.23-.23.23-.38s-.05-.27-.15-.37c-.1-.1-.31-.24-.64-.43-.66-.37-1.09-.68-1.29-.94s-.31-.54-.31-.85c0-.4.15-.72.46-.97.31-.25.71-.38,1.19-.38s1.02.14,1.55.43v1.01c-.61-.37-1.1-.55-1.49-.55-.2,0-.36.04-.48.13-.12.08-.18.2-.18.33,0,.12.06.23.17.34.11.11.3.24.58.39l.37.21c.86.49,1.29,1.03,1.29,1.62,0,.42-.17.77-.5,1.04-.33.27-.76.41-1.28.41-.31,0-.58-.03-.82-.1-.24-.07-.54-.19-.9-.36Z"/>
    <path class="cls-1" d="m172.7,74.17l1.92-1.89v1.07h1.63v.92h-1.63v2.53c0,.59.25.89.74.89.37,0,.75-.12,1.16-.37v.96c-.39.22-.82.33-1.29.33s-.86-.14-1.17-.41c-.1-.08-.18-.17-.24-.28s-.12-.24-.16-.4-.06-.48-.06-.95v-2.29h-.9v-.1Z"/>
    <path class="cls-1" d="m178.4,73.36v1.18l.06-.09c.49-.8.99-1.2,1.48-1.2.39,0,.79.19,1.21.58l-.54.9c-.36-.34-.69-.51-.99-.51-.33,0-.62.16-.86.47s-.36.69-.36,1.12v2.7h-1.03v-5.17h1.03Z"/>
    <path class="cls-1" d="m182.45,71.18c.17,0,.31.06.43.17s.18.26.18.43-.06.31-.18.43-.26.18-.43.18c-.16,0-.3-.06-.42-.18-.12-.12-.18-.26-.18-.42s.06-.3.18-.42c.12-.12.26-.18.42-.18Zm-.5,2.17h1.02v5.17h-1.02v-5.17Z"/>
    <path class="cls-1" d="m187.74,75.42v2.2c0,.18.06.26.18.26s.32-.09.58-.28v.62c-.23.15-.42.25-.56.31-.14.05-.29.08-.44.08-.44,0-.7-.17-.78-.52-.43.34-.9.51-1.39.51-.36,0-.66-.12-.9-.36-.24-.24-.36-.54-.36-.9,0-.33.12-.62.35-.87.23-.26.57-.46,1-.61l1.31-.45v-.27c0-.62-.31-.93-.93-.93-.56,0-1.1.29-1.63.86v-1.12c.4-.47.97-.7,1.71-.7.56,0,1,.15,1.34.44.11.09.21.22.3.37s.15.31.17.47.04.45.04.88Zm-1,2.08v-1.53l-.69.26c-.35.14-.59.28-.74.42-.14.14-.22.32-.22.52s.07.39.21.52.31.2.53.2c.33,0,.63-.13.9-.4Z"/>
    <path class="cls-1" d="m189.49,70.68h1.02v7.84h-1.02v-7.84Z"/>
    <path class="cls-1" d="m196.44,76.03h-3.63c.03.49.19.89.5,1.18.31.29.7.44,1.18.44.67,0,1.29-.21,1.86-.63v1c-.31.21-.63.36-.94.45-.31.09-.67.13-1.09.13-.57,0-1.03-.12-1.38-.35-.35-.24-.63-.55-.84-.95-.21-.4-.32-.86-.32-1.38,0-.79.22-1.43.67-1.92s1.02-.74,1.74-.74,1.23.24,1.64.72.61,1.12.61,1.93v.13Zm-3.61-.61h2.6c-.03-.41-.15-.72-.37-.94-.22-.22-.51-.33-.88-.33s-.67.11-.9.33c-.23.22-.39.54-.46.94Z"/>
    <path class="cls-1" d="m197.36,78.15v-1.1c.29.2.58.37.88.49.3.13.55.19.76.19s.4-.05.55-.16c.15-.1.23-.23.23-.38s-.05-.27-.15-.37c-.1-.1-.31-.24-.64-.43-.66-.37-1.09-.68-1.29-.94s-.31-.54-.31-.85c0-.4.15-.72.46-.97.31-.25.71-.38,1.19-.38s1.02.14,1.55.43v1.01c-.61-.37-1.1-.55-1.49-.55-.2,0-.36.04-.48.13-.12.08-.18.2-.18.33,0,.12.06.23.17.34.11.11.3.24.58.39l.37.21c.86.49,1.29,1.03,1.29,1.62,0,.42-.17.77-.5,1.04-.33.27-.76.41-1.28.41-.31,0-.58-.03-.82-.1-.24-.07-.54-.19-.9-.36Z"/>
    <path class="cls-1" d="m202.62,77.27c.19,0,.35.07.49.2s.2.29.2.48-.07.34-.2.47-.3.19-.49.19-.35-.06-.48-.19-.2-.28-.2-.47.07-.35.2-.48.29-.2.48-.2Z"/>
    <path class="cls-1" d="m32.49,89.03l-.85-.52c-.54-.33-.92-.65-1.14-.96s-.34-.68-.34-1.09c0-.62.21-1.12.64-1.5s.99-.58,1.67-.58,1.26.18,1.8.55v1.27c-.57-.54-1.17-.82-1.83-.82-.37,0-.67.08-.9.25-.24.17-.35.39-.35.65,0,.23.09.46.26.66s.45.42.84.65l.86.51c.96.57,1.44,1.3,1.44,2.18,0,.63-.21,1.14-.63,1.53-.42.39-.97.59-1.64.59-.77,0-1.48-.24-2.12-.71v-1.43c.61.77,1.31,1.15,2.11,1.15.35,0,.64-.1.88-.29.23-.2.35-.44.35-.74,0-.48-.34-.93-1.03-1.36Z"/>
    <path class="cls-1" d="m40.13,89.83h-3.63c.03.49.19.89.5,1.18.31.29.7.44,1.18.44.67,0,1.29-.21,1.86-.63v1c-.31.21-.63.36-.94.45-.31.09-.67.13-1.09.13-.57,0-1.03-.12-1.38-.35-.35-.24-.63-.55-.84-.95-.21-.4-.32-.86-.32-1.38,0-.79.22-1.43.67-1.92s1.02-.74,1.74-.74,1.23.24,1.64.72.61,1.12.61,1.93v.13Zm-3.61-.61h2.6c-.03-.41-.15-.72-.37-.94-.22-.22-.51-.33-.88-.33s-.67.11-.9.33c-.23.22-.39.54-.46.94Z"/>
    <path class="cls-1" d="m42.39,87.16v1.18l.06-.09c.49-.8.99-1.2,1.48-1.2.39,0,.79.19,1.21.58l-.54.9c-.36-.34-.69-.51-.99-.51-.33,0-.62.16-.86.47s-.36.69-.36,1.12v2.7h-1.03v-5.17h1.03Z"/>
    <path class="cls-1" d="m49.42,87.16h1.11l-2.28,5.26h-.35l-2.34-5.26h1.12l1.39,3.18,1.34-3.18Z"/>
    <path class="cls-1" d="m51.87,84.98c.17,0,.31.06.43.17s.18.26.18.43-.06.31-.18.43-.26.18-.43.18c-.16,0-.3-.06-.42-.18-.12-.12-.18-.26-.18-.42s.06-.3.18-.42c.12-.12.26-.18.42-.18Zm-.5,2.17h1.02v5.17h-1.02v-5.17Z"/>
    <path class="cls-1" d="m57.8,91.11v1.01c-.51.19-1.01.29-1.5.29-.81,0-1.45-.24-1.93-.72-.48-.48-.72-1.12-.72-1.93s.23-1.47.7-1.97c.47-.5,1.08-.75,1.85-.75.27,0,.5.03.72.08.21.05.47.15.78.28v1.09c-.52-.33-1-.49-1.44-.49s-.84.16-1.13.49-.44.74-.44,1.24c0,.53.16.95.48,1.26.32.31.75.47,1.29.47.39,0,.84-.11,1.35-.34Z"/>
    <path class="cls-1" d="m59.55,84.98c.17,0,.31.06.43.17s.18.26.18.43-.06.31-.18.43-.26.18-.43.18c-.16,0-.3-.06-.42-.18-.12-.12-.18-.26-.18-.42s.06-.3.18-.42c.12-.12.26-.18.42-.18Zm-.5,2.17h1.02v5.17h-1.02v-5.17Z"/>
    <path class="cls-1" d="m64.07,87.14c.79,0,1.44.25,1.96.76.52.51.78,1.14.78,1.91s-.26,1.36-.79,1.86-1.19.74-1.99.74-1.42-.25-1.94-.75c-.52-.5-.78-1.12-.78-1.87s.26-1.39.79-1.89c.53-.5,1.19-.76,1.98-.76Zm-.06.92c-.49,0-.89.16-1.21.48s-.47.73-.47,1.23.16.9.48,1.21c.32.31.74.47,1.24.47s.91-.16,1.23-.47c.32-.32.48-.72.48-1.22s-.17-.9-.5-1.22-.75-.48-1.26-.48Z"/>
    <path class="cls-1" d="m67.75,91.95v-1.1c.29.2.58.37.88.49.3.13.55.19.76.19s.4-.05.55-.16c.15-.1.23-.23.23-.38s-.05-.27-.15-.37c-.1-.1-.31-.24-.64-.43-.66-.37-1.09-.68-1.29-.94s-.31-.54-.31-.85c0-.4.15-.72.46-.97.31-.25.71-.38,1.19-.38s1.02.14,1.55.43v1.01c-.61-.37-1.1-.55-1.49-.55-.2,0-.36.04-.48.13-.12.08-.18.2-.18.33,0,.12.06.23.17.34.11.11.3.24.58.39l.37.21c.86.49,1.29,1.03,1.29,1.62,0,.42-.17.77-.5,1.04-.33.27-.76.41-1.28.41-.31,0-.58-.03-.82-.1-.24-.07-.54-.19-.9-.36Z"/>
    <path class="cls-1" d="m75.76,84.48h1.02v7.84h-1.02v-7.84Z"/>
    <path class="cls-1" d="m80.79,87.14c.79,0,1.44.25,1.96.76.52.51.78,1.14.78,1.91s-.26,1.36-.79,1.86-1.19.74-1.99.74-1.42-.25-1.94-.75c-.52-.5-.78-1.12-.78-1.87s.26-1.39.79-1.89c.53-.5,1.19-.76,1.98-.76Zm-.06.92c-.49,0-.89.16-1.21.48s-.47.73-.47,1.23.16.9.48,1.21c.32.31.74.47,1.24.47s.91-.16,1.23-.47c.32-.32.48-.72.48-1.22s-.17-.9-.5-1.22-.75-.48-1.26-.48Z"/>
    <path class="cls-1" d="m84.46,88.94c0-.55.2-.99.6-1.31.4-.32.95-.48,1.65-.48h2.13v.8h-1.04c.2.21.34.39.42.56.08.17.12.36.12.58,0,.27-.08.53-.23.79s-.35.46-.59.6c-.24.14-.64.25-1.19.33-.38.06-.58.19-.58.4,0,.12.07.22.22.29.14.08.41.16.78.24.63.14,1.04.25,1.22.33s.35.19.49.34c.25.25.37.56.37.93,0,.49-.22.88-.65,1.17-.44.29-1.02.44-1.75.44s-1.33-.15-1.77-.44c-.44-.29-.66-.69-.66-1.18,0-.7.43-1.15,1.3-1.35-.34-.22-.52-.44-.52-.66,0-.16.07-.31.22-.45.15-.13.35-.23.6-.3-.76-.34-1.14-.88-1.14-1.63Zm1.68,3.62c-.34,0-.63.07-.85.22-.22.15-.33.33-.33.56,0,.53.48.8,1.44.8.45,0,.8-.07,1.05-.2s.37-.32.37-.56-.16-.44-.47-.59c-.31-.15-.72-.23-1.22-.23Zm.24-4.52c-.28,0-.51.09-.71.28-.2.19-.29.41-.29.67s.1.49.29.66c.19.17.43.26.72.26s.53-.09.72-.27c.19-.18.29-.4.29-.67s-.1-.49-.29-.67c-.2-.18-.44-.27-.73-.27Z"/>
    <path class="cls-1" d="m89.71,87.16h1.02v5.17h-1.02v-5.17Zm2.18-2.8l-1.27,1.68h-.63l.76-1.68h1.14Z"/>
    <path class="cls-1" d="m92.01,91.95v-1.1c.29.2.58.37.88.49.3.13.55.19.76.19s.4-.05.55-.16c.15-.1.23-.23.23-.38s-.05-.27-.15-.37c-.1-.1-.31-.24-.64-.43-.66-.37-1.09-.68-1.29-.94s-.31-.54-.31-.85c0-.4.15-.72.46-.97.31-.25.71-.38,1.19-.38s1.02.14,1.55.43v1.01c-.61-.37-1.1-.55-1.49-.55-.2,0-.36.04-.48.13-.12.08-.18.2-.18.33,0,.12.06.23.17.34.11.11.3.24.58.39l.37.21c.86.49,1.29,1.03,1.29,1.62,0,.42-.17.77-.5,1.04-.33.27-.76.41-1.28.41-.31,0-.58-.03-.82-.1-.24-.07-.54-.19-.9-.36Z"/>
    <path class="cls-1" d="m96.02,87.98l1.92-1.89v1.07h1.63v.92h-1.63v2.53c0,.59.25.89.74.89.37,0,.75-.12,1.16-.37v.96c-.39.22-.82.33-1.29.33s-.86-.14-1.17-.41c-.1-.08-.18-.17-.24-.28s-.12-.24-.16-.4-.06-.48-.06-.95v-2.29h-.9v-.1Z"/>
    <path class="cls-1" d="m101.16,84.98c.17,0,.31.06.43.17s.18.26.18.43-.06.31-.18.43-.26.18-.43.18c-.16,0-.3-.06-.42-.18-.12-.12-.18-.26-.18-.42s.06-.3.18-.42c.12-.12.26-.18.42-.18Zm-.5,2.17h1.02v5.17h-1.02v-5.17Z"/>
    <path class="cls-1" d="m107.09,91.11v1.01c-.51.19-1.01.29-1.5.29-.81,0-1.45-.24-1.93-.72-.48-.48-.72-1.12-.72-1.93s.23-1.47.7-1.97c.47-.5,1.08-.75,1.85-.75.27,0,.5.03.72.08.21.05.47.15.78.28v1.09c-.52-.33-1-.49-1.44-.49s-.84.16-1.13.49-.44.74-.44,1.24c0,.53.16.95.48,1.26.32.31.75.47,1.29.47.39,0,.84-.11,1.35-.34Z"/>
    <path class="cls-1" d="m110.78,87.14c.79,0,1.44.25,1.96.76.52.51.78,1.14.78,1.91s-.26,1.36-.79,1.86-1.19.74-1.99.74-1.42-.25-1.94-.75c-.52-.5-.78-1.12-.78-1.87s.26-1.39.79-1.89c.53-.5,1.19-.76,1.98-.76Zm-.06.92c-.49,0-.89.16-1.21.48s-.47.73-.47,1.23.16.9.48,1.21c.32.31.74.47,1.24.47s.91-.16,1.23-.47c.32-.32.48-.72.48-1.22s-.17-.9-.5-1.22-.75-.48-1.26-.48Z"/>
    <path class="cls-1" d="m114.46,91.95v-1.1c.29.2.58.37.88.49.3.13.55.19.76.19s.4-.05.55-.16c.15-.1.23-.23.23-.38s-.05-.27-.15-.37c-.1-.1-.31-.24-.64-.43-.66-.37-1.09-.68-1.29-.94s-.31-.54-.31-.85c0-.4.15-.72.46-.97.31-.25.71-.38,1.19-.38s1.02.14,1.55.43v1.01c-.61-.37-1.1-.55-1.49-.55-.2,0-.36.04-.48.13-.12.08-.18.2-.18.33,0,.12.06.23.17.34.11.11.3.24.58.39l.37.21c.86.49,1.29,1.03,1.29,1.62,0,.42-.17.77-.5,1.04-.33.27-.76.41-1.28.41-.31,0-.58-.03-.82-.1-.24-.07-.54-.19-.9-.36Z"/>
    <path class="cls-1" d="m125.61,87.16h1.15l-3.66,7.8h-1.14l1.75-3.74-2-4.06h1.16l1.4,2.92,1.34-2.92Z"/>
    <path class="cls-1" d="m133.26,87.14c.79,0,1.44.25,1.96.76.52.51.78,1.14.78,1.91s-.26,1.36-.79,1.86-1.19.74-1.99.74-1.42-.25-1.94-.75c-.52-.5-.78-1.12-.78-1.87s.26-1.39.79-1.89c.53-.5,1.19-.76,1.98-.76Zm-.06.92c-.49,0-.89.16-1.21.48s-.47.73-.47,1.23.16.9.48,1.21c.32.31.74.47,1.24.47s.91-.16,1.23-.47c.32-.32.48-.72.48-1.22s-.17-.9-.5-1.22-.75-.48-1.26-.48Z"/>
    <path class="cls-1" d="m140.48,92.32v-.66c-.22.24-.46.42-.74.55-.28.13-.56.2-.83.2-.33,0-.63-.08-.9-.24-.28-.16-.48-.38-.62-.66-.14-.28-.21-.74-.21-1.39v-2.96h1.02v2.94c0,.54.08.92.23,1.14.16.21.43.32.82.32.49,0,.9-.24,1.24-.71v-3.69h1.02v5.17h-1.02Z"/>
    <path class="cls-1" d="m142.28,87.98l1.92-1.89v1.07h1.63v.92h-1.63v2.53c0,.59.25.89.74.89.37,0,.75-.12,1.16-.37v.96c-.39.22-.82.33-1.29.33s-.86-.14-1.17-.41c-.1-.08-.18-.17-.24-.28s-.12-.24-.16-.4-.06-.48-.06-.95v-2.29h-.9v-.1Z"/>
    <path class="cls-1" d="m146.64,91.95v-1.1c.29.2.58.37.88.49.3.13.55.19.76.19s.4-.05.55-.16c.15-.1.23-.23.23-.38s-.05-.27-.15-.37c-.1-.1-.31-.24-.64-.43-.66-.37-1.09-.68-1.29-.94s-.31-.54-.31-.85c0-.4.15-.72.46-.97.31-.25.71-.38,1.19-.38s1.02.14,1.55.43v1.01c-.61-.37-1.1-.55-1.49-.55-.2,0-.36.04-.48.13-.12.08-.18.2-.18.33,0,.12.06.23.17.34.11.11.3.24.58.39l.37.21c.86.49,1.29,1.03,1.29,1.62,0,.42-.17.77-.5,1.04-.33.27-.76.41-1.28.41-.31,0-.58-.03-.82-.1-.24-.07-.54-.19-.9-.36Z"/>
    <path class="cls-1" d="m153.84,87.14c.79,0,1.44.25,1.96.76.52.51.78,1.14.78,1.91s-.26,1.36-.79,1.86-1.19.74-1.99.74-1.42-.25-1.94-.75c-.52-.5-.78-1.12-.78-1.87s.26-1.39.79-1.89c.53-.5,1.19-.76,1.98-.76Zm-.06.92c-.49,0-.89.16-1.21.48s-.47.73-.47,1.23.16.9.48,1.21c.32.31.74.47,1.24.47s.91-.16,1.23-.47c.32-.32.48-.72.48-1.22s-.17-.9-.5-1.22-.75-.48-1.26-.48Z"/>
    <path class="cls-1" d="m161.06,92.32v-.66c-.22.24-.46.42-.74.55-.28.13-.56.2-.83.2-.33,0-.63-.08-.9-.24-.28-.16-.48-.38-.62-.66-.14-.28-.21-.74-.21-1.39v-2.96h1.02v2.94c0,.54.08.92.23,1.14.16.21.43.32.82.32.49,0,.9-.24,1.24-.71v-3.69h1.02v5.17h-1.02Z"/>
    <path class="cls-1" d="m164.68,87.16v1.18l.06-.09c.49-.8.99-1.2,1.48-1.2.39,0,.79.19,1.21.58l-.54.9c-.36-.34-.69-.51-.99-.51-.33,0-.62.16-.86.47s-.36.69-.36,1.12v2.7h-1.03v-5.17h1.03Z"/>
    <path class="cls-1" d="m171.78,91.11v1.01c-.51.19-1.01.29-1.5.29-.81,0-1.45-.24-1.93-.72-.48-.48-.72-1.12-.72-1.93s.23-1.47.7-1.97c.47-.5,1.08-.75,1.85-.75.27,0,.5.03.72.08.21.05.47.15.78.28v1.09c-.52-.33-1-.49-1.44-.49s-.84.16-1.13.49-.44.74-.44,1.24c0,.53.16.95.48,1.26.32.31.75.47,1.29.47.39,0,.84-.11,1.35-.34Z"/>
    <path class="cls-1" d="m173.53,84.98c.17,0,.31.06.43.17s.18.26.18.43-.06.31-.18.43-.26.18-.43.18c-.16,0-.3-.06-.42-.18-.12-.12-.18-.26-.18-.42s.06-.3.18-.42c.12-.12.26-.18.42-.18Zm-.5,2.17h1.02v5.17h-1.02v-5.17Z"/>
    <path class="cls-1" d="m176.6,87.16v.66c.46-.51.98-.76,1.56-.76.32,0,.62.08.9.25s.49.4.63.69c.14.29.22.75.22,1.38v2.95h-1.02v-2.94c0-.53-.08-.9-.24-1.13-.16-.23-.43-.34-.81-.34-.48,0-.89.24-1.23.72v3.69h-1.04v-5.17h1.04Z"/>
    <path class="cls-1" d="m181.12,88.94c0-.55.2-.99.6-1.31.4-.32.95-.48,1.65-.48h2.13v.8h-1.04c.2.21.34.39.42.56.08.17.12.36.12.58,0,.27-.08.53-.23.79s-.35.46-.59.6c-.24.14-.64.25-1.19.33-.38.06-.58.19-.58.4,0,.12.07.22.22.29.14.08.41.16.78.24.63.14,1.04.25,1.22.33s.35.19.49.34c.25.25.37.56.37.93,0,.49-.22.88-.65,1.17-.44.29-1.02.44-1.75.44s-1.33-.15-1.77-.44c-.44-.29-.66-.69-.66-1.18,0-.7.43-1.15,1.3-1.35-.34-.22-.52-.44-.52-.66,0-.16.07-.31.22-.45.15-.13.35-.23.6-.3-.76-.34-1.14-.88-1.14-1.63Zm1.68,3.62c-.34,0-.63.07-.85.22-.22.15-.33.33-.33.56,0,.53.48.8,1.44.8.45,0,.8-.07,1.05-.2s.37-.32.37-.56-.16-.44-.47-.59c-.31-.15-.72-.23-1.22-.23Zm.24-4.52c-.28,0-.51.09-.71.28-.2.19-.29.41-.29.67s.1.49.29.66c.19.17.43.26.72.26s.53-.09.72-.27c.19-.18.29-.4.29-.67s-.1-.49-.29-.67c-.2-.18-.44-.27-.73-.27Z"/>
  </g>
  <g>
    <path class="cls-3" d="m149.97,60.71h1.63c.35,0,.64.1.86.31s.33.45.33.74c0,.4-.21.7-.63.89.18.08.36.31.52.67s.32.71.48,1.03h-1c-.06-.12-.16-.35-.31-.69s-.27-.55-.38-.65-.22-.14-.34-.14h-.26v1.48h-.91v-3.65Zm.91.67v.83h.48c.15,0,.27-.04.36-.11s.13-.18.13-.31c0-.27-.17-.41-.52-.41h-.46Z"/>
    <path class="cls-3" d="m162.85,63.69v.67h-2.69v-3.65h2.65v.67h-1.74v.76h1.66v.67h-1.66v.88h1.78Z"/>
    <path class="cls-3" d="m174.22,60.71v3.65h-.77l-2.01-2.34v2.34h-.91v-3.65h.83l1.95,2.23v-2.23h.91Z"/>
    <path class="cls-3" d="m184.62,60.71v.67h-1.32v2.98h-.91v-2.98h-1.32v-.67h3.55Z"/>
    <path class="cls-3" d="m193.37,60.71l1.62,3.65h-.98l-.3-.72h-1.63l-.27.72h-.96l1.47-3.65h1.05Zm.08,2.29l-.59-1.42-.54,1.42h1.13Z"/>
    <path class="cls-3" d="m204.56,63.69v.67h-2.78v-3.65h.91v2.98h1.87Z"/>
  </g>
</svg>