<?xml version="1.0" encoding="UTF-8" standalone="no"?>
<svg
   version="1.1"
   id="Nouryon-logo"
   x="0px"
   y="0px"
   viewBox="0 0 134 32.000001"
   xml:space="preserve"
   sodipodi:docname="nouryon-chemicals-argentina.svg"
   width="134"
   height="32"
   inkscape:version="1.4 (86a8ad7, 2024-10-11)"
   xmlns:inkscape="http://www.inkscape.org/namespaces/inkscape"
   xmlns:sodipodi="http://sodipodi.sourceforge.net/DTD/sodipodi-0.dtd"
   xmlns="http://www.w3.org/2000/svg"
   xmlns:svg="http://www.w3.org/2000/svg"><defs
   id="defs1" /><sodipodi:namedview
   id="namedview1"
   pagecolor="#ffffff"
   bordercolor="#999999"
   borderopacity="1"
   inkscape:showpageshadow="2"
   inkscape:pageopacity="0"
   inkscape:pagecheckerboard="0"
   inkscape:deskcolor="#d1d1d1"
   inkscape:zoom="5.3493976"
   inkscape:cx="31.125"
   inkscape:cy="53.183559"
   inkscape:window-width="1920"
   inkscape:window-height="1017"
   inkscape:window-x="-8"
   inkscape:window-y="-8"
   inkscape:window-maximized="1"
   inkscape:current-layer="Nouryon-logo" />
<style
   type="text/css"
   id="style1">
	.st0{fill:#1A4780;}
</style>
<path
   class="st0"
   d="m 19.499999,4.5707208 h -3.2 V 1.2707207 h 6.7 V 21.370721 c 0,2.1 -1.7,3.8 -3.8,3.8 -1,0 -2,-0.4 -2.7,-1.1 l -7.8999995,-7.9 v -4.7 l 10.3999995,10.4 c 0.1,0.1 0.4,0.1 0.5,0 0.1,-0.1 0.1,-0.2 0.1,-0.2 z m -14.099999,0 c 0,-0.2 0.2,-0.3 0.4,-0.3 v 0 c 0.1,0 0.2,0 0.2,0.1 L 16.399999,14.770721 V 9.9707208 l -7.8999995,-7.9 C 7,0.57072072 4.6,0.57072072 3.1,2.0707208 c -0.7,0.7 -1.1,1.7 -1.1,2.8 V 24.870721 h 6.6999995 v -3.3 H 5.5 Z M 44.199999,16.070721 c 0,5 -4,9 -9,9 -5,0 -9,-4 -9,-9 0,-5 4,-9.0000002 9,-9.0000002 v 0 c 5,0 9,4.1000002 9,9.0000002 z m -9,-5.7 c -3.2,0 -5.8,2.5 -5.8,5.7 0,3.2 2.5,5.8 5.700001,5.8 3.2,0 5.799999,-2.5 5.799999,-5.7 0,0 0,0 0,-0.1 v 0 c 0,-3.1 -2.6,-5.7 -5.7,-5.7 z m 78.000001,5.8 c 0,5 -4,9 -9,9 -4.999998,0 -9,-4 -9,-9 0,-5 4.000003,-9.0000002 9,-9.0000002 5,0 9,4.0000002 9,9.0000002 z m -9,-5.8 c -3.2,0 -5.799998,2.6 -5.799998,5.8 0,3.2 2.599998,5.8 5.799998,5.8 3.2,0 5.8,-2.6 5.8,-5.8 v 0 c 0,-3.2 -2.6,-5.8 -5.8,-5.8 z m -34.300001,4.4 c 0,-2.9 1.1,-4.100001 4.4,-4.100001 h 1.5 V 7.4707208 H 74.2 c -4.8,0 -7.8,2 -7.8,7.4000002 v 9.9 c 1.2,0.3 2.3,0.3 3.5,0 z m -19,-7.3000002 h -3.5 V 17.970721 c 0,3.9 2.7,7.1 7.8,7.1 5.1,0 7.7,-3.1 7.7,-7 V 7.4707208 h -3.5 V 18.370721 c 0,1.9 -1.3,3.5 -4.3,3.5 -3,0 -4.3,-1.6 -4.3,-3.5 z M 131.9,14.270721 c 0,-3.9 -2.7,-7.1000002 -7.8,-7.1000002 -5.1,0 -7.8,3.2000002 -7.8,7.1000002 v 10.6 c 1.2,0.3 2.4,0.3 3.5,0 v -11 c 0,-1.9 1.3,-3.5 4.3,-3.5 3,0 4.3,1.6 4.3,3.5 v 10.9 c 1.1,0.3 2.3,0.3 3.4,0 v -10.5 z M 90.6,7.4707208 85.7,19.870721 80.9,7.4707208 h -3.6 l 6.6,17.0000002 c -0.9,2.1 -1.9,3.1 -4,3.1 v 3.2 c 4.2,0 6.1,-2.4 7.7,-6.3 L 94.2,7.5707208 Z"
   id="path1" />
</svg>
